<?xml version="1.0" encoding="utf-8" standalone="no"?>
<!DOCTYPE svg PUBLIC "-//W3C//DTD SVG 1.1//EN"
  "http://www.w3.org/Graphics/SVG/1.1/DTD/svg11.dtd">
<svg xmlns:xlink="http://www.w3.org/1999/xlink" width="604.8pt" height="381.6pt" viewBox="0 0 604.8 381.6" xmlns="http://www.w3.org/2000/svg" version="1.1">
 <metadata>
  <rdf:RDF xmlns:dc="http://purl.org/dc/elements/1.1/" xmlns:cc="http://creativecommons.org/ns#" xmlns:rdf="http://www.w3.org/1999/02/22-rdf-syntax-ns#">
   <cc:Work>
    <dc:type rdf:resource="http://purl.org/dc/dcmitype/StillImage"/>
    <dc:date>2026-09-05T06:46:16.207485</dc:date>
    <dc:format>image/svg+xml</dc:format>
    <dc:creator>
     <cc:Agent>
      <dc:title>Matplotlib v3.11.1, https://matplotlib.org/</dc:title>
     </cc:Agent>
    </dc:creator>
   </cc:Work>
  </rdf:RDF>
 </metadata>
 <defs>
  <style type="text/css">*{stroke-linejoin: round; stroke-linecap: butt}</style>
 </defs>
 <g id="figure_1">
  <g id="patch_1">
   <path d="M 0 381.6 
L 604.8 381.6 
L 604.8 0 
L 0 0 
z
" style="fill: #ffffff"/>
  </g>
  <g id="axes_1">
   <g id="patch_2">
    <path d="M 54.442344 339.477656 
L 594 339.477656 
L 594 26.16 
L 54.442344 26.16 
z
" style="fill: #ffffff"/>
   </g>
   <g id="FillBetweenPolyCollection_1">
    <path d="M 78.967692 284.987733 
L 78.967692 325.235945 
L 82.237738 323.409473 
L 85.507785 321.583405 
L 88.777831 319.757742 
L 92.047877 317.932485 
L 95.317924 316.107634 
L 98.58797 314.28319 
L 101.858017 312.459153 
L 105.128063 310.635524 
L 108.398109 308.812304 
L 111.668156 306.989491 
L 114.938202 305.181758 
L 118.208249 303.377631 
L 121.478295 301.57427 
L 124.748341 299.771675 
L 128.018388 297.969833 
L 131.288434 296.149854 
L 134.558481 294.33027 
L 137.828527 292.511078 
L 141.098573 290.69228 
L 144.36862 288.873872 
L 147.638666 287.064684 
L 150.908713 285.278281 
L 154.178759 283.40391 
L 157.448805 281.535201 
L 160.718852 279.678724 
L 163.988898 277.821913 
L 167.258945 275.985687 
L 170.528991 274.178582 
L 173.799037 272.35642 
L 177.069084 270.533 
L 180.33913 268.682646 
L 183.609177 266.83207 
L 186.879223 264.95543 
L 190.149269 263.076468 
L 193.419316 261.230737 
L 196.689362 259.384868 
L 199.959409 257.545386 
L 203.229455 255.727194 
L 206.499501 253.895511 
L 209.769548 252.187505 
L 213.039594 250.380563 
L 216.309641 248.576769 
L 219.579687 246.82157 
L 222.849733 245.090393 
L 226.11978 243.362369 
L 229.389826 241.547576 
L 232.659873 239.800873 
L 235.929919 238.024048 
L 239.199965 236.32032 
L 242.470012 234.623347 
L 245.740058 232.884203 
L 249.010105 231.174016 
L 252.280151 229.361849 
L 255.550197 227.501791 
L 258.820244 225.718938 
L 262.09029 223.951485 
L 265.360337 222.284241 
L 268.630383 220.612429 
L 271.900429 218.892835 
L 275.170476 217.179769 
L 278.440522 215.489687 
L 281.710569 213.769627 
L 284.980615 212.061143 
L 288.250661 210.336941 
L 291.520708 208.554295 
L 294.790754 206.807191 
L 298.060801 205.22127 
L 301.330847 203.804422 
L 304.600893 202.172637 
L 307.87094 200.490728 
L 311.140986 198.791051 
L 314.411033 197.333597 
L 317.681079 195.746411 
L 320.951125 194.314203 
L 324.221172 192.802034 
L 327.491218 191.368289 
L 330.761265 189.827675 
L 334.031311 188.476805 
L 337.301357 187.148028 
L 340.571404 185.794211 
L 343.84145 184.023167 
L 347.111497 182.850461 
L 350.381543 181.576856 
L 353.651589 179.99811 
L 356.921636 178.592648 
L 360.191682 177.166476 
L 363.461729 176.038061 
L 366.731775 174.763371 
L 370.001821 173.5987 
L 373.271868 172.35074 
L 376.541914 171.044325 
L 379.811961 169.951705 
L 383.082007 168.899316 
L 386.352054 167.632395 
L 389.6221 166.607397 
L 392.892146 165.527784 
L 396.162193 164.368803 
L 399.432239 163.461811 
L 402.702286 162.393118 
L 405.972332 161.257678 
L 409.242378 160.251804 
L 412.512425 159.315266 
L 415.782471 158.239091 
L 419.052518 157.323455 
L 422.322564 156.379476 
L 425.59261 155.504935 
L 428.862657 154.674919 
L 432.132703 153.659853 
L 435.40275 152.75481 
L 438.672796 151.803362 
L 441.942842 150.872202 
L 445.212889 149.953619 
L 448.482935 149.040805 
L 451.752982 148.132321 
L 455.023028 147.123135 
L 458.293074 146.100611 
L 461.563121 145.21631 
L 464.833167 144.39464 
L 468.103214 143.521354 
L 471.37326 142.491141 
L 474.643306 141.576242 
L 477.913353 140.773641 
L 481.183399 139.964133 
L 484.453446 139.043364 
L 487.723492 138.127698 
L 490.993538 137.302032 
L 494.263585 136.531949 
L 497.533631 135.769014 
L 500.803678 134.863184 
L 504.073724 134.068745 
L 507.34377 133.438748 
L 510.613817 132.801914 
L 513.883863 132.042814 
L 517.15391 131.289125 
L 520.423956 130.540819 
L 523.694002 129.736745 
L 526.964049 128.938958 
L 530.234095 128.25068 
L 533.504142 127.54003 
L 536.774188 126.844228 
L 540.044234 126.224765 
L 543.314281 125.610856 
L 546.584327 125.002472 
L 549.854374 124.399582 
L 553.12442 123.802352 
L 556.394466 123.210615 
L 559.664513 122.624299 
L 562.934559 122.043376 
L 566.204606 121.467815 
L 569.474652 120.897587 
L 569.474652 40.401712 
L 569.474652 40.401712 
L 566.204606 42.336536 
L 562.934559 44.238143 
L 559.664513 46.008158 
L 556.394466 47.759366 
L 553.12442 49.525982 
L 549.854374 51.324393 
L 546.584327 53.113725 
L 543.314281 55.019327 
L 540.044234 56.904142 
L 536.774188 58.785016 
L 533.504142 60.727961 
L 530.234095 62.620139 
L 526.964049 64.524743 
L 523.694002 66.478638 
L 520.423956 68.366724 
L 517.15391 70.101624 
L 513.883863 71.830327 
L 510.613817 73.694223 
L 507.34377 75.465637 
L 504.073724 77.194297 
L 500.803678 78.92396 
L 497.533631 80.706343 
L 494.263585 82.504224 
L 490.993538 84.389408 
L 487.723492 86.254183 
L 484.453446 88.024268 
L 481.183399 89.749153 
L 477.913353 91.421862 
L 474.643306 93.300464 
L 471.37326 95.161861 
L 468.103214 97.040932 
L 464.833167 98.920027 
L 461.563121 100.777928 
L 458.293074 102.626902 
L 455.023028 104.363747 
L 451.752982 106.09156 
L 448.482935 107.786523 
L 445.212889 109.633626 
L 441.942842 111.540627 
L 438.672796 113.447176 
L 435.40275 115.198233 
L 432.132703 117.109715 
L 428.862657 118.817435 
L 425.59261 120.569158 
L 422.322564 122.303781 
L 419.052518 123.94243 
L 415.782471 125.651795 
L 412.512425 127.173331 
L 409.242378 128.98833 
L 405.972332 130.779201 
L 402.702286 132.559294 
L 399.432239 134.192905 
L 396.162193 135.870624 
L 392.892146 137.439389 
L 389.6221 139.11363 
L 386.352054 140.640739 
L 383.082007 142.242375 
L 379.811961 143.98383 
L 376.541914 145.268875 
L 373.271868 146.888449 
L 370.001821 148.716917 
L 366.731775 150.440411 
L 363.461729 152.119584 
L 360.191682 153.592227 
L 356.921636 155.149843 
L 353.651589 156.829767 
L 350.381543 158.185777 
L 347.111497 159.802193 
L 343.84145 161.348142 
L 340.571404 162.881207 
L 337.301357 164.376588 
L 334.031311 166.10143 
L 330.761265 167.532788 
L 327.491218 169.095028 
L 324.221172 170.42836 
L 320.951125 171.785266 
L 317.681079 173.086456 
L 314.411033 174.425724 
L 311.140986 175.869049 
L 307.87094 177.078658 
L 304.600893 178.571516 
L 301.330847 179.887716 
L 298.060801 181.400711 
L 294.790754 182.901497 
L 291.520708 184.266879 
L 288.250661 185.483278 
L 284.980615 186.624877 
L 281.710569 187.833459 
L 278.440522 189.254597 
L 275.170476 190.60227 
L 271.900429 192.001577 
L 268.630383 193.481811 
L 265.360337 194.874949 
L 262.09029 196.305667 
L 258.820244 197.74903 
L 255.550197 199.298573 
L 252.280151 200.955951 
L 249.010105 202.598837 
L 245.740058 204.121917 
L 242.470012 205.60593 
L 239.199965 206.923271 
L 235.929919 208.396234 
L 232.659873 209.992134 
L 229.389826 211.367533 
L 226.11978 212.790609 
L 222.849733 214.199418 
L 219.579687 215.603074 
L 216.309641 216.996489 
L 213.039594 218.408988 
L 209.769548 219.875662 
L 206.499501 221.387026 
L 203.229455 222.888085 
L 199.959409 224.350063 
L 196.689362 225.79769 
L 193.419316 227.30924 
L 190.149269 228.822255 
L 186.879223 230.381559 
L 183.609177 231.895487 
L 180.33913 233.375219 
L 177.069084 234.946246 
L 173.799037 236.508929 
L 170.528991 238.080429 
L 167.258945 239.660778 
L 163.988898 241.239501 
L 160.718852 242.781475 
L 157.448805 244.288157 
L 154.178759 245.819583 
L 150.908713 247.397252 
L 147.638666 249.02272 
L 144.36862 250.657453 
L 141.098573 252.293902 
L 137.828527 253.937065 
L 134.558481 255.607944 
L 131.288434 257.312174 
L 128.018388 259.024081 
L 124.748341 260.705837 
L 121.478295 262.348352 
L 118.208249 263.997389 
L 114.938202 265.708022 
L 111.668156 267.428447 
L 108.398109 269.1587 
L 105.128063 270.898819 
L 101.858017 272.637405 
L 98.58797 274.377684 
L 95.317924 276.128274 
L 92.047877 277.889215 
L 88.777831 279.635419 
L 85.507785 281.397871 
L 82.237738 283.217776 
L 78.967692 284.987733 
z
" clip-path="url(#p286c1a8fc5)" style="fill: #1f77b4; fill-opacity: 0.16"/>
   </g>
   <g id="FillBetweenPolyCollection_2">
    <path d="M 78.967692 296.281556 
L 78.967692 314.925745 
L 82.237738 313.061891 
L 85.507785 311.227849 
L 88.777831 309.423665 
L 92.047877 307.571931 
L 95.317924 305.744636 
L 98.58797 303.920051 
L 101.858017 302.078883 
L 105.128063 300.237629 
L 108.398109 298.409833 
L 111.668156 296.599175 
L 114.938202 294.820098 
L 118.208249 293.046461 
L 121.478295 291.276669 
L 124.748341 289.521675 
L 128.018388 287.718862 
L 131.288434 285.942684 
L 134.558481 284.121498 
L 137.828527 282.321292 
L 141.098573 280.527239 
L 144.36862 278.721907 
L 147.638666 276.929624 
L 150.908713 275.190556 
L 154.178759 273.396459 
L 157.448805 271.634004 
L 160.718852 269.869276 
L 163.988898 268.14391 
L 167.258945 266.420118 
L 170.528991 264.690929 
L 173.799037 262.924991 
L 177.069084 261.187947 
L 180.33913 259.436148 
L 183.609177 257.636043 
L 186.879223 255.820557 
L 190.149269 254.093463 
L 193.419316 252.345579 
L 196.689362 250.5953 
L 199.959409 248.863751 
L 203.229455 247.150774 
L 206.499501 245.440471 
L 209.769548 243.758655 
L 213.039594 242.07793 
L 216.309641 240.370607 
L 219.579687 238.622583 
L 222.849733 236.976923 
L 226.11978 235.297562 
L 229.389826 233.588443 
L 232.659873 231.935868 
L 235.929919 230.243557 
L 239.199965 228.572203 
L 242.470012 226.934666 
L 245.740058 225.387574 
L 249.010105 223.720761 
L 252.280151 222.043263 
L 255.550197 220.463109 
L 258.820244 218.725151 
L 262.09029 217.119432 
L 265.360337 215.480992 
L 268.630383 213.884331 
L 271.900429 212.212911 
L 275.170476 210.551499 
L 278.440522 209.008334 
L 281.710569 207.361031 
L 284.980615 205.900272 
L 288.250661 204.298217 
L 291.520708 202.701199 
L 294.790754 201.134071 
L 298.060801 199.516545 
L 301.330847 197.984772 
L 304.600893 196.417056 
L 307.87094 194.809383 
L 311.140986 193.259748 
L 314.411033 191.746052 
L 317.681079 190.178927 
L 320.951125 188.703259 
L 324.221172 187.174135 
L 327.491218 185.635031 
L 330.761265 184.090387 
L 334.031311 182.655603 
L 337.301357 181.233263 
L 340.571404 179.775167 
L 343.84145 178.428741 
L 347.111497 176.97054 
L 350.381543 175.56688 
L 353.651589 174.033045 
L 356.921636 172.592752 
L 360.191682 171.176365 
L 363.461729 169.809865 
L 366.731775 168.588735 
L 370.001821 167.120514 
L 373.271868 165.757629 
L 376.541914 164.45366 
L 379.811961 163.259311 
L 383.082007 161.980182 
L 386.352054 160.696249 
L 389.6221 159.368931 
L 392.892146 158.088163 
L 396.162193 156.864105 
L 399.432239 155.611654 
L 402.702286 154.395224 
L 405.972332 153.158063 
L 409.242378 151.92042 
L 412.512425 150.70518 
L 415.782471 149.341839 
L 419.052518 148.069426 
L 422.322564 146.827923 
L 425.59261 145.669417 
L 428.862657 144.512843 
L 432.132703 143.273063 
L 435.40275 142.054052 
L 438.672796 140.938567 
L 441.942842 139.76922 
L 445.212889 138.663329 
L 448.482935 137.423106 
L 451.752982 136.123608 
L 455.023028 134.930589 
L 458.293074 133.929873 
L 461.563121 132.749074 
L 464.833167 131.673877 
L 468.103214 130.561069 
L 471.37326 129.56271 
L 474.643306 128.415774 
L 477.913353 127.375096 
L 481.183399 126.29865 
L 484.453446 125.315331 
L 487.723492 124.243093 
L 490.993538 123.203739 
L 494.263585 122.163015 
L 497.533631 121.077122 
L 500.803678 120.160346 
L 504.073724 119.198969 
L 507.34377 118.191038 
L 510.613817 117.202263 
L 513.883863 116.127888 
L 517.15391 115.014666 
L 520.423956 113.904274 
L 523.694002 112.868389 
L 526.964049 111.927746 
L 530.234095 110.910815 
L 533.504142 109.912172 
L 536.774188 108.910309 
L 540.044234 107.962248 
L 543.314281 106.97602 
L 546.584327 105.924698 
L 549.854374 104.994926 
L 553.12442 104.232117 
L 556.394466 103.202443 
L 559.664513 102.149882 
L 562.934559 101.183831 
L 566.204606 100.302862 
L 569.474652 99.379941 
L 569.474652 61.104712 
L 569.474652 61.104712 
L 566.204606 62.614623 
L 562.934559 64.09936 
L 559.664513 65.642898 
L 556.394466 67.144603 
L 553.12442 68.570567 
L 549.854374 70.176749 
L 546.584327 71.735203 
L 543.314281 73.292622 
L 540.044234 74.828334 
L 536.774188 76.157953 
L 533.504142 77.600408 
L 530.234095 79.13925 
L 526.964049 80.812341 
L 523.694002 82.255269 
L 520.423956 83.901191 
L 517.15391 85.428055 
L 513.883863 87.060241 
L 510.613817 88.537311 
L 507.34377 89.992681 
L 504.073724 91.481069 
L 500.803678 93.103159 
L 497.533631 94.623174 
L 494.263585 96.123441 
L 490.993538 97.631279 
L 487.723492 99.168315 
L 484.453446 100.707524 
L 481.183399 102.240405 
L 477.913353 103.740728 
L 474.643306 105.275782 
L 471.37326 106.849704 
L 468.103214 108.391716 
L 464.833167 109.907953 
L 461.563121 111.46215 
L 458.293074 112.990656 
L 455.023028 114.537033 
L 451.752982 116.172723 
L 448.482935 117.69089 
L 445.212889 119.252397 
L 441.942842 120.832461 
L 438.672796 122.379697 
L 435.40275 123.982519 
L 432.132703 125.554246 
L 428.862657 127.170244 
L 425.59261 128.757527 
L 422.322564 130.327895 
L 419.052518 131.84319 
L 415.782471 133.510444 
L 412.512425 134.977571 
L 409.242378 136.625521 
L 405.972332 138.152101 
L 402.702286 139.594638 
L 399.432239 141.114476 
L 396.162193 142.668 
L 392.892146 144.191408 
L 389.6221 145.733986 
L 386.352054 147.230404 
L 383.082007 148.582081 
L 379.811961 150.102872 
L 376.541914 151.617909 
L 373.271868 153.123777 
L 370.001821 154.666115 
L 366.731775 156.104806 
L 363.461729 157.69481 
L 360.191682 159.23636 
L 356.921636 160.732634 
L 353.651589 162.237832 
L 350.381543 163.755449 
L 347.111497 165.34792 
L 343.84145 166.916703 
L 340.571404 168.449817 
L 337.301357 169.969538 
L 334.031311 171.472975 
L 330.761265 172.950447 
L 327.491218 174.399621 
L 324.221172 175.885181 
L 320.951125 177.351437 
L 317.681079 178.86746 
L 314.411033 180.380143 
L 311.140986 181.87526 
L 307.87094 183.331881 
L 304.600893 184.735157 
L 301.330847 186.236141 
L 298.060801 187.777239 
L 294.790754 189.252269 
L 291.520708 190.736458 
L 288.250661 192.26553 
L 284.980615 193.761751 
L 281.710569 195.21688 
L 278.440522 196.701365 
L 275.170476 198.22678 
L 271.900429 199.706735 
L 268.630383 201.242477 
L 265.360337 202.684806 
L 262.09029 204.137516 
L 258.820244 205.677147 
L 255.550197 207.14966 
L 252.280151 208.669423 
L 249.010105 210.239539 
L 245.740058 211.758523 
L 242.470012 213.245331 
L 239.199965 214.762547 
L 235.929919 216.259442 
L 232.659873 217.869251 
L 229.389826 219.388684 
L 226.11978 221.001124 
L 222.849733 222.587118 
L 219.579687 224.129829 
L 216.309641 225.663153 
L 213.039594 227.170011 
L 209.769548 228.645933 
L 206.499501 230.258503 
L 203.229455 231.849249 
L 199.959409 233.463315 
L 196.689362 235.0702 
L 193.419316 236.673118 
L 190.149269 238.18721 
L 186.879223 239.785538 
L 183.609177 241.368237 
L 180.33913 242.915987 
L 177.069084 244.577166 
L 173.799037 246.24034 
L 170.528991 247.902785 
L 167.258945 249.546238 
L 163.988898 251.198972 
L 160.718852 252.865779 
L 157.448805 254.540833 
L 154.178759 256.203319 
L 150.908713 257.906659 
L 147.638666 259.544152 
L 144.36862 261.224643 
L 141.098573 262.911354 
L 137.828527 264.612312 
L 134.558481 266.298009 
L 131.288434 267.993357 
L 128.018388 269.740784 
L 124.748341 271.473167 
L 121.478295 273.215714 
L 118.208249 274.959087 
L 114.938202 276.707669 
L 111.668156 278.460002 
L 108.398109 280.219683 
L 105.128063 281.995058 
L 101.858017 283.778306 
L 98.58797 285.555493 
L 95.317924 287.340193 
L 92.047877 289.135556 
L 88.777831 290.870004 
L 85.507785 292.66857 
L 82.237738 294.460721 
L 78.967692 296.281556 
z
" clip-path="url(#p286c1a8fc5)" style="fill: #ff7f0e; fill-opacity: 0.32"/>
   </g>
   <g id="matplotlib.axis_1">
    <g id="xtick_1">
     <g id="line2d_1">
      <defs>
       <path id="ma78d39a021" d="M 0 0 
L 0 3.5 
" style="stroke: #000000; stroke-width: 0.8"/>
      </defs>
      <g>
       <use xlink:href="#ma78d39a021" x="78.967692" y="339.477656" style="stroke: #000000; stroke-width: 0.8"/>
      </g>
     </g>
     <g id="text_1">
      <!-- 0.4 -->
      <g transform="translate(71.016129 354.075312) scale(0.1 -0.1)">
       <defs>
        <path id="DejaVuSans-13" d="M 2034 4250 
Q 1547 4250 1301 3770 
Q 1056 3291 1056 2328 
Q 1056 1369 1301 889 
Q 1547 409 2034 409 
Q 2525 409 2770 889 
Q 3016 1369 3016 2328 
Q 3016 3291 2770 3770 
Q 2525 4250 2034 4250 
z
M 2034 4750 
Q 2819 4750 3233 4129 
Q 3647 3509 3647 2328 
Q 3647 1150 3233 529 
Q 2819 -91 2034 -91 
Q 1250 -91 836 529 
Q 422 1150 422 2328 
Q 422 3509 836 4129 
Q 1250 4750 2034 4750 
z
" transform="scale(0.015625)"/>
        <path id="DejaVuSans-11" d="M 684 794 
L 1344 794 
L 1344 0 
L 684 0 
L 684 794 
z
" transform="scale(0.015625)"/>
        <path id="DejaVuSans-17" d="M 2419 4116 
L 825 1625 
L 2419 1625 
L 2419 4116 
z
M 2253 4666 
L 3047 4666 
L 3047 1625 
L 3713 1625 
L 3713 1100 
L 3047 1100 
L 3047 0 
L 2419 0 
L 2419 1100 
L 313 1100 
L 313 1709 
L 2253 4666 
z
" transform="scale(0.015625)"/>
       </defs>
       <use xlink:href="#DejaVuSans-13"/>
       <use xlink:href="#DejaVuSans-11" transform="translate(63.625 0)"/>
       <use xlink:href="#DejaVuSans-17" transform="translate(95.40625 0)"/>
      </g>
     </g>
    </g>
    <g id="xtick_2">
     <g id="line2d_2">
      <g>
       <use xlink:href="#ma78d39a021" x="149.040115" y="339.477656" style="stroke: #000000; stroke-width: 0.8"/>
      </g>
     </g>
     <g id="text_2">
      <!-- 0.5 -->
      <g transform="translate(141.088552 354.075312) scale(0.1 -0.1)">
       <defs>
        <path id="DejaVuSans-18" d="M 691 4666 
L 3169 4666 
L 3169 4134 
L 1269 4134 
L 1269 2991 
Q 1406 3038 1543 3061 
Q 1681 3084 1819 3084 
Q 2600 3084 3056 2656 
Q 3513 2228 3513 1497 
Q 3513 744 3044 326 
Q 2575 -91 1722 -91 
Q 1428 -91 1123 -41 
Q 819 9 494 109 
L 494 744 
Q 775 591 1075 516 
Q 1375 441 1709 441 
Q 2250 441 2565 725 
Q 2881 1009 2881 1497 
Q 2881 1984 2565 2268 
Q 2250 2553 1709 2553 
Q 1456 2553 1204 2497 
Q 953 2441 691 2322 
L 691 4666 
z
" transform="scale(0.015625)"/>
       </defs>
       <use xlink:href="#DejaVuSans-13"/>
       <use xlink:href="#DejaVuSans-11" transform="translate(63.625 0)"/>
       <use xlink:href="#DejaVuSans-18" transform="translate(95.40625 0)"/>
      </g>
     </g>
    </g>
    <g id="xtick_3">
     <g id="line2d_3">
      <g>
       <use xlink:href="#ma78d39a021" x="219.112538" y="339.477656" style="stroke: #000000; stroke-width: 0.8"/>
      </g>
     </g>
     <g id="text_3">
      <!-- 0.6 -->
      <g transform="translate(211.160975 354.075312) scale(0.1 -0.1)">
       <defs>
        <path id="DejaVuSans-19" d="M 2113 2584 
Q 1688 2584 1439 2293 
Q 1191 2003 1191 1497 
Q 1191 994 1439 701 
Q 1688 409 2113 409 
Q 2538 409 2786 701 
Q 3034 994 3034 1497 
Q 3034 2003 2786 2293 
Q 2538 2584 2113 2584 
z
M 3366 4563 
L 3366 3988 
Q 3128 4100 2886 4159 
Q 2644 4219 2406 4219 
Q 1781 4219 1451 3797 
Q 1122 3375 1075 2522 
Q 1259 2794 1537 2939 
Q 1816 3084 2150 3084 
Q 2853 3084 3261 2657 
Q 3669 2231 3669 1497 
Q 3669 778 3244 343 
Q 2819 -91 2113 -91 
Q 1303 -91 875 529 
Q 447 1150 447 2328 
Q 447 3434 972 4092 
Q 1497 4750 2381 4750 
Q 2619 4750 2861 4703 
Q 3103 4656 3366 4563 
z
" transform="scale(0.015625)"/>
       </defs>
       <use xlink:href="#DejaVuSans-13"/>
       <use xlink:href="#DejaVuSans-11" transform="translate(63.625 0)"/>
       <use xlink:href="#DejaVuSans-19" transform="translate(95.40625 0)"/>
      </g>
     </g>
    </g>
    <g id="xtick_4">
     <g id="line2d_4">
      <g>
       <use xlink:href="#ma78d39a021" x="289.18496" y="339.477656" style="stroke: #000000; stroke-width: 0.8"/>
      </g>
     </g>
     <g id="text_4">
      <!-- 0.7 -->
      <g transform="translate(281.233398 354.075312) scale(0.1 -0.1)">
       <defs>
        <path id="DejaVuSans-1a" d="M 525 4666 
L 3525 4666 
L 3525 4397 
L 1831 0 
L 1172 0 
L 2766 4134 
L 525 4134 
L 525 4666 
z
" transform="scale(0.015625)"/>
       </defs>
       <use xlink:href="#DejaVuSans-13"/>
       <use xlink:href="#DejaVuSans-11" transform="translate(63.625 0)"/>
       <use xlink:href="#DejaVuSans-1a" transform="translate(95.40625 0)"/>
      </g>
     </g>
    </g>
    <g id="xtick_5">
     <g id="line2d_5">
      <g>
       <use xlink:href="#ma78d39a021" x="359.257383" y="339.477656" style="stroke: #000000; stroke-width: 0.8"/>
      </g>
     </g>
     <g id="text_5">
      <!-- 0.8 -->
      <g transform="translate(351.305821 354.075312) scale(0.1 -0.1)">
       <defs>
        <path id="DejaVuSans-1b" d="M 2034 2216 
Q 1584 2216 1326 1975 
Q 1069 1734 1069 1313 
Q 1069 891 1326 650 
Q 1584 409 2034 409 
Q 2484 409 2743 651 
Q 3003 894 3003 1313 
Q 3003 1734 2745 1975 
Q 2488 2216 2034 2216 
z
M 1403 2484 
Q 997 2584 770 2862 
Q 544 3141 544 3541 
Q 544 4100 942 4425 
Q 1341 4750 2034 4750 
Q 2731 4750 3128 4425 
Q 3525 4100 3525 3541 
Q 3525 3141 3298 2862 
Q 3072 2584 2669 2484 
Q 3125 2378 3379 2068 
Q 3634 1759 3634 1313 
Q 3634 634 3220 271 
Q 2806 -91 2034 -91 
Q 1263 -91 848 271 
Q 434 634 434 1313 
Q 434 1759 690 2068 
Q 947 2378 1403 2484 
z
M 1172 3481 
Q 1172 3119 1398 2916 
Q 1625 2713 2034 2713 
Q 2441 2713 2670 2916 
Q 2900 3119 2900 3481 
Q 2900 3844 2670 4047 
Q 2441 4250 2034 4250 
Q 1625 4250 1398 4047 
Q 1172 3844 1172 3481 
z
" transform="scale(0.015625)"/>
       </defs>
       <use xlink:href="#DejaVuSans-13"/>
       <use xlink:href="#DejaVuSans-11" transform="translate(63.625 0)"/>
       <use xlink:href="#DejaVuSans-1b" transform="translate(95.40625 0)"/>
      </g>
     </g>
    </g>
    <g id="xtick_6">
     <g id="line2d_6">
      <g>
       <use xlink:href="#ma78d39a021" x="429.329806" y="339.477656" style="stroke: #000000; stroke-width: 0.8"/>
      </g>
     </g>
     <g id="text_6">
      <!-- 0.9 -->
      <g transform="translate(421.378244 354.075312) scale(0.1 -0.1)">
       <defs>
        <path id="DejaVuSans-1c" d="M 703 97 
L 703 672 
Q 941 559 1184 500 
Q 1428 441 1663 441 
Q 2288 441 2617 861 
Q 2947 1281 2994 2138 
Q 2813 1869 2534 1725 
Q 2256 1581 1919 1581 
Q 1219 1581 811 2004 
Q 403 2428 403 3163 
Q 403 3881 828 4315 
Q 1253 4750 1959 4750 
Q 2769 4750 3195 4129 
Q 3622 3509 3622 2328 
Q 3622 1225 3098 567 
Q 2575 -91 1691 -91 
Q 1453 -91 1209 -44 
Q 966 3 703 97 
z
M 1959 2075 
Q 2384 2075 2632 2365 
Q 2881 2656 2881 3163 
Q 2881 3666 2632 3958 
Q 2384 4250 1959 4250 
Q 1534 4250 1286 3958 
Q 1038 3666 1038 3163 
Q 1038 2656 1286 2365 
Q 1534 2075 1959 2075 
z
" transform="scale(0.015625)"/>
       </defs>
       <use xlink:href="#DejaVuSans-13"/>
       <use xlink:href="#DejaVuSans-11" transform="translate(63.625 0)"/>
       <use xlink:href="#DejaVuSans-1c" transform="translate(95.40625 0)"/>
      </g>
     </g>
    </g>
    <g id="xtick_7">
     <g id="line2d_7">
      <g>
       <use xlink:href="#ma78d39a021" x="499.402229" y="339.477656" style="stroke: #000000; stroke-width: 0.8"/>
      </g>
     </g>
     <g id="text_7">
      <!-- 1.0 -->
      <g transform="translate(491.450667 354.075312) scale(0.1 -0.1)">
       <defs>
        <path id="DejaVuSans-14" d="M 794 531 
L 1825 531 
L 1825 4091 
L 703 3866 
L 703 4441 
L 1819 4666 
L 2450 4666 
L 2450 531 
L 3481 531 
L 3481 0 
L 794 0 
L 794 531 
z
" transform="scale(0.015625)"/>
       </defs>
       <use xlink:href="#DejaVuSans-14"/>
       <use xlink:href="#DejaVuSans-11" transform="translate(63.625 0)"/>
       <use xlink:href="#DejaVuSans-13" transform="translate(95.40625 0)"/>
      </g>
     </g>
    </g>
    <g id="xtick_8">
     <g id="line2d_8">
      <g>
       <use xlink:href="#ma78d39a021" x="569.474652" y="339.477656" style="stroke: #000000; stroke-width: 0.8"/>
      </g>
     </g>
     <g id="text_8">
      <!-- 1.1 -->
      <g transform="translate(561.523089 354.075312) scale(0.1 -0.1)">
       <use xlink:href="#DejaVuSans-14"/>
       <use xlink:href="#DejaVuSans-11" transform="translate(63.625 0)"/>
       <use xlink:href="#DejaVuSans-14" transform="translate(95.40625 0)"/>
      </g>
     </g>
    </g>
    <g id="text_9">
     <!-- Redshift z -->
     <g transform="translate(299.711797 368.076094) scale(0.1 -0.1)">
      <defs>
       <path id="DejaVuSans-35" d="M 2841 2188 
Q 3044 2119 3236 1894 
Q 3428 1669 3622 1275 
L 4263 0 
L 3584 0 
L 2988 1197 
Q 2756 1666 2539 1819 
Q 2322 1972 1947 1972 
L 1259 1972 
L 1259 0 
L 628 0 
L 628 4666 
L 2053 4666 
Q 2853 4666 3247 4331 
Q 3641 3997 3641 3322 
Q 3641 2881 3436 2590 
Q 3231 2300 2841 2188 
z
M 1259 4147 
L 1259 2491 
L 2053 2491 
Q 2509 2491 2742 2702 
Q 2975 2913 2975 3322 
Q 2975 3731 2742 3939 
Q 2509 4147 2053 4147 
L 1259 4147 
z
" transform="scale(0.015625)"/>
       <path id="DejaVuSans-48" d="M 3597 1894 
L 3597 1613 
L 953 1613 
Q 991 1019 1311 708 
Q 1631 397 2203 397 
Q 2534 397 2845 478 
Q 3156 559 3463 722 
L 3463 178 
Q 3153 47 2828 -22 
Q 2503 -91 2169 -91 
Q 1331 -91 842 396 
Q 353 884 353 1716 
Q 353 2575 817 3079 
Q 1281 3584 2069 3584 
Q 2775 3584 3186 3129 
Q 3597 2675 3597 1894 
z
M 3022 2063 
Q 3016 2534 2758 2815 
Q 2500 3097 2075 3097 
Q 1594 3097 1305 2825 
Q 1016 2553 972 2059 
L 3022 2063 
z
" transform="scale(0.015625)"/>
       <path id="DejaVuSans-47" d="M 2906 2969 
L 2906 4863 
L 3481 4863 
L 3481 0 
L 2906 0 
L 2906 525 
Q 2725 213 2448 61 
Q 2172 -91 1784 -91 
Q 1150 -91 751 415 
Q 353 922 353 1747 
Q 353 2572 751 3078 
Q 1150 3584 1784 3584 
Q 2172 3584 2448 3432 
Q 2725 3281 2906 2969 
z
M 947 1747 
Q 947 1113 1208 752 
Q 1469 391 1925 391 
Q 2381 391 2643 752 
Q 2906 1113 2906 1747 
Q 2906 2381 2643 2742 
Q 2381 3103 1925 3103 
Q 1469 3103 1208 2742 
Q 947 2381 947 1747 
z
" transform="scale(0.015625)"/>
       <path id="DejaVuSans-56" d="M 2834 3397 
L 2834 2853 
Q 2591 2978 2328 3040 
Q 2066 3103 1784 3103 
Q 1356 3103 1142 2972 
Q 928 2841 928 2578 
Q 928 2378 1081 2264 
Q 1234 2150 1697 2047 
L 1894 2003 
Q 2506 1872 2764 1633 
Q 3022 1394 3022 966 
Q 3022 478 2636 193 
Q 2250 -91 1575 -91 
Q 1294 -91 989 -36 
Q 684 19 347 128 
L 347 722 
Q 666 556 975 473 
Q 1284 391 1588 391 
Q 1994 391 2212 530 
Q 2431 669 2431 922 
Q 2431 1156 2273 1281 
Q 2116 1406 1581 1522 
L 1381 1569 
Q 847 1681 609 1914 
Q 372 2147 372 2553 
Q 372 3047 722 3315 
Q 1072 3584 1716 3584 
Q 2034 3584 2315 3537 
Q 2597 3491 2834 3397 
z
" transform="scale(0.015625)"/>
       <path id="DejaVuSans-4b" d="M 3513 2113 
L 3513 0 
L 2938 0 
L 2938 2094 
Q 2938 2591 2744 2837 
Q 2550 3084 2163 3084 
Q 1697 3084 1428 2787 
Q 1159 2491 1159 1978 
L 1159 0 
L 581 0 
L 581 4863 
L 1159 4863 
L 1159 2956 
Q 1366 3272 1645 3428 
Q 1925 3584 2291 3584 
Q 2894 3584 3203 3211 
Q 3513 2838 3513 2113 
z
" transform="scale(0.015625)"/>
       <path id="DejaVuSans-4c" d="M 603 3500 
L 1178 3500 
L 1178 0 
L 603 0 
L 603 3500 
z
M 603 4863 
L 1178 4863 
L 1178 4134 
L 603 4134 
L 603 4863 
z
" transform="scale(0.015625)"/>
       <path id="DejaVuSans-49" d="M 2375 4863 
L 2375 4384 
L 1825 4384 
Q 1516 4384 1395 4259 
Q 1275 4134 1275 3809 
L 1275 3500 
L 2222 3500 
L 2222 3053 
L 1275 3053 
L 1275 0 
L 697 0 
L 697 3053 
L 147 3053 
L 147 3500 
L 697 3500 
L 697 3744 
Q 697 4328 969 4595 
Q 1241 4863 1831 4863 
L 2375 4863 
z
" transform="scale(0.015625)"/>
       <path id="DejaVuSans-57" d="M 1172 4494 
L 1172 3500 
L 2356 3500 
L 2356 3053 
L 1172 3053 
L 1172 1153 
Q 1172 725 1289 603 
Q 1406 481 1766 481 
L 2356 481 
L 2356 0 
L 1766 0 
Q 1100 0 847 248 
Q 594 497 594 1153 
L 594 3053 
L 172 3053 
L 172 3500 
L 594 3500 
L 594 4494 
L 1172 4494 
z
" transform="scale(0.015625)"/>
       <path id="DejaVuSans-3" transform="scale(0.015625)"/>
       <path id="DejaVuSans-5d" d="M 353 3500 
L 3084 3500 
L 3084 2975 
L 922 459 
L 3084 459 
L 3084 0 
L 275 0 
L 275 525 
L 2438 3041 
L 353 3041 
L 353 3500 
z
" transform="scale(0.015625)"/>
      </defs>
      <use xlink:href="#DejaVuSans-35"/>
      <use xlink:href="#DejaVuSans-48" transform="translate(65 0)"/>
      <use xlink:href="#DejaVuSans-47" transform="translate(126.53125 0)"/>
      <use xlink:href="#DejaVuSans-56" transform="translate(190.015625 0)"/>
      <use xlink:href="#DejaVuSans-4b" transform="translate(242.109375 0)"/>
      <use xlink:href="#DejaVuSans-4c" transform="translate(305.484375 0)"/>
      <use xlink:href="#DejaVuSans-49" transform="translate(333.265625 0)"/>
      <use xlink:href="#DejaVuSans-57" transform="translate(366.71875 0)"/>
      <use xlink:href="#DejaVuSans-3" transform="translate(405.921875 0)"/>
      <use xlink:href="#DejaVuSans-5d" transform="translate(437.703125 0)"/>
     </g>
    </g>
   </g>
   <g id="matplotlib.axis_2">
    <g id="ytick_1">
     <g id="line2d_9">
      <defs>
       <path id="m57da21fa7b" d="M 0 0 
L -3.5 0 
" style="stroke: #000000; stroke-width: 0.8"/>
      </defs>
      <g>
       <use xlink:href="#m57da21fa7b" x="54.442344" y="316.520901" style="stroke: #000000; stroke-width: 0.8"/>
      </g>
     </g>
     <g id="text_10">
      <!-- 10.0 -->
      <g transform="translate(25.176719 320.319729) scale(0.1 -0.1)">
       <use xlink:href="#DejaVuSans-14"/>
       <use xlink:href="#DejaVuSans-13" transform="translate(63.625 0)"/>
       <use xlink:href="#DejaVuSans-11" transform="translate(127.25 0)"/>
       <use xlink:href="#DejaVuSans-13" transform="translate(159.03125 0)"/>
      </g>
     </g>
    </g>
    <g id="ytick_2">
     <g id="line2d_10">
      <g>
       <use xlink:href="#m57da21fa7b" x="54.442344" y="274.955506" style="stroke: #000000; stroke-width: 0.8"/>
      </g>
     </g>
     <g id="text_11">
      <!-- 12.5 -->
      <g transform="translate(25.176719 278.754334) scale(0.1 -0.1)">
       <defs>
        <path id="DejaVuSans-15" d="M 1228 531 
L 3431 531 
L 3431 0 
L 469 0 
L 469 531 
Q 828 903 1448 1529 
Q 2069 2156 2228 2338 
Q 2531 2678 2651 2914 
Q 2772 3150 2772 3378 
Q 2772 3750 2511 3984 
Q 2250 4219 1831 4219 
Q 1534 4219 1204 4116 
Q 875 4013 500 3803 
L 500 4441 
Q 881 4594 1212 4672 
Q 1544 4750 1819 4750 
Q 2544 4750 2975 4387 
Q 3406 4025 3406 3419 
Q 3406 3131 3298 2873 
Q 3191 2616 2906 2266 
Q 2828 2175 2409 1742 
Q 1991 1309 1228 531 
z
" transform="scale(0.015625)"/>
       </defs>
       <use xlink:href="#DejaVuSans-14"/>
       <use xlink:href="#DejaVuSans-15" transform="translate(63.625 0)"/>
       <use xlink:href="#DejaVuSans-11" transform="translate(127.25 0)"/>
       <use xlink:href="#DejaVuSans-18" transform="translate(159.03125 0)"/>
      </g>
     </g>
    </g>
    <g id="ytick_3">
     <g id="line2d_11">
      <g>
       <use xlink:href="#m57da21fa7b" x="54.442344" y="233.39011" style="stroke: #000000; stroke-width: 0.8"/>
      </g>
     </g>
     <g id="text_12">
      <!-- 15.0 -->
      <g transform="translate(25.176719 237.188938) scale(0.1 -0.1)">
       <use xlink:href="#DejaVuSans-14"/>
       <use xlink:href="#DejaVuSans-18" transform="translate(63.625 0)"/>
       <use xlink:href="#DejaVuSans-11" transform="translate(127.25 0)"/>
       <use xlink:href="#DejaVuSans-13" transform="translate(159.03125 0)"/>
      </g>
     </g>
    </g>
    <g id="ytick_4">
     <g id="line2d_12">
      <g>
       <use xlink:href="#m57da21fa7b" x="54.442344" y="191.824715" style="stroke: #000000; stroke-width: 0.8"/>
      </g>
     </g>
     <g id="text_13">
      <!-- 17.5 -->
      <g transform="translate(25.176719 195.623543) scale(0.1 -0.1)">
       <use xlink:href="#DejaVuSans-14"/>
       <use xlink:href="#DejaVuSans-1a" transform="translate(63.625 0)"/>
       <use xlink:href="#DejaVuSans-11" transform="translate(127.25 0)"/>
       <use xlink:href="#DejaVuSans-18" transform="translate(159.03125 0)"/>
      </g>
     </g>
    </g>
    <g id="ytick_5">
     <g id="line2d_13">
      <g>
       <use xlink:href="#m57da21fa7b" x="54.442344" y="150.259319" style="stroke: #000000; stroke-width: 0.8"/>
      </g>
     </g>
     <g id="text_14">
      <!-- 20.0 -->
      <g transform="translate(25.176719 154.058147) scale(0.1 -0.1)">
       <use xlink:href="#DejaVuSans-15"/>
       <use xlink:href="#DejaVuSans-13" transform="translate(63.625 0)"/>
       <use xlink:href="#DejaVuSans-11" transform="translate(127.25 0)"/>
       <use xlink:href="#DejaVuSans-13" transform="translate(159.03125 0)"/>
      </g>
     </g>
    </g>
    <g id="ytick_6">
     <g id="line2d_14">
      <g>
       <use xlink:href="#m57da21fa7b" x="54.442344" y="108.693924" style="stroke: #000000; stroke-width: 0.8"/>
      </g>
     </g>
     <g id="text_15">
      <!-- 22.5 -->
      <g transform="translate(25.176719 112.492752) scale(0.1 -0.1)">
       <use xlink:href="#DejaVuSans-15"/>
       <use xlink:href="#DejaVuSans-15" transform="translate(63.625 0)"/>
       <use xlink:href="#DejaVuSans-11" transform="translate(127.25 0)"/>
       <use xlink:href="#DejaVuSans-18" transform="translate(159.03125 0)"/>
      </g>
     </g>
    </g>
    <g id="ytick_7">
     <g id="line2d_15">
      <g>
       <use xlink:href="#m57da21fa7b" x="54.442344" y="67.128528" style="stroke: #000000; stroke-width: 0.8"/>
      </g>
     </g>
     <g id="text_16">
      <!-- 25.0 -->
      <g transform="translate(25.176719 70.927356) scale(0.1 -0.1)">
       <use xlink:href="#DejaVuSans-15"/>
       <use xlink:href="#DejaVuSans-18" transform="translate(63.625 0)"/>
       <use xlink:href="#DejaVuSans-11" transform="translate(127.25 0)"/>
       <use xlink:href="#DejaVuSans-13" transform="translate(159.03125 0)"/>
      </g>
     </g>
    </g>
    <g id="text_17">
     <!-- $D_M/r_d$ -->
     <g transform="translate(18.774375 195.968828) rotate(-90) scale(0.1 -0.1)">
      <defs>
       <path id="DejaVuSans-Oblique-27" d="M 1081 4666 
L 2438 4666 
Q 3519 4666 4070 4208 
Q 4622 3750 4622 2847 
Q 4622 2250 4412 1698 
Q 4203 1147 3834 769 
Q 3463 381 2891 190 
Q 2319 0 1538 0 
L 172 0 
L 1081 4666 
z
M 1613 4147 
L 909 519 
L 1734 519 
Q 2794 519 3375 1128 
Q 3956 1738 3956 2847 
Q 3956 3519 3581 3833 
Q 3206 4147 2406 4147 
L 1613 4147 
z
" transform="scale(0.015625)"/>
       <path id="DejaVuSans-Oblique-30" d="M 1081 4666 
L 2028 4666 
L 2572 1522 
L 4378 4666 
L 5350 4666 
L 4441 0 
L 3828 0 
L 4622 4091 
L 2791 897 
L 2175 897 
L 1581 4103 
L 788 0 
L 172 0 
L 1081 4666 
z
" transform="scale(0.015625)"/>
       <path id="DejaVuSans-12" d="M 1625 4666 
L 2156 4666 
L 531 -594 
L 0 -594 
L 1625 4666 
z
" transform="scale(0.015625)"/>
       <path id="DejaVuSans-Oblique-55" d="M 2853 2969 
Q 2766 3016 2653 3041 
Q 2541 3066 2413 3066 
Q 1953 3066 1609 2717 
Q 1266 2369 1153 1784 
L 800 0 
L 225 0 
L 909 3500 
L 1484 3500 
L 1375 2956 
Q 1603 3259 1920 3421 
Q 2238 3584 2597 3584 
Q 2691 3584 2781 3573 
Q 2872 3563 2963 3538 
L 2853 2969 
z
" transform="scale(0.015625)"/>
       <path id="DejaVuSans-Oblique-47" d="M 2675 525 
Q 2444 222 2128 65 
Q 1813 -91 1428 -91 
Q 903 -91 598 267 
Q 294 625 294 1247 
Q 294 1766 478 2236 
Q 663 2706 1013 3078 
Q 1244 3325 1534 3454 
Q 1825 3584 2144 3584 
Q 2481 3584 2739 3421 
Q 2997 3259 3138 2956 
L 3513 4863 
L 4091 4863 
L 3144 0 
L 2566 0 
L 2675 525 
z
M 891 1350 
Q 891 897 1095 644 
Q 1300 391 1663 391 
Q 1931 391 2161 520 
Q 2391 650 2566 903 
Q 2750 1166 2856 1509 
Q 2963 1853 2963 2188 
Q 2963 2622 2758 2865 
Q 2553 3109 2194 3109 
Q 1922 3109 1687 2981 
Q 1453 2853 1288 2613 
Q 1106 2353 998 2009 
Q 891 1666 891 1350 
z
" transform="scale(0.015625)"/>
      </defs>
      <use xlink:href="#DejaVuSans-Oblique-27" transform="translate(0 0.09375)"/>
      <use xlink:href="#DejaVuSans-Oblique-30" transform="translate(77.001953 -14.906201) scale(0.7)"/>
      <use xlink:href="#DejaVuSans-12" transform="translate(140.131836 0.09375)"/>
      <use xlink:href="#DejaVuSans-Oblique-55" transform="translate(173.823242 0.09375)"/>
      <use xlink:href="#DejaVuSans-Oblique-47" transform="translate(214.936523 -14.906201) scale(0.7)"/>
     </g>
    </g>
   </g>
   <g id="line2d_16">
    <path d="M 78.967692 306.06954 
L 98.58797 295.175366 
L 121.478295 282.549396 
L 150.908713 266.843248 
L 196.689362 243.035327 
L 216.309641 233.076036 
L 229.389826 226.495532 
L 255.550197 213.57613 
L 288.250661 197.852691 
L 304.600893 190.23816 
L 311.140986 187.370552 
L 327.491218 179.875347 
L 350.381543 169.704988 
L 353.651589 168.188586 
L 363.461729 163.924487 
L 373.271868 159.538877 
L 389.6221 152.360689 
L 422.322564 138.431255 
L 474.643306 116.879621 
L 484.453446 113.018182 
L 500.803678 106.476142 
L 510.613817 102.65034 
L 533.504142 93.781475 
L 543.314281 90.088544 
L 549.854374 87.677573 
L 559.664513 83.983565 
L 569.474652 80.163311 
L 569.474652 80.163311 
" clip-path="url(#p286c1a8fc5)" style="fill: none; stroke: #1f77b4; stroke-width: 1.5; stroke-linecap: square"/>
   </g>
   <g id="line2d_17">
    <path d="M 78.967692 301.317413 
L 101.858017 288.24555 
L 124.748341 275.428314 
L 147.638666 262.862142 
L 170.528991 250.543203 
L 193.419316 238.467433 
L 216.309641 226.63058 
L 239.199965 215.028234 
L 262.09029 203.655862 
L 284.980615 192.508834 
L 307.87094 181.582454 
L 334.031311 169.359259 
L 360.191682 157.41095 
L 386.352054 145.730411 
L 412.512425 134.310554 
L 438.672796 123.144349 
L 464.833167 112.224841 
L 490.993538 101.545179 
L 517.15391 91.098623 
L 543.314281 80.878561 
L 569.474652 70.878522 
L 569.474652 70.878522 
" clip-path="url(#p286c1a8fc5)" style="fill: none; stroke-dasharray: 5.55,2.4; stroke-dashoffset: 0; stroke: #ff7f0e; stroke-width: 1.5"/>
   </g>
   <g id="line2d_18">
    <path d="M 324.221172 339.477656 
L 324.221172 26.16 
" clip-path="url(#p286c1a8fc5)" style="fill: none; stroke-dasharray: 1,1.65; stroke-dashoffset: 0; stroke: #1f77b4"/>
   </g>
   <g id="patch_3">
    <path d="M 54.442344 339.477656 
L 54.442344 26.16 
" style="fill: none; stroke: #000000; stroke-width: 0.8; stroke-linejoin: miter; stroke-linecap: square"/>
   </g>
   <g id="patch_4">
    <path d="M 594 339.477656 
L 594 26.16 
" style="fill: none; stroke: #000000; stroke-width: 0.8; stroke-linejoin: miter; stroke-linecap: square"/>
   </g>
   <g id="patch_5">
    <path d="M 54.442344 339.477656 
L 594 339.477656 
" style="fill: none; stroke: #000000; stroke-width: 0.8; stroke-linejoin: miter; stroke-linecap: square"/>
   </g>
   <g id="patch_6">
    <path d="M 54.442344 26.16 
L 594 26.16 
" style="fill: none; stroke: #000000; stroke-width: 0.8; stroke-linejoin: miter; stroke-linecap: square"/>
   </g>
   <g id="text_18">
    <!-- Full LRG: kaiser_linear redshift model; pre-reconstruction -->
    <g transform="translate(153.444297 20.16) scale(0.12 -0.12)">
     <defs>
      <path id="DejaVuSans-29" d="M 628 4666 
L 3309 4666 
L 3309 4134 
L 1259 4134 
L 1259 2759 
L 3109 2759 
L 3109 2228 
L 1259 2228 
L 1259 0 
L 628 0 
L 628 4666 
z
" transform="scale(0.015625)"/>
      <path id="DejaVuSans-58" d="M 544 1381 
L 544 3500 
L 1119 3500 
L 1119 1403 
Q 1119 906 1312 657 
Q 1506 409 1894 409 
Q 2359 409 2629 706 
Q 2900 1003 2900 1516 
L 2900 3500 
L 3475 3500 
L 3475 0 
L 2900 0 
L 2900 538 
Q 2691 219 2414 64 
Q 2138 -91 1772 -91 
Q 1169 -91 856 284 
Q 544 659 544 1381 
z
M 1991 3584 
L 1991 3584 
z
" transform="scale(0.015625)"/>
      <path id="DejaVuSans-4f" d="M 603 4863 
L 1178 4863 
L 1178 0 
L 603 0 
L 603 4863 
z
" transform="scale(0.015625)"/>
      <path id="DejaVuSans-2f" d="M 628 4666 
L 1259 4666 
L 1259 531 
L 3531 531 
L 3531 0 
L 628 0 
L 628 4666 
z
" transform="scale(0.015625)"/>
      <path id="DejaVuSans-2a" d="M 3809 666 
L 3809 1919 
L 2778 1919 
L 2778 2438 
L 4434 2438 
L 4434 434 
Q 4069 175 3628 42 
Q 3188 -91 2688 -91 
Q 1594 -91 976 548 
Q 359 1188 359 2328 
Q 359 3472 976 4111 
Q 1594 4750 2688 4750 
Q 3144 4750 3555 4637 
Q 3966 4525 4313 4306 
L 4313 3634 
Q 3963 3931 3569 4081 
Q 3175 4231 2741 4231 
Q 1884 4231 1454 3753 
Q 1025 3275 1025 2328 
Q 1025 1384 1454 906 
Q 1884 428 2741 428 
Q 3075 428 3337 486 
Q 3600 544 3809 666 
z
" transform="scale(0.015625)"/>
      <path id="DejaVuSans-1d" d="M 750 794 
L 1409 794 
L 1409 0 
L 750 0 
L 750 794 
z
M 750 3309 
L 1409 3309 
L 1409 2516 
L 750 2516 
L 750 3309 
z
" transform="scale(0.015625)"/>
      <path id="DejaVuSans-4e" d="M 581 4863 
L 1159 4863 
L 1159 1991 
L 2875 3500 
L 3609 3500 
L 1753 1863 
L 3688 0 
L 2938 0 
L 1159 1709 
L 1159 0 
L 581 0 
L 581 4863 
z
" transform="scale(0.015625)"/>
      <path id="DejaVuSans-44" d="M 2194 1759 
Q 1497 1759 1228 1600 
Q 959 1441 959 1056 
Q 959 750 1161 570 
Q 1363 391 1709 391 
Q 2188 391 2477 730 
Q 2766 1069 2766 1631 
L 2766 1759 
L 2194 1759 
z
M 3341 1997 
L 3341 0 
L 2766 0 
L 2766 531 
Q 2569 213 2275 61 
Q 1981 -91 1556 -91 
Q 1019 -91 701 211 
Q 384 513 384 1019 
Q 384 1609 779 1909 
Q 1175 2209 1959 2209 
L 2766 2209 
L 2766 2266 
Q 2766 2663 2505 2880 
Q 2244 3097 1772 3097 
Q 1472 3097 1187 3025 
Q 903 2953 641 2809 
L 641 3341 
Q 956 3463 1253 3523 
Q 1550 3584 1831 3584 
Q 2591 3584 2966 3190 
Q 3341 2797 3341 1997 
z
" transform="scale(0.015625)"/>
      <path id="DejaVuSans-55" d="M 2631 2963 
Q 2534 3019 2420 3045 
Q 2306 3072 2169 3072 
Q 1681 3072 1420 2755 
Q 1159 2438 1159 1844 
L 1159 0 
L 581 0 
L 581 3500 
L 1159 3500 
L 1159 2956 
Q 1341 3275 1631 3429 
Q 1922 3584 2338 3584 
Q 2397 3584 2469 3576 
Q 2541 3569 2628 3553 
L 2631 2963 
z
" transform="scale(0.015625)"/>
      <path id="DejaVuSans-42" d="M 3263 -1063 
L 3263 -1509 
L -63 -1509 
L -63 -1063 
L 3263 -1063 
z
" transform="scale(0.015625)"/>
      <path id="DejaVuSans-51" d="M 3513 2113 
L 3513 0 
L 2938 0 
L 2938 2094 
Q 2938 2591 2744 2837 
Q 2550 3084 2163 3084 
Q 1697 3084 1428 2787 
Q 1159 2491 1159 1978 
L 1159 0 
L 581 0 
L 581 3500 
L 1159 3500 
L 1159 2956 
Q 1366 3272 1645 3428 
Q 1925 3584 2291 3584 
Q 2894 3584 3203 3211 
Q 3513 2838 3513 2113 
z
" transform="scale(0.015625)"/>
      <path id="DejaVuSans-50" d="M 3328 2828 
Q 3544 3216 3844 3400 
Q 4144 3584 4550 3584 
Q 5097 3584 5394 3201 
Q 5691 2819 5691 2113 
L 5691 0 
L 5113 0 
L 5113 2094 
Q 5113 2597 4934 2840 
Q 4756 3084 4391 3084 
Q 3944 3084 3684 2787 
Q 3425 2491 3425 1978 
L 3425 0 
L 2847 0 
L 2847 2094 
Q 2847 2600 2669 2842 
Q 2491 3084 2119 3084 
Q 1678 3084 1418 2786 
Q 1159 2488 1159 1978 
L 1159 0 
L 581 0 
L 581 3500 
L 1159 3500 
L 1159 2956 
Q 1356 3278 1631 3431 
Q 1906 3584 2284 3584 
Q 2666 3584 2933 3390 
Q 3200 3197 3328 2828 
z
" transform="scale(0.015625)"/>
      <path id="DejaVuSans-52" d="M 1959 3097 
Q 1497 3097 1228 2736 
Q 959 2375 959 1747 
Q 959 1119 1226 758 
Q 1494 397 1959 397 
Q 2419 397 2687 759 
Q 2956 1122 2956 1747 
Q 2956 2369 2687 2733 
Q 2419 3097 1959 3097 
z
M 1959 3584 
Q 2709 3584 3137 3096 
Q 3566 2609 3566 1747 
Q 3566 888 3137 398 
Q 2709 -91 1959 -91 
Q 1206 -91 779 398 
Q 353 888 353 1747 
Q 353 2609 779 3096 
Q 1206 3584 1959 3584 
z
" transform="scale(0.015625)"/>
      <path id="DejaVuSans-1e" d="M 750 3309 
L 1409 3309 
L 1409 2516 
L 750 2516 
L 750 3309 
z
M 750 794 
L 1409 794 
L 1409 256 
L 897 -744 
L 494 -744 
L 750 256 
L 750 794 
z
" transform="scale(0.015625)"/>
      <path id="DejaVuSans-53" d="M 1159 525 
L 1159 -1331 
L 581 -1331 
L 581 3500 
L 1159 3500 
L 1159 2969 
Q 1341 3281 1617 3432 
Q 1894 3584 2278 3584 
Q 2916 3584 3314 3078 
Q 3713 2572 3713 1747 
Q 3713 922 3314 415 
Q 2916 -91 2278 -91 
Q 1894 -91 1617 61 
Q 1341 213 1159 525 
z
M 3116 1747 
Q 3116 2381 2855 2742 
Q 2594 3103 2138 3103 
Q 1681 3103 1420 2742 
Q 1159 2381 1159 1747 
Q 1159 1113 1420 752 
Q 1681 391 2138 391 
Q 2594 391 2855 752 
Q 3116 1113 3116 1747 
z
" transform="scale(0.015625)"/>
      <path id="DejaVuSans-10" d="M 313 2009 
L 1997 2009 
L 1997 1497 
L 313 1497 
L 313 2009 
z
" transform="scale(0.015625)"/>
      <path id="DejaVuSans-46" d="M 3122 3366 
L 3122 2828 
Q 2878 2963 2633 3030 
Q 2388 3097 2138 3097 
Q 1578 3097 1268 2742 
Q 959 2388 959 1747 
Q 959 1106 1268 751 
Q 1578 397 2138 397 
Q 2388 397 2633 464 
Q 2878 531 3122 666 
L 3122 134 
Q 2881 22 2623 -34 
Q 2366 -91 2075 -91 
Q 1284 -91 818 406 
Q 353 903 353 1747 
Q 353 2603 823 3093 
Q 1294 3584 2113 3584 
Q 2378 3584 2631 3529 
Q 2884 3475 3122 3366 
z
" transform="scale(0.015625)"/>
     </defs>
     <use xlink:href="#DejaVuSans-29"/>
     <use xlink:href="#DejaVuSans-58" transform="translate(52.046875 0)"/>
     <use xlink:href="#DejaVuSans-4f" transform="translate(115.421875 0)"/>
     <use xlink:href="#DejaVuSans-4f" transform="translate(143.203125 0)"/>
     <use xlink:href="#DejaVuSans-3" transform="translate(170.984375 0)"/>
     <use xlink:href="#DejaVuSans-2f" transform="translate(202.765625 0)"/>
     <use xlink:href="#DejaVuSans-35" transform="translate(258.484375 0)"/>
     <use xlink:href="#DejaVuSans-2a" transform="translate(327.96875 0)"/>
     <use xlink:href="#DejaVuSans-1d" transform="translate(405.453125 0)"/>
     <use xlink:href="#DejaVuSans-3" transform="translate(439.140625 0)"/>
     <use xlink:href="#DejaVuSans-4e" transform="translate(470.921875 0)"/>
     <use xlink:href="#DejaVuSans-44" transform="translate(527.078125 0)"/>
     <use xlink:href="#DejaVuSans-4c" transform="translate(588.359375 0)"/>
     <use xlink:href="#DejaVuSans-56" transform="translate(616.140625 0)"/>
     <use xlink:href="#DejaVuSans-48" transform="translate(668.234375 0)"/>
     <use xlink:href="#DejaVuSans-55" transform="translate(729.765625 0)"/>
     <use xlink:href="#DejaVuSans-42" transform="translate(770.875 0)"/>
     <use xlink:href="#DejaVuSans-4f" transform="translate(820.875 0)"/>
     <use xlink:href="#DejaVuSans-4c" transform="translate(848.65625 0)"/>
     <use xlink:href="#DejaVuSans-51" transform="translate(876.4375 0)"/>
     <use xlink:href="#DejaVuSans-48" transform="translate(939.8125 0)"/>
     <use xlink:href="#DejaVuSans-44" transform="translate(1001.34375 0)"/>
     <use xlink:href="#DejaVuSans-55" transform="translate(1062.625 0)"/>
     <use xlink:href="#DejaVuSans-3" transform="translate(1103.734375 0)"/>
     <use xlink:href="#DejaVuSans-55" transform="translate(1135.515625 0)"/>
     <use xlink:href="#DejaVuSans-48" transform="translate(1174.421875 0)"/>
     <use xlink:href="#DejaVuSans-47" transform="translate(1235.953125 0)"/>
     <use xlink:href="#DejaVuSans-56" transform="translate(1299.4375 0)"/>
     <use xlink:href="#DejaVuSans-4b" transform="translate(1351.53125 0)"/>
     <use xlink:href="#DejaVuSans-4c" transform="translate(1414.90625 0)"/>
     <use xlink:href="#DejaVuSans-49" transform="translate(1442.6875 0)"/>
     <use xlink:href="#DejaVuSans-57" transform="translate(1476.140625 0)"/>
     <use xlink:href="#DejaVuSans-3" transform="translate(1515.34375 0)"/>
     <use xlink:href="#DejaVuSans-50" transform="translate(1547.125 0)"/>
     <use xlink:href="#DejaVuSans-52" transform="translate(1644.53125 0)"/>
     <use xlink:href="#DejaVuSans-47" transform="translate(1705.71875 0)"/>
     <use xlink:href="#DejaVuSans-48" transform="translate(1769.203125 0)"/>
     <use xlink:href="#DejaVuSans-4f" transform="translate(1830.734375 0)"/>
     <use xlink:href="#DejaVuSans-1e" transform="translate(1858.515625 0)"/>
     <use xlink:href="#DejaVuSans-3" transform="translate(1892.203125 0)"/>
     <use xlink:href="#DejaVuSans-53" transform="translate(1923.984375 0)"/>
     <use xlink:href="#DejaVuSans-55" transform="translate(1987.46875 0)"/>
     <use xlink:href="#DejaVuSans-48" transform="translate(2026.375 0)"/>
     <use xlink:href="#DejaVuSans-10" transform="translate(2087.90625 0)"/>
     <use xlink:href="#DejaVuSans-55" transform="translate(2123.984375 0)"/>
     <use xlink:href="#DejaVuSans-48" transform="translate(2162.890625 0)"/>
     <use xlink:href="#DejaVuSans-46" transform="translate(2224.421875 0)"/>
     <use xlink:href="#DejaVuSans-52" transform="translate(2279.40625 0)"/>
     <use xlink:href="#DejaVuSans-51" transform="translate(2340.59375 0)"/>
     <use xlink:href="#DejaVuSans-56" transform="translate(2403.96875 0)"/>
     <use xlink:href="#DejaVuSans-57" transform="translate(2456.0625 0)"/>
     <use xlink:href="#DejaVuSans-55" transform="translate(2495.265625 0)"/>
     <use xlink:href="#DejaVuSans-58" transform="translate(2536.375 0)"/>
     <use xlink:href="#DejaVuSans-46" transform="translate(2599.75 0)"/>
     <use xlink:href="#DejaVuSans-57" transform="translate(2654.734375 0)"/>
     <use xlink:href="#DejaVuSans-4c" transform="translate(2693.9375 0)"/>
     <use xlink:href="#DejaVuSans-52" transform="translate(2721.71875 0)"/>
     <use xlink:href="#DejaVuSans-51" transform="translate(2782.90625 0)"/>
    </g>
   </g>
   <g id="legend_1">
    <g id="patch_7">
     <path d="M 60.742344 87.362812 
L 215.708281 87.362812 
Q 217.508281 87.362812 217.508281 85.562812 
L 217.508281 32.46 
Q 217.508281 30.66 215.708281 30.66 
L 60.742344 30.66 
Q 58.942344 30.66 58.942344 32.46 
L 58.942344 85.562812 
Q 58.942344 87.362812 60.742344 87.362812 
z
" style="fill: #ffffff; opacity: 0.8; stroke: #cccccc; stroke-linejoin: miter"/>
    </g>
    <g id="patch_8">
     <path d="M 62.542344 41.098594 
L 80.542344 41.098594 
L 80.542344 34.798594 
L 62.542344 34.798594 
z
" style="fill: #1f77b4; fill-opacity: 0.16"/>
    </g>
    <g id="text_19">
     <!-- 95% marginal interval -->
     <g transform="translate(87.742344 41.098594) scale(0.09 -0.09)">
      <defs>
       <path id="DejaVuSans-8" d="M 4653 2053 
Q 4381 2053 4226 1822 
Q 4072 1591 4072 1178 
Q 4072 772 4226 539 
Q 4381 306 4653 306 
Q 4919 306 5073 539 
Q 5228 772 5228 1178 
Q 5228 1588 5073 1820 
Q 4919 2053 4653 2053 
z
M 4653 2450 
Q 5147 2450 5437 2106 
Q 5728 1763 5728 1178 
Q 5728 594 5436 251 
Q 5144 -91 4653 -91 
Q 4153 -91 3862 251 
Q 3572 594 3572 1178 
Q 3572 1766 3864 2108 
Q 4156 2450 4653 2450 
z
M 1428 4353 
Q 1159 4353 1004 4120 
Q 850 3888 850 3481 
Q 850 3069 1003 2837 
Q 1156 2606 1428 2606 
Q 1700 2606 1854 2837 
Q 2009 3069 2009 3481 
Q 2009 3884 1853 4118 
Q 1697 4353 1428 4353 
z
M 4250 4750 
L 4750 4750 
L 1831 -91 
L 1331 -91 
L 4250 4750 
z
M 1428 4750 
Q 1922 4750 2215 4408 
Q 2509 4066 2509 3481 
Q 2509 2891 2217 2550 
Q 1925 2209 1428 2209 
Q 931 2209 642 2551 
Q 353 2894 353 3481 
Q 353 4063 643 4406 
Q 934 4750 1428 4750 
z
" transform="scale(0.015625)"/>
       <path id="DejaVuSans-4a" d="M 2906 1791 
Q 2906 2416 2648 2759 
Q 2391 3103 1925 3103 
Q 1463 3103 1205 2759 
Q 947 2416 947 1791 
Q 947 1169 1205 825 
Q 1463 481 1925 481 
Q 2391 481 2648 825 
Q 2906 1169 2906 1791 
z
M 3481 434 
Q 3481 -459 3084 -895 
Q 2688 -1331 1869 -1331 
Q 1566 -1331 1297 -1286 
Q 1028 -1241 775 -1147 
L 775 -588 
Q 1028 -725 1275 -790 
Q 1522 -856 1778 -856 
Q 2344 -856 2625 -561 
Q 2906 -266 2906 331 
L 2906 616 
Q 2728 306 2450 153 
Q 2172 0 1784 0 
Q 1141 0 747 490 
Q 353 981 353 1791 
Q 353 2603 747 3093 
Q 1141 3584 1784 3584 
Q 2172 3584 2450 3431 
Q 2728 3278 2906 2969 
L 2906 3500 
L 3481 3500 
L 3481 434 
z
" transform="scale(0.015625)"/>
       <path id="DejaVuSans-59" d="M 191 3500 
L 800 3500 
L 1894 563 
L 2988 3500 
L 3597 3500 
L 2284 0 
L 1503 0 
L 191 3500 
z
" transform="scale(0.015625)"/>
      </defs>
      <use xlink:href="#DejaVuSans-1c"/>
      <use xlink:href="#DejaVuSans-18" transform="translate(63.625 0)"/>
      <use xlink:href="#DejaVuSans-8" transform="translate(127.25 0)"/>
      <use xlink:href="#DejaVuSans-3" transform="translate(222.265625 0)"/>
      <use xlink:href="#DejaVuSans-50" transform="translate(254.046875 0)"/>
      <use xlink:href="#DejaVuSans-44" transform="translate(351.453125 0)"/>
      <use xlink:href="#DejaVuSans-55" transform="translate(412.734375 0)"/>
      <use xlink:href="#DejaVuSans-4a" transform="translate(452.09375 0)"/>
      <use xlink:href="#DejaVuSans-4c" transform="translate(515.578125 0)"/>
      <use xlink:href="#DejaVuSans-51" transform="translate(543.359375 0)"/>
      <use xlink:href="#DejaVuSans-44" transform="translate(606.734375 0)"/>
      <use xlink:href="#DejaVuSans-4f" transform="translate(668.015625 0)"/>
      <use xlink:href="#DejaVuSans-3" transform="translate(695.796875 0)"/>
      <use xlink:href="#DejaVuSans-4c" transform="translate(727.578125 0)"/>
      <use xlink:href="#DejaVuSans-51" transform="translate(755.359375 0)"/>
      <use xlink:href="#DejaVuSans-57" transform="translate(818.734375 0)"/>
      <use xlink:href="#DejaVuSans-48" transform="translate(857.9375 0)"/>
      <use xlink:href="#DejaVuSans-55" transform="translate(919.46875 0)"/>
      <use xlink:href="#DejaVuSans-59" transform="translate(960.578125 0)"/>
      <use xlink:href="#DejaVuSans-44" transform="translate(1019.765625 0)"/>
      <use xlink:href="#DejaVuSans-4f" transform="translate(1081.046875 0)"/>
     </g>
    </g>
    <g id="patch_9">
     <path d="M 62.542344 54.599297 
L 80.542344 54.599297 
L 80.542344 48.299297 
L 62.542344 48.299297 
z
" style="fill: #ff7f0e; fill-opacity: 0.32"/>
    </g>
    <g id="text_20">
     <!-- 68% marginal interval -->
     <g transform="translate(87.742344 54.599297) scale(0.09 -0.09)">
      <use xlink:href="#DejaVuSans-19"/>
      <use xlink:href="#DejaVuSans-1b" transform="translate(63.625 0)"/>
      <use xlink:href="#DejaVuSans-8" transform="translate(127.25 0)"/>
      <use xlink:href="#DejaVuSans-3" transform="translate(222.265625 0)"/>
      <use xlink:href="#DejaVuSans-50" transform="translate(254.046875 0)"/>
      <use xlink:href="#DejaVuSans-44" transform="translate(351.453125 0)"/>
      <use xlink:href="#DejaVuSans-55" transform="translate(412.734375 0)"/>
      <use xlink:href="#DejaVuSans-4a" transform="translate(452.09375 0)"/>
      <use xlink:href="#DejaVuSans-4c" transform="translate(515.578125 0)"/>
      <use xlink:href="#DejaVuSans-51" transform="translate(543.359375 0)"/>
      <use xlink:href="#DejaVuSans-44" transform="translate(606.734375 0)"/>
      <use xlink:href="#DejaVuSans-4f" transform="translate(668.015625 0)"/>
      <use xlink:href="#DejaVuSans-3" transform="translate(695.796875 0)"/>
      <use xlink:href="#DejaVuSans-4c" transform="translate(727.578125 0)"/>
      <use xlink:href="#DejaVuSans-51" transform="translate(755.359375 0)"/>
      <use xlink:href="#DejaVuSans-57" transform="translate(818.734375 0)"/>
      <use xlink:href="#DejaVuSans-48" transform="translate(857.9375 0)"/>
      <use xlink:href="#DejaVuSans-55" transform="translate(919.46875 0)"/>
      <use xlink:href="#DejaVuSans-59" transform="translate(960.578125 0)"/>
      <use xlink:href="#DejaVuSans-44" transform="translate(1019.765625 0)"/>
      <use xlink:href="#DejaVuSans-4f" transform="translate(1081.046875 0)"/>
     </g>
    </g>
    <g id="line2d_19">
     <path d="M 62.542344 64.95 
L 71.542344 64.95 
L 80.542344 64.95 
" style="fill: none; stroke: #1f77b4; stroke-width: 1.5; stroke-linecap: square"/>
    </g>
    <g id="text_21">
     <!-- NGC+SGC catalogue fit -->
     <g transform="translate(87.742344 68.1) scale(0.09 -0.09)">
      <defs>
       <path id="DejaVuSans-31" d="M 628 4666 
L 1478 4666 
L 3547 763 
L 3547 4666 
L 4159 4666 
L 4159 0 
L 3309 0 
L 1241 3903 
L 1241 0 
L 628 0 
L 628 4666 
z
" transform="scale(0.015625)"/>
       <path id="DejaVuSans-26" d="M 4122 4306 
L 4122 3641 
Q 3803 3938 3442 4084 
Q 3081 4231 2675 4231 
Q 1875 4231 1450 3742 
Q 1025 3253 1025 2328 
Q 1025 1406 1450 917 
Q 1875 428 2675 428 
Q 3081 428 3442 575 
Q 3803 722 4122 1019 
L 4122 359 
Q 3791 134 3420 21 
Q 3050 -91 2638 -91 
Q 1578 -91 968 557 
Q 359 1206 359 2328 
Q 359 3453 968 4101 
Q 1578 4750 2638 4750 
Q 3056 4750 3426 4639 
Q 3797 4528 4122 4306 
z
" transform="scale(0.015625)"/>
       <path id="DejaVuSans-e" d="M 2944 4013 
L 2944 2272 
L 4684 2272 
L 4684 1741 
L 2944 1741 
L 2944 0 
L 2419 0 
L 2419 1741 
L 678 1741 
L 678 2272 
L 2419 2272 
L 2419 4013 
L 2944 4013 
z
" transform="scale(0.015625)"/>
       <path id="DejaVuSans-36" d="M 3425 4513 
L 3425 3897 
Q 3066 4069 2747 4153 
Q 2428 4238 2131 4238 
Q 1616 4238 1336 4038 
Q 1056 3838 1056 3469 
Q 1056 3159 1242 3001 
Q 1428 2844 1947 2747 
L 2328 2669 
Q 3034 2534 3370 2195 
Q 3706 1856 3706 1288 
Q 3706 609 3251 259 
Q 2797 -91 1919 -91 
Q 1588 -91 1214 -16 
Q 841 59 441 206 
L 441 856 
Q 825 641 1194 531 
Q 1563 422 1919 422 
Q 2459 422 2753 634 
Q 3047 847 3047 1241 
Q 3047 1584 2836 1778 
Q 2625 1972 2144 2069 
L 1759 2144 
Q 1053 2284 737 2584 
Q 422 2884 422 3419 
Q 422 4038 858 4394 
Q 1294 4750 2059 4750 
Q 2388 4750 2728 4690 
Q 3069 4631 3425 4513 
z
" transform="scale(0.015625)"/>
       <path id="DejaVuSans-13af" d="M 3431 3500 
L 3431 0 
L 2853 0 
L 2853 3053 
L 1275 3053 
L 1275 0 
L 697 0 
L 697 3053 
L 147 3053 
L 147 3500 
L 697 3500 
L 697 3744 
Q 697 4316 967 4589 
Q 1238 4863 1797 4863 
L 2375 4863 
L 2375 4384 
L 1825 4384 
Q 1516 4384 1395 4259 
Q 1275 4134 1275 3809 
L 1275 3500 
L 3431 3500 
z
M 2853 4856 
L 3431 4856 
L 3431 4128 
L 2853 4128 
L 2853 4856 
z
" transform="scale(0.015625)"/>
      </defs>
      <use xlink:href="#DejaVuSans-31"/>
      <use xlink:href="#DejaVuSans-2a" transform="translate(74.8125 0)"/>
      <use xlink:href="#DejaVuSans-26" transform="translate(152.296875 0)"/>
      <use xlink:href="#DejaVuSans-e" transform="translate(222.125 0)"/>
      <use xlink:href="#DejaVuSans-36" transform="translate(305.921875 0)"/>
      <use xlink:href="#DejaVuSans-2a" transform="translate(369.40625 0)"/>
      <use xlink:href="#DejaVuSans-26" transform="translate(446.890625 0)"/>
      <use xlink:href="#DejaVuSans-3" transform="translate(516.71875 0)"/>
      <use xlink:href="#DejaVuSans-46" transform="translate(548.5 0)"/>
      <use xlink:href="#DejaVuSans-44" transform="translate(603.484375 0)"/>
      <use xlink:href="#DejaVuSans-57" transform="translate(664.765625 0)"/>
      <use xlink:href="#DejaVuSans-44" transform="translate(703.96875 0)"/>
      <use xlink:href="#DejaVuSans-4f" transform="translate(765.25 0)"/>
      <use xlink:href="#DejaVuSans-52" transform="translate(793.03125 0)"/>
      <use xlink:href="#DejaVuSans-4a" transform="translate(854.21875 0)"/>
      <use xlink:href="#DejaVuSans-58" transform="translate(917.703125 0)"/>
      <use xlink:href="#DejaVuSans-48" transform="translate(981.078125 0)"/>
      <use xlink:href="#DejaVuSans-3" transform="translate(1042.609375 0)"/>
      <use xlink:href="#DejaVuSans-13af" transform="translate(1074.390625 0)"/>
      <use xlink:href="#DejaVuSans-57" transform="translate(1137.375 0)"/>
     </g>
    </g>
    <g id="line2d_20">
     <path d="M 62.542344 78.450703 
L 71.542344 78.450703 
L 80.542344 78.450703 
" style="fill: none; stroke-dasharray: 5.55,2.4; stroke-dashoffset: 0; stroke: #ff7f0e; stroke-width: 1.5"/>
    </g>
    <g id="text_22">
     <!-- Fiducial flat LCDM reference -->
     <g transform="translate(87.742344 81.600703) scale(0.09 -0.09)">
      <defs>
       <path id="DejaVuSans-13b0" d="M 1831 4863 
L 3431 4863 
L 3431 0 
L 2853 0 
L 2853 4384 
L 1825 4384 
Q 1516 4384 1395 4259 
Q 1275 4134 1275 3809 
L 1275 3500 
L 2222 3500 
L 2222 3053 
L 1275 3053 
L 1275 0 
L 697 0 
L 697 3053 
L 147 3053 
L 147 3500 
L 697 3500 
L 697 3744 
Q 697 4328 969 4595 
Q 1241 4863 1831 4863 
z
" transform="scale(0.015625)"/>
       <path id="DejaVuSans-27" d="M 1259 4147 
L 1259 519 
L 2022 519 
Q 2988 519 3436 956 
Q 3884 1394 3884 2338 
Q 3884 3275 3436 3711 
Q 2988 4147 2022 4147 
L 1259 4147 
z
M 628 4666 
L 1925 4666 
Q 3281 4666 3915 4102 
Q 4550 3538 4550 2338 
Q 4550 1131 3912 565 
Q 3275 0 1925 0 
L 628 0 
L 628 4666 
z
" transform="scale(0.015625)"/>
       <path id="DejaVuSans-30" d="M 628 4666 
L 1569 4666 
L 2759 1491 
L 3956 4666 
L 4897 4666 
L 4897 0 
L 4281 0 
L 4281 4097 
L 3078 897 
L 2444 897 
L 1241 4097 
L 1241 0 
L 628 0 
L 628 4666 
z
" transform="scale(0.015625)"/>
      </defs>
      <use xlink:href="#DejaVuSans-29"/>
      <use xlink:href="#DejaVuSans-4c" transform="translate(50.234375 0)"/>
      <use xlink:href="#DejaVuSans-47" transform="translate(78.015625 0)"/>
      <use xlink:href="#DejaVuSans-58" transform="translate(141.5 0)"/>
      <use xlink:href="#DejaVuSans-46" transform="translate(204.875 0)"/>
      <use xlink:href="#DejaVuSans-4c" transform="translate(259.859375 0)"/>
      <use xlink:href="#DejaVuSans-44" transform="translate(287.640625 0)"/>
      <use xlink:href="#DejaVuSans-4f" transform="translate(348.921875 0)"/>
      <use xlink:href="#DejaVuSans-3" transform="translate(376.703125 0)"/>
      <use xlink:href="#DejaVuSans-13b0" transform="translate(408.484375 0)"/>
      <use xlink:href="#DejaVuSans-44" transform="translate(471.46875 0)"/>
      <use xlink:href="#DejaVuSans-57" transform="translate(532.75 0)"/>
      <use xlink:href="#DejaVuSans-3" transform="translate(571.953125 0)"/>
      <use xlink:href="#DejaVuSans-2f" transform="translate(603.734375 0)"/>
      <use xlink:href="#DejaVuSans-26" transform="translate(659.453125 0)"/>
      <use xlink:href="#DejaVuSans-27" transform="translate(729.28125 0)"/>
      <use xlink:href="#DejaVuSans-30" transform="translate(806.28125 0)"/>
      <use xlink:href="#DejaVuSans-3" transform="translate(892.5625 0)"/>
      <use xlink:href="#DejaVuSans-55" transform="translate(924.34375 0)"/>
      <use xlink:href="#DejaVuSans-48" transform="translate(963.25 0)"/>
      <use xlink:href="#DejaVuSans-49" transform="translate(1024.78125 0)"/>
      <use xlink:href="#DejaVuSans-48" transform="translate(1059.984375 0)"/>
      <use xlink:href="#DejaVuSans-55" transform="translate(1121.515625 0)"/>
      <use xlink:href="#DejaVuSans-48" transform="translate(1160.421875 0)"/>
      <use xlink:href="#DejaVuSans-51" transform="translate(1221.953125 0)"/>
      <use xlink:href="#DejaVuSans-46" transform="translate(1285.328125 0)"/>
      <use xlink:href="#DejaVuSans-48" transform="translate(1340.3125 0)"/>
     </g>
    </g>
   </g>
  </g>
 </g>
 <defs>
  <clipPath id="p286c1a8fc5">
   <rect x="54.442344" y="26.16" width="539.557656" height="313.317656"/>
  </clipPath>
 </defs>
</svg>
