<?xml version="1.0" encoding="utf-8" standalone="no"?>
<!DOCTYPE svg PUBLIC "-//W3C//DTD SVG 1.1//EN"
  "http://www.w3.org/Graphics/SVG/1.1/DTD/svg11.dtd">
<svg xmlns:xlink="http://www.w3.org/1999/xlink" width="504pt" height="432pt" viewBox="0 0 504 432" xmlns="http://www.w3.org/2000/svg" version="1.1">
 <metadata>
  <rdf:RDF xmlns:dc="http://purl.org/dc/elements/1.1/" xmlns:cc="http://creativecommons.org/ns#" xmlns:rdf="http://www.w3.org/1999/02/22-rdf-syntax-ns#">
   <cc:Work>
    <dc:type rdf:resource="http://purl.org/dc/dcmitype/StillImage"/>
    <dc:date>2026-09-05T06:28:39.759654</dc:date>
    <dc:format>image/svg+xml</dc:format>
    <dc:creator>
     <cc:Agent>
      <dc:title>Matplotlib v3.11.1, https://matplotlib.org/</dc:title>
     </cc:Agent>
    </dc:creator>
   </cc:Work>
  </rdf:RDF>
 </metadata>
 <defs>
  <style type="text/css">*{stroke-linejoin: round; stroke-linecap: butt}</style>
 </defs>
 <g id="figure_1">
  <g id="patch_1">
   <path d="M 0 432 
L 504 432 
L 504 0 
L 0 0 
z
" style="fill: #ffffff"/>
  </g>
  <g id="axes_1">
   <g id="patch_2">
    <path d="M 53.722344 389.877656 
L 493.2 389.877656 
L 493.2 26.16 
L 53.722344 26.16 
z
" style="fill: #ffffff"/>
   </g>
   <g id="PathCollection_1">
    <defs>
     <path id="m5ec5d56177" d="M 0 3 
C 0.795609 3 1.55874 2.683901 2.12132 2.12132 
C 2.683901 1.55874 3 0.795609 3 0 
C 3 -0.795609 2.683901 -1.55874 2.12132 -2.12132 
C 1.55874 -2.683901 0.795609 -3 0 -3 
C -0.795609 -3 -1.55874 -2.683901 -2.12132 -2.12132 
C -2.683901 -1.55874 -3 -0.795609 -3 0 
C -3 0.795609 -2.683901 1.55874 -2.12132 2.12132 
C -1.55874 2.683901 -0.795609 3 0 3 
z
" style="stroke: #1f77b4"/>
    </defs>
    <g clip-path="url(#p4d5465210d)">
     <use xlink:href="#m5ec5d56177" x="317.088573" y="163.707398" style="fill: #1f77b4; stroke: #1f77b4"/>
    </g>
   </g>
   <g id="PathCollection_2">
    <defs>
     <path id="mc869d3e8a3" d="M -3 3 
L 3 -3 
M -3 -3 
L 3 3 
" style="stroke: #ff7f0e; stroke-width: 1.5"/>
    </defs>
    <g clip-path="url(#p4d5465210d)">
     <use xlink:href="#mc869d3e8a3" x="277.935702" y="189.207767" style="fill: #ff7f0e; stroke: #ff7f0e; stroke-width: 1.5"/>
    </g>
   </g>
   <g id="matplotlib.axis_1">
    <g id="xtick_1">
     <g id="line2d_1">
      <defs>
       <path id="m8cedc2a6ad" d="M 0 0 
L 0 3.5 
" style="stroke: #000000; stroke-width: 0.8"/>
      </defs>
      <g>
       <use xlink:href="#m8cedc2a6ad" x="96.245443" y="389.877656" style="stroke: #000000; stroke-width: 0.8"/>
      </g>
     </g>
     <g id="text_1">
      <!-- 5 -->
      <g transform="translate(93.064193 404.475312) scale(0.1 -0.1)">
       <defs>
        <path id="DejaVuSans-18" d="M 691 4666 
L 3169 4666 
L 3169 4134 
L 1269 4134 
L 1269 2991 
Q 1406 3038 1543 3061 
Q 1681 3084 1819 3084 
Q 2600 3084 3056 2656 
Q 3513 2228 3513 1497 
Q 3513 744 3044 326 
Q 2575 -91 1722 -91 
Q 1428 -91 1123 -41 
Q 819 9 494 109 
L 494 744 
Q 775 591 1075 516 
Q 1375 441 1709 441 
Q 2250 441 2565 725 
Q 2881 1009 2881 1497 
Q 2881 1984 2565 2268 
Q 2250 2553 1709 2553 
Q 1456 2553 1204 2497 
Q 953 2441 691 2322 
L 691 4666 
z
" transform="scale(0.015625)"/>
       </defs>
       <use xlink:href="#DejaVuSans-18"/>
      </g>
     </g>
    </g>
    <g id="xtick_2">
     <g id="line2d_2">
      <g>
       <use xlink:href="#m8cedc2a6ad" x="158.31585" y="389.877656" style="stroke: #000000; stroke-width: 0.8"/>
      </g>
     </g>
     <g id="text_2">
      <!-- 10 -->
      <g transform="translate(151.95335 404.475312) scale(0.1 -0.1)">
       <defs>
        <path id="DejaVuSans-14" d="M 794 531 
L 1825 531 
L 1825 4091 
L 703 3866 
L 703 4441 
L 1819 4666 
L 2450 4666 
L 2450 531 
L 3481 531 
L 3481 0 
L 794 0 
L 794 531 
z
" transform="scale(0.015625)"/>
        <path id="DejaVuSans-13" d="M 2034 4250 
Q 1547 4250 1301 3770 
Q 1056 3291 1056 2328 
Q 1056 1369 1301 889 
Q 1547 409 2034 409 
Q 2525 409 2770 889 
Q 3016 1369 3016 2328 
Q 3016 3291 2770 3770 
Q 2525 4250 2034 4250 
z
M 2034 4750 
Q 2819 4750 3233 4129 
Q 3647 3509 3647 2328 
Q 3647 1150 3233 529 
Q 2819 -91 2034 -91 
Q 1250 -91 836 529 
Q 422 1150 422 2328 
Q 422 3509 836 4129 
Q 1250 4750 2034 4750 
z
" transform="scale(0.015625)"/>
       </defs>
       <use xlink:href="#DejaVuSans-14"/>
       <use xlink:href="#DejaVuSans-13" transform="translate(63.625 0)"/>
      </g>
     </g>
    </g>
    <g id="xtick_3">
     <g id="line2d_3">
      <g>
       <use xlink:href="#m8cedc2a6ad" x="220.386257" y="389.877656" style="stroke: #000000; stroke-width: 0.8"/>
      </g>
     </g>
     <g id="text_3">
      <!-- 15 -->
      <g transform="translate(214.023757 404.475312) scale(0.1 -0.1)">
       <use xlink:href="#DejaVuSans-14"/>
       <use xlink:href="#DejaVuSans-18" transform="translate(63.625 0)"/>
      </g>
     </g>
    </g>
    <g id="xtick_4">
     <g id="line2d_4">
      <g>
       <use xlink:href="#m8cedc2a6ad" x="282.456663" y="389.877656" style="stroke: #000000; stroke-width: 0.8"/>
      </g>
     </g>
     <g id="text_4">
      <!-- 20 -->
      <g transform="translate(276.094163 404.475312) scale(0.1 -0.1)">
       <defs>
        <path id="DejaVuSans-15" d="M 1228 531 
L 3431 531 
L 3431 0 
L 469 0 
L 469 531 
Q 828 903 1448 1529 
Q 2069 2156 2228 2338 
Q 2531 2678 2651 2914 
Q 2772 3150 2772 3378 
Q 2772 3750 2511 3984 
Q 2250 4219 1831 4219 
Q 1534 4219 1204 4116 
Q 875 4013 500 3803 
L 500 4441 
Q 881 4594 1212 4672 
Q 1544 4750 1819 4750 
Q 2544 4750 2975 4387 
Q 3406 4025 3406 3419 
Q 3406 3131 3298 2873 
Q 3191 2616 2906 2266 
Q 2828 2175 2409 1742 
Q 1991 1309 1228 531 
z
" transform="scale(0.015625)"/>
       </defs>
       <use xlink:href="#DejaVuSans-15"/>
       <use xlink:href="#DejaVuSans-13" transform="translate(63.625 0)"/>
      </g>
     </g>
    </g>
    <g id="xtick_5">
     <g id="line2d_5">
      <g>
       <use xlink:href="#m8cedc2a6ad" x="344.52707" y="389.877656" style="stroke: #000000; stroke-width: 0.8"/>
      </g>
     </g>
     <g id="text_5">
      <!-- 25 -->
      <g transform="translate(338.16457 404.475312) scale(0.1 -0.1)">
       <use xlink:href="#DejaVuSans-15"/>
       <use xlink:href="#DejaVuSans-18" transform="translate(63.625 0)"/>
      </g>
     </g>
    </g>
    <g id="xtick_6">
     <g id="line2d_6">
      <g>
       <use xlink:href="#m8cedc2a6ad" x="406.597476" y="389.877656" style="stroke: #000000; stroke-width: 0.8"/>
      </g>
     </g>
     <g id="text_6">
      <!-- 30 -->
      <g transform="translate(400.234976 404.475312) scale(0.1 -0.1)">
       <defs>
        <path id="DejaVuSans-16" d="M 2597 2516 
Q 3050 2419 3304 2112 
Q 3559 1806 3559 1356 
Q 3559 666 3084 287 
Q 2609 -91 1734 -91 
Q 1441 -91 1130 -33 
Q 819 25 488 141 
L 488 750 
Q 750 597 1062 519 
Q 1375 441 1716 441 
Q 2309 441 2620 675 
Q 2931 909 2931 1356 
Q 2931 1769 2642 2001 
Q 2353 2234 1838 2234 
L 1294 2234 
L 1294 2753 
L 1863 2753 
Q 2328 2753 2575 2939 
Q 2822 3125 2822 3475 
Q 2822 3834 2567 4026 
Q 2313 4219 1838 4219 
Q 1578 4219 1281 4162 
Q 984 4106 628 3988 
L 628 4550 
Q 988 4650 1302 4700 
Q 1616 4750 1894 4750 
Q 2613 4750 3031 4423 
Q 3450 4097 3450 3541 
Q 3450 3153 3228 2886 
Q 3006 2619 2597 2516 
z
" transform="scale(0.015625)"/>
       </defs>
       <use xlink:href="#DejaVuSans-16"/>
       <use xlink:href="#DejaVuSans-13" transform="translate(63.625 0)"/>
      </g>
     </g>
    </g>
    <g id="xtick_7">
     <g id="line2d_7">
      <g>
       <use xlink:href="#m8cedc2a6ad" x="468.667883" y="389.877656" style="stroke: #000000; stroke-width: 0.8"/>
      </g>
     </g>
     <g id="text_7">
      <!-- 35 -->
      <g transform="translate(462.305383 404.475312) scale(0.1 -0.1)">
       <use xlink:href="#DejaVuSans-16"/>
       <use xlink:href="#DejaVuSans-18" transform="translate(63.625 0)"/>
      </g>
     </g>
    </g>
    <g id="text_8">
     <!-- $d(D_M/r_d)/dz$ -->
     <g transform="translate(245.761172 418.477656) scale(0.1 -0.1)">
      <defs>
       <path id="DejaVuSans-Oblique-47" d="M 2675 525 
Q 2444 222 2128 65 
Q 1813 -91 1428 -91 
Q 903 -91 598 267 
Q 294 625 294 1247 
Q 294 1766 478 2236 
Q 663 2706 1013 3078 
Q 1244 3325 1534 3454 
Q 1825 3584 2144 3584 
Q 2481 3584 2739 3421 
Q 2997 3259 3138 2956 
L 3513 4863 
L 4091 4863 
L 3144 0 
L 2566 0 
L 2675 525 
z
M 891 1350 
Q 891 897 1095 644 
Q 1300 391 1663 391 
Q 1931 391 2161 520 
Q 2391 650 2566 903 
Q 2750 1166 2856 1509 
Q 2963 1853 2963 2188 
Q 2963 2622 2758 2865 
Q 2553 3109 2194 3109 
Q 1922 3109 1687 2981 
Q 1453 2853 1288 2613 
Q 1106 2353 998 2009 
Q 891 1666 891 1350 
z
" transform="scale(0.015625)"/>
       <path id="DejaVuSans-b" d="M 1984 4856 
Q 1566 4138 1362 3434 
Q 1159 2731 1159 2009 
Q 1159 1288 1364 580 
Q 1569 -128 1984 -844 
L 1484 -844 
Q 1016 -109 783 600 
Q 550 1309 550 2009 
Q 550 2706 781 3412 
Q 1013 4119 1484 4856 
L 1984 4856 
z
" transform="scale(0.015625)"/>
       <path id="DejaVuSans-Oblique-27" d="M 1081 4666 
L 2438 4666 
Q 3519 4666 4070 4208 
Q 4622 3750 4622 2847 
Q 4622 2250 4412 1698 
Q 4203 1147 3834 769 
Q 3463 381 2891 190 
Q 2319 0 1538 0 
L 172 0 
L 1081 4666 
z
M 1613 4147 
L 909 519 
L 1734 519 
Q 2794 519 3375 1128 
Q 3956 1738 3956 2847 
Q 3956 3519 3581 3833 
Q 3206 4147 2406 4147 
L 1613 4147 
z
" transform="scale(0.015625)"/>
       <path id="DejaVuSans-Oblique-30" d="M 1081 4666 
L 2028 4666 
L 2572 1522 
L 4378 4666 
L 5350 4666 
L 4441 0 
L 3828 0 
L 4622 4091 
L 2791 897 
L 2175 897 
L 1581 4103 
L 788 0 
L 172 0 
L 1081 4666 
z
" transform="scale(0.015625)"/>
       <path id="DejaVuSans-12" d="M 1625 4666 
L 2156 4666 
L 531 -594 
L 0 -594 
L 1625 4666 
z
" transform="scale(0.015625)"/>
       <path id="DejaVuSans-Oblique-55" d="M 2853 2969 
Q 2766 3016 2653 3041 
Q 2541 3066 2413 3066 
Q 1953 3066 1609 2717 
Q 1266 2369 1153 1784 
L 800 0 
L 225 0 
L 909 3500 
L 1484 3500 
L 1375 2956 
Q 1603 3259 1920 3421 
Q 2238 3584 2597 3584 
Q 2691 3584 2781 3573 
Q 2872 3563 2963 3538 
L 2853 2969 
z
" transform="scale(0.015625)"/>
       <path id="DejaVuSans-c" d="M 513 4856 
L 1013 4856 
Q 1481 4119 1714 3412 
Q 1947 2706 1947 2009 
Q 1947 1309 1714 600 
Q 1481 -109 1013 -844 
L 513 -844 
Q 928 -128 1133 580 
Q 1338 1288 1338 2009 
Q 1338 2731 1133 3434 
Q 928 4138 513 4856 
z
" transform="scale(0.015625)"/>
       <path id="DejaVuSans-Oblique-5d" d="M 744 3500 
L 3475 3500 
L 3372 2975 
L 738 459 
L 2913 459 
L 2822 0 
L -19 0 
L 84 525 
L 2719 3041 
L 653 3041 
L 744 3500 
z
" transform="scale(0.015625)"/>
      </defs>
      <use xlink:href="#DejaVuSans-Oblique-47" transform="translate(0 0.015625)"/>
      <use xlink:href="#DejaVuSans-b" transform="translate(63.476562 0.015625)"/>
      <use xlink:href="#DejaVuSans-Oblique-27" transform="translate(102.490234 0.015625)"/>
      <use xlink:href="#DejaVuSans-Oblique-30" transform="translate(179.492188 -14.984326) scale(0.7)"/>
      <use xlink:href="#DejaVuSans-12" transform="translate(242.62207 0.015625)"/>
      <use xlink:href="#DejaVuSans-Oblique-55" transform="translate(276.313477 0.015625)"/>
      <use xlink:href="#DejaVuSans-Oblique-47" transform="translate(317.426758 -14.984326) scale(0.7)"/>
      <use xlink:href="#DejaVuSans-c" transform="translate(364.594727 0.015625)"/>
      <use xlink:href="#DejaVuSans-12" transform="translate(403.608398 0.015625)"/>
      <use xlink:href="#DejaVuSans-Oblique-47" transform="translate(437.299805 0.015625)"/>
      <use xlink:href="#DejaVuSans-Oblique-5d" transform="translate(500.776367 0.015625)"/>
     </g>
    </g>
   </g>
   <g id="matplotlib.axis_2">
    <g id="ytick_1">
     <g id="line2d_8">
      <defs>
       <path id="m631b61a2ed" d="M 0 0 
L -3.5 0 
" style="stroke: #000000; stroke-width: 0.8"/>
      </defs>
      <g>
       <use xlink:href="#m631b61a2ed" x="53.722344" y="333.43777" style="stroke: #000000; stroke-width: 0.8"/>
      </g>
     </g>
     <g id="text_9">
      <!-- −30 -->
      <g transform="translate(25.617656 337.236598) scale(0.1 -0.1)">
       <defs>
        <path id="DejaVuSans-c9c" d="M 678 2272 
L 4684 2272 
L 4684 1741 
L 678 1741 
L 678 2272 
z
" transform="scale(0.015625)"/>
       </defs>
       <use xlink:href="#DejaVuSans-c9c"/>
       <use xlink:href="#DejaVuSans-16" transform="translate(83.796875 0)"/>
       <use xlink:href="#DejaVuSans-13" transform="translate(147.421875 0)"/>
      </g>
     </g>
    </g>
    <g id="ytick_2">
     <g id="line2d_9">
      <g>
       <use xlink:href="#m631b61a2ed" x="53.722344" y="253.410024" style="stroke: #000000; stroke-width: 0.8"/>
      </g>
     </g>
     <g id="text_10">
      <!-- −20 -->
      <g transform="translate(25.617656 257.208852) scale(0.1 -0.1)">
       <use xlink:href="#DejaVuSans-c9c"/>
       <use xlink:href="#DejaVuSans-15" transform="translate(83.796875 0)"/>
       <use xlink:href="#DejaVuSans-13" transform="translate(147.421875 0)"/>
      </g>
     </g>
    </g>
    <g id="ytick_3">
     <g id="line2d_10">
      <g>
       <use xlink:href="#m631b61a2ed" x="53.722344" y="173.382277" style="stroke: #000000; stroke-width: 0.8"/>
      </g>
     </g>
     <g id="text_11">
      <!-- −10 -->
      <g transform="translate(25.617656 177.181105) scale(0.1 -0.1)">
       <use xlink:href="#DejaVuSans-c9c"/>
       <use xlink:href="#DejaVuSans-14" transform="translate(83.796875 0)"/>
       <use xlink:href="#DejaVuSans-13" transform="translate(147.421875 0)"/>
      </g>
     </g>
    </g>
    <g id="ytick_4">
     <g id="line2d_11">
      <g>
       <use xlink:href="#m631b61a2ed" x="53.722344" y="93.354531" style="stroke: #000000; stroke-width: 0.8"/>
      </g>
     </g>
     <g id="text_12">
      <!-- 0 -->
      <g transform="translate(40.359844 97.153359) scale(0.1 -0.1)">
       <use xlink:href="#DejaVuSans-13"/>
      </g>
     </g>
    </g>
    <g id="text_13">
     <!-- $d(D_H/r_d)/dz$ -->
     <g transform="translate(19.215313 235.318828) rotate(-90) scale(0.1 -0.1)">
      <defs>
       <path id="DejaVuSans-Oblique-2b" d="M 1081 4666 
L 1716 4666 
L 1344 2753 
L 3634 2753 
L 4006 4666 
L 4641 4666 
L 3731 0 
L 3097 0 
L 3531 2222 
L 1241 2222 
L 806 0 
L 172 0 
L 1081 4666 
z
" transform="scale(0.015625)"/>
      </defs>
      <use xlink:href="#DejaVuSans-Oblique-47" transform="translate(0 0.015625)"/>
      <use xlink:href="#DejaVuSans-b" transform="translate(63.476562 0.015625)"/>
      <use xlink:href="#DejaVuSans-Oblique-27" transform="translate(102.490234 0.015625)"/>
      <use xlink:href="#DejaVuSans-Oblique-2b" transform="translate(179.492188 -14.984326) scale(0.7)"/>
      <use xlink:href="#DejaVuSans-12" transform="translate(234.863281 0.015625)"/>
      <use xlink:href="#DejaVuSans-Oblique-55" transform="translate(268.554688 0.015625)"/>
      <use xlink:href="#DejaVuSans-Oblique-47" transform="translate(309.667969 -14.984326) scale(0.7)"/>
      <use xlink:href="#DejaVuSans-c" transform="translate(356.835938 0.015625)"/>
      <use xlink:href="#DejaVuSans-12" transform="translate(395.849609 0.015625)"/>
      <use xlink:href="#DejaVuSans-Oblique-47" transform="translate(429.541016 0.015625)"/>
      <use xlink:href="#DejaVuSans-Oblique-5d" transform="translate(493.017578 0.015625)"/>
     </g>
    </g>
   </g>
   <g id="QuadContourSet_1">
    <path d="M 53.722344 46.825776 
L 57.05172 42.692621 
L 53.722344 38.559466 
M 130.297996 26.16 
L 123.639244 28.521803 
L 113.651115 29.466524 
L 103.662987 31.670874 
L 100.33361 34.42631 
L 93.674858 37.732835 
L 86.183762 42.692621 
L 83.686729 50.958931 
L 93.674858 56.469805 
L 97.670109 59.225241 
L 93.674858 63.358397 
L 83.686729 67.491552 
L 93.674858 75.757862 
L 103.662987 67.491552 
L 103.662987 67.491552 
L 103.662987 67.491552 
L 113.651115 73.002425 
L 116.148147 75.757862 
L 123.639244 81.957595 
L 133.627372 82.843271 
L 138.621436 84.024173 
L 135.624998 92.290483 
L 133.627372 96.423638 
L 123.639244 92.290483 
L 113.651115 100.556793 
L 123.639244 108.823104 
L 133.627372 104.689949 
L 143.615501 103.31223 
L 153.603629 100.556793 
L 153.603629 100.556793 
L 153.603629 100.556793 
L 153.603629 100.556793 
L 150.274253 108.823104 
L 153.603629 117.089414 
L 163.591758 108.823104 
L 163.591758 108.823104 
L 163.591758 108.823104 
L 170.25051 117.089414 
L 163.591758 119.451217 
L 153.603629 117.089414 
L 150.274253 125.355724 
L 148.609565 133.622035 
L 153.603629 141.888345 
L 163.591758 133.622035 
L 163.591758 133.622035 
L 173.579886 125.355724 
L 173.579886 125.355724 
L 173.579886 125.355724 
L 183.568015 130.866598 
L 193.556143 133.622035 
L 193.556143 133.622035 
L 193.556143 133.622035 
L 183.568015 137.75519 
L 173.579886 133.622035 
L 166.921134 141.888345 
L 163.591758 150.154656 
L 163.591758 150.154656 
L 163.591758 150.154656 
L 153.603629 141.888345 
L 150.274253 150.154656 
L 153.603629 154.287811 
L 156.933005 158.420966 
L 163.591758 163.931839 
L 173.579886 166.687276 
L 180.238639 158.420966 
L 178.573951 150.154656 
L 183.568015 144.643782 
L 193.556143 146.0215 
L 195.553769 150.154656 
L 203.544272 156.767704 
L 205.20896 158.420966 
L 203.544272 161.176403 
L 193.556143 166.687276 
L 193.556143 174.953587 
L 193.556143 174.953587 
L 193.556143 174.953587 
L 183.568015 168.064995 
L 173.579886 174.953587 
L 173.579886 174.953587 
L 168.585822 183.219897 
L 163.591758 191.486207 
L 166.08879 199.752518 
L 163.591758 208.018828 
L 163.591758 216.285138 
L 163.591758 216.285138 
L 155.268317 224.551449 
L 160.262382 232.817759 
L 163.591758 241.08407 
L 173.579886 238.328633 
L 174.689678 241.08407 
L 180.238639 249.35038 
L 175.577512 257.61669 
L 173.579886 260.372127 
L 170.25051 257.61669 
L 163.591758 249.35038 
L 163.591758 249.35038 
L 153.603629 241.08407 
L 143.615501 245.217225 
L 140.286125 249.35038 
L 143.615501 252.105817 
L 153.603629 257.61669 
L 153.603629 257.61669 
L 163.591758 263.127564 
L 166.921134 265.883001 
L 173.579886 274.149311 
L 183.568015 274.149311 
L 193.556143 274.149311 
L 203.544272 274.149311 
L 203.544272 274.149311 
L 203.544272 274.149311 
L 193.556143 274.149311 
L 183.568015 274.149311 
L 173.579886 274.149311 
L 166.921134 282.415621 
L 173.579886 287.926495 
L 183.568015 290.681932 
L 183.568015 290.681932 
L 185.565641 298.948242 
L 193.556143 304.459116 
L 203.544272 304.459116 
L 206.041304 307.214553 
L 203.544272 309.28113 
L 193.556143 311.347708 
L 183.568015 315.480863 
L 183.568015 315.480863 
L 180.238639 323.747173 
L 183.568015 332.013484 
L 188.562079 323.747173 
L 193.556143 320.991737 
L 203.544272 321.680596 
L 206.873648 323.747173 
L 208.538336 332.013484 
L 213.532401 334.76892 
L 223.520529 334.76892 
L 233.508658 340.279794 
L 243.496786 338.213216 
L 245.993818 340.279794 
L 253.484915 348.546104 
L 263.473043 348.546104 
L 263.473043 348.546104 
L 273.461172 354.745837 
L 275.458798 356.812415 
L 283.4493 363.425463 
L 288.443365 365.078725 
L 293.437429 373.345036 
L 303.425558 370.038511 
L 313.413686 365.078725 
L 313.413686 365.078725 
L 323.401815 365.078725 
L 333.389943 363.897824 
L 338.384007 365.078725 
L 333.389943 373.345036 
L 343.378072 377.478191 
L 348.372136 373.345036 
L 353.3662 365.078725 
L 348.372136 356.812415 
L 353.3662 354.056978 
L 363.354329 356.812415 
L 373.342457 356.812415 
L 373.342457 356.812415 
L 383.330586 365.078725 
L 383.330586 365.078725 
L 388.32465 373.345036 
L 393.318714 381.611346 
L 403.306843 381.611346 
L 406.636219 373.345036 
L 413.294972 370.589599 
L 423.2831 373.345036 
L 423.2831 373.345036 
L 433.271229 376.100472 
L 438.265293 373.345036 
L 443.259357 370.589599 
L 453.247486 365.078725 
L 453.247486 365.078725 
L 453.247486 365.078725 
L 463.235614 369.21188 
L 466.564991 365.078725 
L 463.235614 362.323288 
L 461.419591 356.812415 
L 463.235614 354.450612 
L 473.223743 348.546104 
L 473.223743 348.546104 
L 479.21662 340.279794 
L 479.21662 332.013484 
L 473.223743 323.747173 
L 473.223743 323.747173 
L 473.223743 323.747173 
L 478.217807 315.480863 
L 478.217807 307.214553 
L 473.223743 298.948242 
L 473.223743 298.948242 
L 463.235614 291.715221 
L 459.906238 290.681932 
L 461.237989 282.415621 
L 463.235614 281.23472 
L 468.229679 282.415621 
L 473.223743 286.548777 
L 483.211871 286.548777 
L 486.541248 282.415621 
L 483.211871 279.660185 
L 473.223743 279.660185 
L 470.726711 274.149311 
L 473.223743 268.638437 
L 476.553119 265.883001 
L 473.223743 263.127564 
L 468.229679 265.883001 
L 463.235614 267.063902 
L 460.738582 265.883001 
L 463.235614 257.61669 
L 453.247486 249.35038 
L 453.247486 249.35038 
L 453.247486 249.35038 
L 463.235614 241.08407 
L 463.235614 241.08407 
L 469.894367 232.817759 
L 463.235614 228.684604 
L 458.24155 224.551449 
L 463.235614 220.418294 
L 468.229679 216.285138 
L 463.235614 208.018828 
L 463.235614 208.018828 
L 463.235614 208.018828 
L 469.228491 199.752518 
L 463.235614 193.552785 
L 453.247486 199.752518 
L 453.247486 199.752518 
L 453.247486 199.752518 
L 443.259357 191.486207 
L 443.259357 191.486207 
L 436.600605 183.219897 
L 443.259357 179.913373 
L 453.247486 174.953587 
L 453.247486 174.953587 
L 458.24155 166.687276 
L 453.247486 163.931839 
L 448.253422 166.687276 
L 443.259357 168.753854 
L 441.832482 166.687276 
L 436.600605 158.420966 
L 443.259357 156.059163 
L 450.393735 150.154656 
L 453.247486 141.888345 
L 453.247486 133.622035 
L 450.750454 125.355724 
L 448.253422 117.089414 
L 453.247486 108.823104 
L 451.582798 100.556793 
L 453.247486 96.423638 
L 463.235614 96.423638 
L 468.229679 92.290483 
L 463.235614 86.779609 
L 458.24155 84.024173 
L 453.247486 75.757862 
L 443.259357 84.024173 
L 443.259357 84.024173 
L 443.259357 84.024173 
L 443.259357 75.757862 
L 443.259357 75.757862 
L 449.91811 67.491552 
L 443.259357 59.225241 
L 443.259357 59.225241 
L 443.259357 50.958931 
L 433.271229 44.070339 
L 423.2831 43.873522 
L 421.285474 42.692621 
L 423.2831 39.937184 
L 433.271229 38.559466 
L 436.600605 34.42631 
L 433.271229 31.670874 
L 423.2831 30.293155 
L 413.294972 29.466524 
L 403.306843 28.915437 
L 393.318714 29.466524 
L 386.659962 26.16 
M 158.597694 26.16 
L 153.603629 27.813262 
L 150.274253 26.16 
M 200.214896 26.16 
L 193.556143 27.132507 
L 183.568015 27.813262 
L 173.579886 26.986631 
L 168.585822 26.16 
M 236.00569 26.16 
L 233.508658 27.813262 
L 223.520529 30.293155 
L 213.532401 26.16 
L 213.532401 26.16 
M 263.473043 26.16 
L 263.473043 26.16 
L 263.473043 26.16 
z
M 283.4493 26.16 
L 283.4493 26.16 
L 283.4493 26.16 
z
M 380.00121 26.16 
L 373.342457 27.996958 
L 363.354329 26.16 
L 353.3662 26.676644 
L 343.378072 26.16 
L 333.389943 26.87881 
L 323.401815 26.16 
L 313.413686 26.16 
L 303.425558 27.43174 
L 296.766805 26.16 
M 433.271229 365.078725 
L 433.271229 365.078725 
L 433.271229 365.078725 
L 433.271229 365.078725 
L 433.271229 365.078725 
z
M 253.484915 363.701007 
L 261.808355 356.812415 
L 253.484915 348.546104 
L 246.350537 356.812415 
L 253.484915 363.701007 
z
M 293.437429 360.94557 
L 291.439803 356.812415 
L 283.4493 348.546104 
L 283.4493 348.546104 
L 283.4493 348.546104 
L 293.437429 348.546104 
L 293.437429 348.546104 
L 303.425558 356.812415 
L 303.425558 356.812415 
L 303.425558 356.812415 
L 293.437429 360.94557 
z
M 413.294972 356.812415 
L 413.294972 356.812415 
L 413.294972 356.812415 
L 413.294972 356.812415 
L 413.294972 356.812415 
z
M 203.544272 352.67926 
L 206.873648 348.546104 
L 203.544272 340.279794 
L 200.214896 348.546104 
L 203.544272 352.67926 
z
M 313.413686 350.612682 
L 311.41606 348.546104 
L 313.413686 340.279794 
L 313.413686 340.279794 
L 313.413686 340.279794 
L 323.401815 348.546104 
L 333.389943 345.790668 
L 336.719319 348.546104 
L 333.389943 350.612682 
L 323.401815 348.546104 
L 313.413686 350.612682 
z
M 453.247486 348.546104 
L 453.247486 348.546104 
L 453.247486 348.546104 
L 453.247486 348.546104 
L 453.247486 348.546104 
z
M 273.461172 340.279794 
L 273.461172 340.279794 
L 268.467108 332.013484 
L 263.473043 323.747173 
L 263.473043 323.747173 
L 263.473043 323.747173 
L 273.461172 320.991737 
L 283.4493 323.747173 
L 283.4493 323.747173 
L 283.4493 323.747173 
L 280.119924 332.013484 
L 273.461172 340.279794 
L 273.461172 340.279794 
z
M 373.342457 340.279794 
L 373.342457 340.279794 
L 373.342457 340.279794 
L 373.342457 340.279794 
L 373.342457 340.279794 
z
M 173.579886 336.146639 
L 183.568015 332.013484 
L 173.579886 329.258047 
L 170.25051 332.013484 
L 173.579886 336.146639 
z
M 143.615501 326.50261 
L 146.944877 323.747173 
L 143.615501 320.991737 
L 140.286125 323.747173 
L 143.615501 326.50261 
z
M 223.520529 327.880328 
L 220.191153 323.747173 
L 223.520529 319.614018 
L 228.514593 323.747173 
L 223.520529 327.880328 
z
M 243.496786 323.747173 
L 243.496786 323.747173 
L 243.496786 323.747173 
L 243.496786 323.747173 
L 243.496786 323.747173 
z
M 153.603629 319.614018 
L 163.591758 315.480863 
L 153.603629 311.347708 
L 148.609565 315.480863 
L 153.603629 319.614018 
z
M 173.579886 318.2363 
L 183.568015 315.480863 
L 173.579886 311.347708 
L 163.591758 315.480863 
L 173.579886 318.2363 
z
M 233.508658 315.480863 
L 233.508658 315.480863 
L 233.508658 315.480863 
L 233.508658 315.480863 
L 233.508658 315.480863 
z
M 313.413686 315.480863 
L 313.413686 315.480863 
L 313.413686 315.480863 
L 313.413686 315.480863 
L 313.413686 315.480863 
z
M 323.401815 307.214553 
L 323.401815 307.214553 
L 323.401815 307.214553 
L 323.401815 307.214553 
L 323.401815 307.214553 
z
M 173.579886 304.459116 
L 180.238639 298.948242 
L 173.579886 293.437369 
L 163.591758 298.948242 
L 173.579886 304.459116 
z
M 203.544272 290.681932 
L 203.544272 290.681932 
L 203.544272 290.681932 
L 203.544272 290.681932 
L 203.544272 290.681932 
z
M 103.662987 285.171058 
L 108.657051 282.415621 
L 103.662987 279.660185 
L 100.33361 282.415621 
L 103.662987 285.171058 
z
M 143.615501 286.548777 
L 148.609565 282.415621 
L 143.615501 274.149311 
L 140.286125 282.415621 
L 143.615501 286.548777 
z
M 223.520529 276.904748 
L 221.023497 274.149311 
L 223.520529 272.771593 
L 226.017561 274.149311 
L 223.520529 276.904748 
M 243.496786 274.149311 
L 243.496786 274.149311 
L 243.496786 274.149311 
L 243.496786 274.149311 
L 243.496786 274.149311 
z
M 213.532401 265.883001 
L 213.532401 265.883001 
L 213.532401 265.883001 
L 213.532401 265.883001 
L 213.532401 265.883001 
z
M 223.520529 249.35038 
L 223.520529 249.35038 
L 223.520529 249.35038 
L 223.520529 249.35038 
L 223.520529 249.35038 
z
M 133.627372 245.217225 
L 140.286125 241.08407 
L 143.615501 239.017492 
L 149.608378 232.817759 
L 143.615501 227.857973 
L 133.627372 232.817759 
L 133.627372 232.817759 
L 123.639244 241.08407 
L 133.627372 245.217225 
z
M 243.496786 243.839506 
L 240.16741 241.08407 
L 243.496786 239.903168 
L 245.161474 241.08407 
L 243.496786 243.839506 
z
M 323.401815 241.08407 
L 323.401815 241.08407 
L 323.401815 241.08407 
L 323.401815 241.08407 
L 323.401815 241.08407 
z
M 193.556143 232.817759 
L 193.556143 232.817759 
L 193.556143 232.817759 
L 193.556143 232.817759 
L 193.556143 232.817759 
z
M 433.271229 232.817759 
L 433.271229 232.817759 
L 430.417478 224.551449 
L 433.271229 216.285138 
L 433.271229 216.285138 
L 433.271229 216.285138 
L 443.259357 224.551449 
L 443.259357 224.551449 
L 443.259357 224.551449 
L 433.271229 232.817759 
L 433.271229 232.817759 
z
M 453.247486 232.817759 
L 453.247486 232.817759 
L 453.247486 232.817759 
L 453.247486 232.817759 
L 453.247486 232.817759 
z
M 123.639244 232.817759 
L 133.627372 224.551449 
L 123.639244 221.796012 
L 120.309867 224.551449 
L 123.639244 232.817759 
z
M 183.568015 224.551449 
L 183.568015 224.551449 
L 183.568015 224.551449 
L 183.568015 224.551449 
L 183.568015 224.551449 
z
M 223.520529 227.306886 
L 221.522903 224.551449 
L 223.520529 221.796012 
L 225.518155 224.551449 
L 223.520529 227.306886 
M 253.484915 224.551449 
L 253.484915 224.551449 
L 253.484915 224.551449 
L 253.484915 224.551449 
L 253.484915 224.551449 
z
M 133.627372 224.551449 
L 143.615501 219.040575 
L 153.603629 216.285138 
L 153.603629 208.018828 
L 153.603629 208.018828 
L 158.597694 199.752518 
L 153.603629 195.619363 
L 143.615501 199.752518 
L 143.615501 199.752518 
L 133.627372 208.018828 
L 133.627372 208.018828 
L 130.297996 216.285138 
L 133.627372 224.551449 
z
M 213.532401 217.938401 
L 208.538336 216.285138 
L 210.203024 208.018828 
L 213.532401 205.263391 
L 216.861777 208.018828 
L 216.861777 216.285138 
L 213.532401 217.938401 
M 243.496786 216.285138 
L 243.496786 216.285138 
L 238.502722 208.018828 
L 243.496786 199.752518 
L 243.496786 199.752518 
L 243.496786 199.752518 
L 248.49085 208.018828 
L 243.496786 216.285138 
L 243.496786 216.285138 
z
M 193.556143 208.018828 
L 193.556143 208.018828 
L 193.556143 208.018828 
L 193.556143 208.018828 
L 193.556143 208.018828 
z
M 183.568015 195.619363 
L 178.573951 191.486207 
L 183.568015 183.219897 
L 183.568015 183.219897 
L 183.568015 183.219897 
L 193.556143 191.486207 
L 203.544272 188.730771 
L 205.20896 191.486207 
L 203.544272 193.552785 
L 193.556143 191.486207 
L 183.568015 195.619363 
z
M 103.662987 187.353052 
L 106.992363 183.219897 
L 103.662987 180.46446 
L 100.33361 183.219897 
L 103.662987 187.353052 
z
M 153.603629 187.353052 
L 158.597694 183.219897 
L 153.603629 179.086742 
L 148.609565 183.219897 
L 153.603629 187.353052 
z
M 423.2831 186.526421 
L 419.953724 183.219897 
L 423.2831 174.953587 
L 423.2831 174.953587 
L 423.2831 174.953587 
L 429.941853 183.219897 
L 423.2831 186.526421 
z
M 213.532401 174.953587 
L 213.532401 174.953587 
L 210.203024 166.687276 
L 213.532401 165.309558 
L 223.520529 166.687276 
L 223.520529 166.687276 
L 223.520529 166.687276 
L 213.532401 174.953587 
L 213.532401 174.953587 
z
M 413.294972 166.687276 
L 413.294972 166.687276 
L 413.294972 166.687276 
L 413.294972 166.687276 
L 413.294972 166.687276 
z
M 143.615501 166.687276 
L 148.609565 158.420966 
L 143.615501 155.665529 
L 133.627372 158.420966 
L 143.615501 166.687276 
z
M 423.2831 160.074228 
L 420.786068 158.420966 
L 423.2831 150.154656 
L 423.2831 150.154656 
L 423.2831 150.154656 
L 428.277164 158.420966 
L 423.2831 160.074228 
M 93.674858 155.665529 
L 103.662987 150.154656 
L 93.674858 144.643782 
L 88.680794 150.154656 
L 93.674858 155.665529 
z
M 113.651115 158.420966 
L 123.639244 150.154656 
L 123.639244 150.154656 
L 126.96862 141.888345 
L 123.639244 137.75519 
L 118.645179 141.888345 
L 113.651115 144.643782 
L 103.662987 150.154656 
L 113.651115 158.420966 
z
M 133.627372 158.420966 
L 136.956748 150.154656 
L 133.627372 147.399219 
L 123.639244 150.154656 
L 133.627372 158.420966 
z
M 473.223743 158.420966 
L 483.211871 152.910092 
L 486.541248 150.154656 
L 483.211871 147.399219 
L 473.223743 141.888345 
L 463.235614 150.154656 
L 473.223743 158.420966 
z
M 203.544272 143.541607 
L 198.550208 141.888345 
L 203.544272 137.75519 
L 206.041304 141.888345 
L 203.544272 143.541607 
M 413.294972 133.622035 
L 413.294972 133.622035 
L 413.294972 133.622035 
L 413.294972 133.622035 
L 413.294972 133.622035 
z
M 423.2831 125.355724 
L 423.2831 125.355724 
L 423.2831 125.355724 
L 423.2831 125.355724 
L 423.2831 125.355724 
z
M 123.639244 119.844851 
L 133.627372 117.089414 
L 123.639244 108.823104 
L 113.651115 117.089414 
L 123.639244 119.844851 
z
M 183.568015 121.222569 
L 176.909263 117.089414 
L 183.568015 115.586449 
L 188.562079 117.089414 
L 183.568015 121.222569 
z
M 433.271229 108.823104 
L 433.271229 108.823104 
L 433.271229 108.823104 
L 433.271229 108.823104 
L 433.271229 108.823104 
z
M 173.579886 100.556793 
L 173.579886 100.556793 
L 173.579886 100.556793 
L 173.579886 100.556793 
L 173.579886 100.556793 
z
M 193.556143 100.556793 
L 193.556143 100.556793 
L 193.556143 92.290483 
L 193.556143 92.290483 
L 193.556143 92.290483 
L 193.556143 100.556793 
L 193.556143 100.556793 
z
M 93.674858 95.04592 
L 97.004234 92.290483 
L 103.662987 84.024173 
L 93.674858 75.757862 
L 87.016106 84.024173 
L 88.680794 92.290483 
L 93.674858 95.04592 
z
M 153.603629 86.779609 
L 148.609565 84.024173 
L 148.609565 75.757862 
L 153.603629 67.491552 
L 153.603629 67.491552 
L 153.603629 67.491552 
L 156.933005 75.757862 
L 156.933005 84.024173 
L 153.603629 86.779609 
M 73.698601 79.891017 
L 83.686729 75.757862 
L 73.698601 67.491552 
L 68.704537 75.757862 
L 73.698601 79.891017 
z
M 123.639244 67.491552 
L 123.639244 67.491552 
L 123.639244 59.225241 
L 123.639244 59.225241 
L 123.639244 59.225241 
L 123.639244 67.491552 
L 123.639244 67.491552 
z
M 143.615501 59.225241 
L 143.615501 59.225241 
L 143.615501 59.225241 
L 143.615501 59.225241 
L 143.615501 59.225241 
z
M 173.579886 59.225241 
L 173.579886 59.225241 
L 173.579886 59.225241 
L 173.579886 59.225241 
L 173.579886 59.225241 
z
M 123.639244 44.345883 
L 121.641618 42.692621 
L 123.639244 41.314902 
L 125.636869 42.692621 
L 123.639244 44.345883 
M 243.496786 35.06218 
L 241.499161 34.42631 
L 243.496786 32.359733 
L 245.494412 34.42631 
L 243.496786 35.06218 
" clip-path="url(#p4d5465210d)" style="fill: none; stroke: #440154; stroke-width: 1.5"/>
    <path d="M 247.492038 26.16 
L 253.484915 32.359733 
L 257.230463 26.16 
M 333.389943 357.993316 
L 335.387569 356.812415 
L 333.389943 355.779126 
L 331.392317 356.812415 
L 333.389943 357.993316 
z
M 423.2831 358.465677 
L 433.271229 360.94557 
L 443.259357 362.323288 
L 453.247486 360.48633 
L 456.879533 356.812415 
L 453.247486 353.138499 
L 443.259357 351.852629 
L 433.271229 348.546104 
L 433.271229 348.546104 
L 433.271229 348.546104 
L 443.259357 343.822498 
L 453.247486 342.641597 
L 463.235614 348.546104 
L 470.726711 340.279794 
L 463.235614 335.320008 
L 456.576862 332.013484 
L 453.247486 327.880328 
L 443.259357 323.747173 
L 443.259357 323.747173 
L 443.259357 323.747173 
L 447.254609 315.480863 
L 453.247486 313.226415 
L 460.738582 315.480863 
L 463.235614 318.2363 
L 465.23324 315.480863 
L 463.235614 307.214553 
L 463.235614 307.214553 
L 463.235614 307.214553 
L 466.089365 298.948242 
L 463.235614 296.881665 
L 453.247486 298.948242 
L 453.247486 298.948242 
L 453.247486 298.948242 
L 448.966859 290.681932 
L 448.253422 282.415621 
L 443.259357 279.660185 
L 436.600605 274.149311 
L 433.271229 271.393874 
L 426.612476 265.883001 
L 433.271229 261.749846 
L 438.265293 257.61669 
L 433.271229 254.861254 
L 423.2831 254.310166 
L 417.290223 249.35038 
L 413.294972 246.043856 
L 408.300907 249.35038 
L 403.306843 251.187338 
L 401.087259 249.35038 
L 393.318714 242.117358 
L 390.821682 241.08407 
L 387.325837 232.817759 
L 393.318714 227.857973 
L 400.809811 232.817759 
L 403.306843 235.573196 
L 405.803875 232.817759 
L 413.294972 229.717893 
L 418.289036 232.817759 
L 420.786068 241.08407 
L 423.2831 243.150647 
L 428.277164 241.08407 
L 427.028648 232.817759 
L 423.2831 224.551449 
L 423.2831 224.551449 
L 423.2831 224.551449 
L 426.136851 216.285138 
L 423.2831 212.978614 
L 413.294972 212.151983 
L 403.306843 211.118695 
L 395.815747 208.018828 
L 401.642155 199.752518 
L 403.306843 191.486207 
L 403.306843 191.486207 
L 408.300907 183.219897 
L 403.306843 174.953587 
L 403.306843 174.953587 
L 401.309217 166.687276 
L 403.306843 164.620699 
L 409.29972 158.420966 
L 413.294972 155.665529 
L 417.73414 150.154656 
L 419.287849 141.888345 
L 413.294972 138.788479 
L 404.971531 133.622035 
L 410.797939 125.355724 
L 413.294972 122.600288 
L 418.289036 117.089414 
L 413.294972 111.57854 
L 403.306843 110.889681 
L 401.087259 108.823104 
L 403.306843 106.756526 
L 413.294972 107.789815 
L 420.286662 100.556793 
L 423.2831 95.597007 
L 428.277164 92.290483 
L 423.2831 84.024173 
L 423.2831 84.024173 
L 423.2831 84.024173 
L 429.275977 75.757862 
L 428.277164 67.491552 
L 429.275977 59.225241 
L 433.271229 50.958931 
L 423.2831 49.77803 
L 421.285474 50.958931 
L 413.294972 55.092086 
L 406.636219 50.958931 
L 410.797939 42.692621 
L 403.306843 36.492888 
L 393.318714 35.929276 
L 390.464963 34.42631 
L 383.330586 29.833916 
L 373.342457 32.589353 
L 363.354329 30.293155 
L 353.3662 29.259866 
L 343.378072 28.743222 
L 333.389943 28.675834 
L 324.511607 34.42631 
L 323.401815 42.692621 
L 323.401815 42.692621 
L 323.401815 42.692621 
L 319.406563 34.42631 
L 313.413686 31.326444 
L 303.425558 30.61109 
L 293.437429 30.883606 
L 283.4493 33.048592 
L 273.461172 29.702704 
L 268.467108 34.42631 
L 263.473043 39.149916 
L 253.484915 38.559466 
L 243.496786 38.241531 
L 233.508658 37.181747 
L 223.520529 38.559466 
L 213.532401 34.42631 
L 213.532401 34.42631 
L 203.544272 29.466524 
L 193.556143 29.563775 
L 184.476027 34.42631 
L 184.99489 42.692621 
L 193.556143 49.77803 
L 198.550208 50.958931 
L 193.556143 55.092086 
L 183.568015 50.958931 
L 183.568015 50.958931 
L 182.141139 42.692621 
L 181.570389 34.42631 
L 173.579886 31.119786 
L 163.591758 31.670874 
L 156.933005 34.42631 
L 153.603629 42.692621 
L 153.603629 42.692621 
L 153.603629 42.692621 
L 143.615501 34.42631 
L 138.621436 42.692621 
L 135.624998 50.958931 
L 143.615501 54.632847 
L 148.155559 59.225241 
L 153.603629 63.734138 
L 158.597694 67.491552 
L 163.591758 74.380144 
L 173.579886 67.491552 
L 166.445509 59.225241 
L 173.579886 56.272988 
L 180.714264 59.225241 
L 173.579886 67.491552 
L 183.568015 71.624707 
L 193.556143 75.757862 
L 193.556143 75.757862 
L 193.556143 84.024173 
L 200.690521 92.290483 
L 203.544272 97.801357 
L 208.538336 100.556793 
L 203.544272 101.934512 
L 196.409894 108.823104 
L 203.544272 115.711696 
L 209.093232 108.823104 
L 213.532401 102.210055 
L 218.526465 108.823104 
L 223.520529 117.089414 
L 233.508658 113.78289 
L 239.501535 108.823104 
L 243.496786 106.067667 
L 246.826162 108.823104 
L 243.496786 114.333977 
L 240.16741 117.089414 
L 243.496786 121.222569 
L 244.606578 125.355724 
L 247.492038 133.622035 
L 243.496786 139.132908 
L 240.16741 133.622035 
L 233.508658 128.111161 
L 228.514593 133.622035 
L 233.508658 139.132908 
L 240.16741 141.888345 
L 240.999754 150.154656 
L 236.00569 158.420966 
L 233.508658 162.554121 
L 231.84397 166.687276 
L 233.508658 168.753854 
L 243.496786 174.953587 
L 243.496786 174.953587 
L 246.350537 183.219897 
L 248.49085 191.486207 
L 253.484915 193.552785 
L 263.473043 199.752518 
L 263.473043 199.752518 
L 270.131796 208.018828 
L 273.461172 209.67209 
L 277.90034 216.285138 
L 283.4493 224.551449 
L 283.4493 224.551449 
L 283.4493 224.551449 
L 278.455236 232.817759 
L 273.461172 241.08407 
L 283.4493 247.283802 
L 285.446926 249.35038 
L 293.437429 253.483535 
L 301.427932 249.35038 
L 303.425558 241.08407 
L 293.437429 232.817759 
L 293.437429 232.817759 
L 293.437429 232.817759 
L 298.431493 224.551449 
L 303.425558 216.285138 
L 293.437429 208.018828 
L 293.437429 208.018828 
L 293.437429 208.018828 
L 303.425558 208.018828 
L 313.413686 199.752518 
L 313.413686 199.752518 
L 323.401815 199.752518 
L 328.395879 191.486207 
L 323.401815 183.219897 
L 323.401815 183.219897 
L 323.401815 183.219897 
L 333.389943 174.953587 
L 325.898847 166.687276 
L 323.401815 162.554121 
L 318.40775 158.420966 
L 315.910718 150.154656 
L 313.413686 146.0215 
L 312.505674 141.888345 
L 313.413686 137.75519 
L 323.401815 139.132908 
L 333.389943 139.821768 
L 338.384007 133.622035 
L 343.378072 125.355724 
L 333.389943 122.0492 
L 323.401815 121.222569 
L 321.974939 117.089414 
L 313.413686 108.823104 
L 313.413686 108.823104 
L 311.748998 100.556793 
L 313.413686 96.423638 
L 323.401815 97.801357 
L 333.389943 98.719835 
L 343.378072 100.556793 
L 343.378072 100.556793 
L 343.378072 100.556793 
L 333.389943 104.689949 
L 329.394692 108.823104 
L 333.389943 112.129628 
L 343.378072 114.333977 
L 348.372136 117.089414 
L 343.378072 125.355724 
L 346.707448 133.622035 
L 343.378072 139.821768 
L 338.384007 141.888345 
L 343.378072 146.0215 
L 353.3662 141.888345 
L 353.3662 141.888345 
L 363.354329 139.132908 
L 368.348393 141.888345 
L 363.354329 144.643782 
L 360.024953 150.154656 
L 363.354329 152.910092 
L 373.342457 158.420966 
L 383.330586 152.910092 
L 393.318714 152.221233 
L 395.815747 150.154656 
L 403.306843 147.054789 
L 407.58747 150.154656 
L 403.306843 154.287811 
L 398.312779 158.420966 
L 393.318714 161.96367 
L 383.330586 163.931839 
L 380.00121 166.687276 
L 373.342457 169.9938 
L 366.683705 166.687276 
L 363.354329 165.034014 
L 353.3662 166.687276 
L 363.354329 170.820431 
L 365.851361 174.953587 
L 363.354329 177.020164 
L 357.361452 183.219897 
L 353.3662 187.353052 
L 343.378072 189.832945 
L 338.384007 191.486207 
L 343.378072 193.552785 
L 348.372136 199.752518 
L 353.3662 204.712304 
L 363.354329 206.837927 
L 364.781204 208.018828 
L 363.354329 209.396547 
L 353.3662 212.151983 
L 346.707448 208.018828 
L 343.378072 205.952251 
L 333.389943 199.752518 
L 326.731191 208.018828 
L 323.401815 210.774265 
L 320.072438 216.285138 
L 323.401815 219.591663 
L 327.682441 224.551449 
L 323.401815 229.511235 
L 313.413686 225.929167 
L 303.425558 232.817759 
L 303.425558 241.08407 
L 313.413686 249.35038 
L 317.852854 241.08407 
L 323.401815 235.179562 
L 333.389943 232.817759 
L 333.389943 232.817759 
L 341.380446 224.551449 
L 343.378072 220.418294 
L 346.707448 224.551449 
L 353.3662 232.817759 
L 353.3662 232.817759 
L 353.3662 232.817759 
L 343.378072 241.08407 
L 353.3662 245.217225 
L 363.354329 249.35038 
L 373.342457 245.807676 
L 378.336522 249.35038 
L 373.342457 252.893084 
L 363.354329 249.35038 
L 355.585784 257.61669 
L 363.354329 264.849712 
L 373.342457 263.127564 
L 378.336522 265.883001 
L 383.330586 268.638437 
L 389.989338 274.149311 
L 383.330586 280.762359 
L 380.833554 282.415621 
L 373.342457 285.171058 
L 363.354329 285.722146 
L 358.360265 290.681932 
L 363.354329 295.641718 
L 366.20808 298.948242 
L 363.354329 301.310045 
L 358.360265 298.948242 
L 353.3662 295.641718 
L 343.378072 294.815087 
L 340.88104 298.948242 
L 343.378072 301.01482 
L 353.3662 304.459116 
L 355.030888 307.214553 
L 363.354329 313.11906 
L 367.34958 315.480863 
L 363.354329 317.134125 
L 353.3662 322.093911 
L 346.707448 315.480863 
L 343.378072 312.174339 
L 333.389943 309.969989 
L 328.395879 315.480863 
L 333.389943 323.747173 
L 333.389943 323.747173 
L 335.054631 332.013484 
L 338.384007 340.279794 
L 343.378072 344.412949 
L 345.875104 340.279794 
L 353.3662 334.080061 
L 356.695576 332.013484 
L 363.354329 330.360222 
L 366.683705 332.013484 
L 373.342457 335.687399 
L 379.585038 340.279794 
L 383.330586 343.822498 
L 387.769754 348.546104 
L 393.318714 353.712548 
L 403.306843 353.505891 
L 413.294972 353.055001 
L 421.618412 356.812415 
L 423.2831 358.465677 
z
M 303.425558 344.412949 
L 305.090246 340.279794 
L 313.413686 332.013484 
L 303.425558 326.50261 
L 293.437429 329.946906 
L 291.439803 332.013484 
L 293.437429 334.76892 
L 300.096181 340.279794 
L 303.425558 344.412949 
z
M 323.401815 341.657512 
L 328.395879 340.279794 
L 323.401815 338.626532 
L 321.737127 340.279794 
L 323.401815 341.657512 
z
M 403.306843 342.346372 
L 400.453092 340.279794 
L 403.306843 337.917991 
L 406.636219 340.279794 
L 403.306843 342.346372 
z
M 383.330586 323.747173 
L 383.330586 323.747173 
L 383.330586 323.747173 
L 383.330586 323.747173 
L 383.330586 323.747173 
z
M 283.4493 316.858581 
L 293.437429 319.614018 
L 303.425558 319.614018 
L 306.279309 315.480863 
L 311.41606 307.214553 
L 313.413686 298.948242 
L 303.425558 294.224636 
L 293.437429 298.948242 
L 295.435055 307.214553 
L 293.437429 309.28113 
L 283.4493 311.347708 
L 278.455236 315.480863 
L 283.4493 316.858581 
z
M 433.271229 317.842666 
L 431.734594 315.480863 
L 433.271229 312.725426 
L 438.265293 315.480863 
L 433.271229 317.842666 
z
M 213.532401 301.703679 
L 218.526465 298.948242 
L 223.520529 290.681932 
L 213.532401 287.375408 
L 210.67865 290.681932 
L 211.035368 298.948242 
L 213.532401 301.703679 
z
M 273.461172 303.081397 
L 276.790548 298.948242 
L 273.461172 294.815087 
L 268.467108 298.948242 
L 273.461172 303.081397 
z
M 433.271229 298.948242 
L 433.271229 298.948242 
L 433.271229 298.948242 
L 433.271229 298.948242 
L 433.271229 298.948242 
z
M 263.473043 293.437369 
L 266.80242 290.681932 
L 273.461172 282.415621 
L 273.461172 282.415621 
L 273.461172 282.415621 
L 283.4493 287.926495 
L 293.437429 282.415621 
L 293.437429 282.415621 
L 295.934461 274.149311 
L 293.437429 272.082733 
L 289.691881 265.883001 
L 285.446926 257.61669 
L 283.4493 253.483535 
L 273.461172 252.893084 
L 267.75367 257.61669 
L 273.461172 264.229739 
L 275.12586 265.883001 
L 273.461172 267.949578 
L 263.473043 270.842787 
L 258.478979 274.149311 
L 253.484915 279.660185 
L 250.987883 282.415621 
L 253.484915 284.482199 
L 260.976011 290.681932 
L 263.473043 293.437369 
z
M 323.401815 298.948242 
L 329.109317 290.681932 
L 333.389943 287.139227 
L 341.380446 282.415621 
L 337.385195 274.149311 
L 338.384007 265.883001 
L 333.389943 263.127564 
L 323.401815 265.883001 
L 330.060567 274.149311 
L 325.39944 282.415621 
L 323.401815 284.068884 
L 316.743062 290.681932 
L 323.401815 298.948242 
z
M 233.508658 284.068884 
L 236.00569 282.415621 
L 233.508658 279.660185 
L 231.011626 282.415621 
L 233.508658 284.068884 
z
M 283.4493 274.149311 
L 283.4493 274.149311 
L 283.4493 274.149311 
L 283.4493 274.149311 
L 283.4493 274.149311 
z
M 313.413686 278.282466 
L 315.411312 274.149311 
L 323.401815 265.883001 
L 321.974939 257.61669 
L 313.413686 249.35038 
L 304.852433 257.61669 
L 305.423183 265.883001 
L 310.916654 274.149311 
L 313.413686 278.282466 
z
M 463.235614 275.330213 
L 464.48413 274.149311 
L 463.235614 272.96841 
L 458.24155 274.149311 
L 463.235614 275.330213 
z
M 253.484915 268.638437 
L 255.981947 265.883001 
L 255.981947 257.61669 
L 253.484915 254.861254 
L 250.155539 257.61669 
L 250.987883 265.883001 
L 253.484915 268.638437 
z
M 223.520529 265.883001 
L 228.514593 257.61669 
L 223.520529 255.254887 
L 219.525278 257.61669 
L 223.520529 265.883001 
z
M 453.247486 260.372127 
L 454.912174 257.61669 
L 453.247486 256.238972 
L 449.91811 257.61669 
L 453.247486 260.372127 
z
M 183.568015 244.626774 
L 189.560892 241.08407 
L 183.568015 236.950914 
L 180.238639 241.08407 
L 183.568015 244.626774 
z
M 333.389943 245.217225 
L 343.378072 241.08407 
L 333.389943 232.817759 
L 331.725255 241.08407 
L 333.389943 245.217225 
z
M 243.496786 233.998661 
L 246.826162 232.817759 
L 243.496786 230.751182 
L 238.502722 232.817759 
L 243.496786 233.998661 
z
M 263.473043 227.306886 
L 268.467108 224.551449 
L 263.473043 221.796012 
L 261.808355 224.551449 
L 263.473043 227.306886 
z
M 373.342457 226.618026 
L 368.348393 224.551449 
L 373.342457 221.796012 
L 375.007145 224.551449 
L 373.342457 226.618026 
z
M 233.508658 221.796012 
L 236.362409 216.285138 
L 233.508658 213.529702 
L 229.513406 216.285138 
L 233.508658 221.796012 
z
M 393.318714 216.285138 
L 393.318714 216.285138 
L 393.318714 216.285138 
L 393.318714 216.285138 
L 393.318714 216.285138 
z
M 283.4493 199.752518 
L 283.4493 199.752518 
L 283.4493 199.752518 
L 283.4493 199.752518 
L 283.4493 199.752518 
z
M 423.2831 203.885673 
L 427.563727 199.752518 
L 423.2831 194.792732 
L 413.294972 199.752518 
L 423.2831 203.885673 
z
M 303.425558 191.486207 
L 303.425558 191.486207 
L 303.425558 191.486207 
L 303.425558 191.486207 
L 303.425558 191.486207 
z
M 363.354329 192.667109 
L 360.024953 191.486207 
L 363.354329 189.41963 
L 365.351955 191.486207 
L 363.354329 192.667109 
M 383.330586 196.997081 
L 380.00121 191.486207 
L 383.330586 188.730771 
L 389.989338 191.486207 
L 383.330586 196.997081 
M 223.520529 185.975334 
L 233.508658 185.286475 
L 236.838034 183.219897 
L 233.508658 181.153319 
L 223.520529 180.46446 
L 216.861777 183.219897 
L 223.520529 185.975334 
z
M 313.413686 174.953587 
L 313.413686 174.953587 
L 313.413686 174.953587 
L 313.413686 174.953587 
L 313.413686 174.953587 
z
M 253.484915 167.513907 
L 250.987883 166.687276 
L 250.987883 158.420966 
L 253.484915 157.043248 
L 254.392926 158.420966 
L 255.981947 166.687276 
L 253.484915 167.513907 
z
M 433.271229 168.340538 
L 434.698104 166.687276 
L 433.271229 165.034014 
L 428.277164 166.687276 
L 433.271229 168.340538 
z
M 303.425558 160.782769 
L 300.096181 158.420966 
L 303.425558 152.910092 
L 310.08431 158.420966 
L 303.425558 160.782769 
z
M 353.3662 166.687276 
L 356.695576 158.420966 
L 353.3662 155.665529 
L 346.707448 158.420966 
L 353.3662 166.687276 
z
M 293.437429 152.910092 
L 289.442178 150.154656 
L 293.437429 146.848131 
L 300.096181 150.154656 
L 293.437429 152.910092 
z
M 333.389943 151.807918 
L 338.384007 150.154656 
L 333.389943 146.0215 
L 330.892911 150.154656 
L 333.389943 151.807918 
z
M 253.484915 143.266064 
L 248.49085 141.888345 
L 253.484915 139.821768 
L 254.253232 141.888345 
L 253.484915 143.266064 
z
M 383.330586 141.888345 
L 383.330586 141.888345 
L 383.330586 133.622035 
L 379.335335 125.355724 
L 383.330586 122.993921 
L 387.325837 125.355724 
L 383.330586 133.622035 
L 393.318714 140.510627 
L 394.983403 141.888345 
L 393.318714 146.0215 
L 383.330586 141.888345 
z
M 303.425558 134.373518 
L 302.177041 133.622035 
L 300.571807 125.355724 
L 300.571807 117.089414 
L 303.425558 111.57854 
L 305.92259 117.089414 
L 313.413686 122.600288 
L 320.904782 125.355724 
L 313.413686 131.555457 
L 308.419622 133.622035 
L 303.425558 134.373518 
z
M 423.2831 139.132908 
L 428.990602 133.622035 
L 423.2831 129.948119 
L 418.843932 133.622035 
L 423.2831 139.132908 
z
M 363.354329 125.355724 
L 363.354329 125.355724 
L 363.354329 125.355724 
L 363.354329 125.355724 
L 363.354329 125.355724 
z
M 183.568015 111.829035 
L 190.226767 108.823104 
L 183.568015 104.689949 
L 173.579886 108.823104 
L 183.568015 111.829035 
z
M 353.3662 108.823104 
L 353.3662 108.823104 
L 353.3662 108.823104 
L 363.354329 105.51658 
L 366.986376 108.823104 
L 363.354329 111.184907 
L 353.3662 108.823104 
z
M 443.259357 110.476366 
L 444.924045 108.823104 
L 443.259357 100.556793 
L 441.594669 108.823104 
L 443.259357 110.476366 
z
M 233.508658 100.556793 
L 233.508658 100.556793 
L 233.508658 100.556793 
L 233.508658 100.556793 
L 233.508658 100.556793 
z
M 283.4493 102.210055 
L 281.451675 100.556793 
L 283.4493 99.730162 
L 284.559092 100.556793 
L 283.4493 102.210055 
z
M 383.330586 102.623371 
L 382.331773 100.556793 
L 383.330586 97.801357 
L 393.318714 98.490216 
L 395.815747 100.556793 
L 393.318714 102.393751 
L 383.330586 102.623371 
z
M 213.532401 92.290483 
L 213.532401 92.290483 
L 213.532401 92.290483 
L 213.532401 92.290483 
L 213.532401 92.290483 
z
M 173.579886 89.92868 
L 183.568015 90.223905 
L 193.556143 84.024173 
L 183.568015 79.891017 
L 173.579886 77.135581 
L 167.337306 84.024173 
L 173.579886 89.92868 
z
M 243.496786 84.024173 
L 243.496786 84.024173 
L 243.496786 84.024173 
L 243.496786 84.024173 
L 243.496786 84.024173 
z
M 333.389943 87.030104 
L 328.395879 84.024173 
L 333.389943 81.018242 
L 341.380446 84.024173 
L 333.389943 87.030104 
z
M 133.627372 76.938764 
L 136.124404 75.757862 
L 133.627372 73.691285 
L 130.297996 75.757862 
L 133.627372 76.938764 
z
M 413.294972 75.757862 
L 413.294972 75.757862 
L 413.294972 75.757862 
L 413.294972 75.757862 
L 413.294972 75.757862 
z
M 303.425558 61.980678 
L 301.998682 59.225241 
L 303.425558 57.847523 
L 305.090246 59.225241 
L 303.425558 61.980678 
M 163.591758 50.958931 
L 163.591758 50.958931 
L 163.591758 50.958931 
L 163.591758 50.958931 
L 163.591758 50.958931 
z
M 233.508658 51.785562 
L 232.509845 50.958931 
L 233.508658 48.203494 
L 234.008064 50.958931 
L 233.508658 51.785562 
z
M 273.461172 43.38148 
L 270.96414 42.692621 
L 273.461172 41.039359 
L 283.4493 42.692621 
L 283.4493 42.692621 
L 283.4493 42.692621 
L 273.461172 43.38148 
" clip-path="url(#p4d5465210d)" style="fill: none; stroke: #fde725; stroke-width: 1.5"/>
   </g>
   <g id="patch_3">
    <path d="M 53.722344 389.877656 
L 53.722344 26.16 
" style="fill: none; stroke: #000000; stroke-width: 0.8; stroke-linejoin: miter; stroke-linecap: square"/>
   </g>
   <g id="patch_4">
    <path d="M 493.2 389.877656 
L 493.2 26.16 
" style="fill: none; stroke: #000000; stroke-width: 0.8; stroke-linejoin: miter; stroke-linecap: square"/>
   </g>
   <g id="patch_5">
    <path d="M 53.722344 389.877656 
L 493.2 389.877656 
" style="fill: none; stroke: #000000; stroke-width: 0.8; stroke-linejoin: miter; stroke-linecap: square"/>
   </g>
   <g id="patch_6">
    <path d="M 53.722344 26.16 
L 493.2 26.16 
" style="fill: none; stroke: #000000; stroke-width: 0.8; stroke-linejoin: miter; stroke-linecap: square"/>
   </g>
   <g id="text_14">
    <!-- Joint derivative constraint, z=0.75 (linear model) -->
    <g transform="translate(126.543672 20.16) scale(0.12 -0.12)">
     <defs>
      <path id="DejaVuSans-2d" d="M 628 4666 
L 1259 4666 
L 1259 325 
Q 1259 -519 939 -900 
Q 619 -1281 -91 -1281 
L -331 -1281 
L -331 -750 
L -134 -750 
Q 284 -750 456 -515 
Q 628 -281 628 325 
L 628 4666 
z
" transform="scale(0.015625)"/>
      <path id="DejaVuSans-52" d="M 1959 3097 
Q 1497 3097 1228 2736 
Q 959 2375 959 1747 
Q 959 1119 1226 758 
Q 1494 397 1959 397 
Q 2419 397 2687 759 
Q 2956 1122 2956 1747 
Q 2956 2369 2687 2733 
Q 2419 3097 1959 3097 
z
M 1959 3584 
Q 2709 3584 3137 3096 
Q 3566 2609 3566 1747 
Q 3566 888 3137 398 
Q 2709 -91 1959 -91 
Q 1206 -91 779 398 
Q 353 888 353 1747 
Q 353 2609 779 3096 
Q 1206 3584 1959 3584 
z
" transform="scale(0.015625)"/>
      <path id="DejaVuSans-4c" d="M 603 3500 
L 1178 3500 
L 1178 0 
L 603 0 
L 603 3500 
z
M 603 4863 
L 1178 4863 
L 1178 4134 
L 603 4134 
L 603 4863 
z
" transform="scale(0.015625)"/>
      <path id="DejaVuSans-51" d="M 3513 2113 
L 3513 0 
L 2938 0 
L 2938 2094 
Q 2938 2591 2744 2837 
Q 2550 3084 2163 3084 
Q 1697 3084 1428 2787 
Q 1159 2491 1159 1978 
L 1159 0 
L 581 0 
L 581 3500 
L 1159 3500 
L 1159 2956 
Q 1366 3272 1645 3428 
Q 1925 3584 2291 3584 
Q 2894 3584 3203 3211 
Q 3513 2838 3513 2113 
z
" transform="scale(0.015625)"/>
      <path id="DejaVuSans-57" d="M 1172 4494 
L 1172 3500 
L 2356 3500 
L 2356 3053 
L 1172 3053 
L 1172 1153 
Q 1172 725 1289 603 
Q 1406 481 1766 481 
L 2356 481 
L 2356 0 
L 1766 0 
Q 1100 0 847 248 
Q 594 497 594 1153 
L 594 3053 
L 172 3053 
L 172 3500 
L 594 3500 
L 594 4494 
L 1172 4494 
z
" transform="scale(0.015625)"/>
      <path id="DejaVuSans-3" transform="scale(0.015625)"/>
      <path id="DejaVuSans-47" d="M 2906 2969 
L 2906 4863 
L 3481 4863 
L 3481 0 
L 2906 0 
L 2906 525 
Q 2725 213 2448 61 
Q 2172 -91 1784 -91 
Q 1150 -91 751 415 
Q 353 922 353 1747 
Q 353 2572 751 3078 
Q 1150 3584 1784 3584 
Q 2172 3584 2448 3432 
Q 2725 3281 2906 2969 
z
M 947 1747 
Q 947 1113 1208 752 
Q 1469 391 1925 391 
Q 2381 391 2643 752 
Q 2906 1113 2906 1747 
Q 2906 2381 2643 2742 
Q 2381 3103 1925 3103 
Q 1469 3103 1208 2742 
Q 947 2381 947 1747 
z
" transform="scale(0.015625)"/>
      <path id="DejaVuSans-48" d="M 3597 1894 
L 3597 1613 
L 953 1613 
Q 991 1019 1311 708 
Q 1631 397 2203 397 
Q 2534 397 2845 478 
Q 3156 559 3463 722 
L 3463 178 
Q 3153 47 2828 -22 
Q 2503 -91 2169 -91 
Q 1331 -91 842 396 
Q 353 884 353 1716 
Q 353 2575 817 3079 
Q 1281 3584 2069 3584 
Q 2775 3584 3186 3129 
Q 3597 2675 3597 1894 
z
M 3022 2063 
Q 3016 2534 2758 2815 
Q 2500 3097 2075 3097 
Q 1594 3097 1305 2825 
Q 1016 2553 972 2059 
L 3022 2063 
z
" transform="scale(0.015625)"/>
      <path id="DejaVuSans-55" d="M 2631 2963 
Q 2534 3019 2420 3045 
Q 2306 3072 2169 3072 
Q 1681 3072 1420 2755 
Q 1159 2438 1159 1844 
L 1159 0 
L 581 0 
L 581 3500 
L 1159 3500 
L 1159 2956 
Q 1341 3275 1631 3429 
Q 1922 3584 2338 3584 
Q 2397 3584 2469 3576 
Q 2541 3569 2628 3553 
L 2631 2963 
z
" transform="scale(0.015625)"/>
      <path id="DejaVuSans-59" d="M 191 3500 
L 800 3500 
L 1894 563 
L 2988 3500 
L 3597 3500 
L 2284 0 
L 1503 0 
L 191 3500 
z
" transform="scale(0.015625)"/>
      <path id="DejaVuSans-44" d="M 2194 1759 
Q 1497 1759 1228 1600 
Q 959 1441 959 1056 
Q 959 750 1161 570 
Q 1363 391 1709 391 
Q 2188 391 2477 730 
Q 2766 1069 2766 1631 
L 2766 1759 
L 2194 1759 
z
M 3341 1997 
L 3341 0 
L 2766 0 
L 2766 531 
Q 2569 213 2275 61 
Q 1981 -91 1556 -91 
Q 1019 -91 701 211 
Q 384 513 384 1019 
Q 384 1609 779 1909 
Q 1175 2209 1959 2209 
L 2766 2209 
L 2766 2266 
Q 2766 2663 2505 2880 
Q 2244 3097 1772 3097 
Q 1472 3097 1187 3025 
Q 903 2953 641 2809 
L 641 3341 
Q 956 3463 1253 3523 
Q 1550 3584 1831 3584 
Q 2591 3584 2966 3190 
Q 3341 2797 3341 1997 
z
" transform="scale(0.015625)"/>
      <path id="DejaVuSans-46" d="M 3122 3366 
L 3122 2828 
Q 2878 2963 2633 3030 
Q 2388 3097 2138 3097 
Q 1578 3097 1268 2742 
Q 959 2388 959 1747 
Q 959 1106 1268 751 
Q 1578 397 2138 397 
Q 2388 397 2633 464 
Q 2878 531 3122 666 
L 3122 134 
Q 2881 22 2623 -34 
Q 2366 -91 2075 -91 
Q 1284 -91 818 406 
Q 353 903 353 1747 
Q 353 2603 823 3093 
Q 1294 3584 2113 3584 
Q 2378 3584 2631 3529 
Q 2884 3475 3122 3366 
z
" transform="scale(0.015625)"/>
      <path id="DejaVuSans-56" d="M 2834 3397 
L 2834 2853 
Q 2591 2978 2328 3040 
Q 2066 3103 1784 3103 
Q 1356 3103 1142 2972 
Q 928 2841 928 2578 
Q 928 2378 1081 2264 
Q 1234 2150 1697 2047 
L 1894 2003 
Q 2506 1872 2764 1633 
Q 3022 1394 3022 966 
Q 3022 478 2636 193 
Q 2250 -91 1575 -91 
Q 1294 -91 989 -36 
Q 684 19 347 128 
L 347 722 
Q 666 556 975 473 
Q 1284 391 1588 391 
Q 1994 391 2212 530 
Q 2431 669 2431 922 
Q 2431 1156 2273 1281 
Q 2116 1406 1581 1522 
L 1381 1569 
Q 847 1681 609 1914 
Q 372 2147 372 2553 
Q 372 3047 722 3315 
Q 1072 3584 1716 3584 
Q 2034 3584 2315 3537 
Q 2597 3491 2834 3397 
z
" transform="scale(0.015625)"/>
      <path id="DejaVuSans-f" d="M 750 794 
L 1409 794 
L 1409 256 
L 897 -744 
L 494 -744 
L 750 256 
L 750 794 
z
" transform="scale(0.015625)"/>
      <path id="DejaVuSans-5d" d="M 353 3500 
L 3084 3500 
L 3084 2975 
L 922 459 
L 3084 459 
L 3084 0 
L 275 0 
L 275 525 
L 2438 3041 
L 353 3041 
L 353 3500 
z
" transform="scale(0.015625)"/>
      <path id="DejaVuSans-20" d="M 678 2906 
L 4684 2906 
L 4684 2381 
L 678 2381 
L 678 2906 
z
M 678 1631 
L 4684 1631 
L 4684 1100 
L 678 1100 
L 678 1631 
z
" transform="scale(0.015625)"/>
      <path id="DejaVuSans-11" d="M 684 794 
L 1344 794 
L 1344 0 
L 684 0 
L 684 794 
z
" transform="scale(0.015625)"/>
      <path id="DejaVuSans-1a" d="M 525 4666 
L 3525 4666 
L 3525 4397 
L 1831 0 
L 1172 0 
L 2766 4134 
L 525 4134 
L 525 4666 
z
" transform="scale(0.015625)"/>
      <path id="DejaVuSans-4f" d="M 603 4863 
L 1178 4863 
L 1178 0 
L 603 0 
L 603 4863 
z
" transform="scale(0.015625)"/>
      <path id="DejaVuSans-50" d="M 3328 2828 
Q 3544 3216 3844 3400 
Q 4144 3584 4550 3584 
Q 5097 3584 5394 3201 
Q 5691 2819 5691 2113 
L 5691 0 
L 5113 0 
L 5113 2094 
Q 5113 2597 4934 2840 
Q 4756 3084 4391 3084 
Q 3944 3084 3684 2787 
Q 3425 2491 3425 1978 
L 3425 0 
L 2847 0 
L 2847 2094 
Q 2847 2600 2669 2842 
Q 2491 3084 2119 3084 
Q 1678 3084 1418 2786 
Q 1159 2488 1159 1978 
L 1159 0 
L 581 0 
L 581 3500 
L 1159 3500 
L 1159 2956 
Q 1356 3278 1631 3431 
Q 1906 3584 2284 3584 
Q 2666 3584 2933 3390 
Q 3200 3197 3328 2828 
z
" transform="scale(0.015625)"/>
     </defs>
     <use xlink:href="#DejaVuSans-2d"/>
     <use xlink:href="#DejaVuSans-52" transform="translate(29.5 0)"/>
     <use xlink:href="#DejaVuSans-4c" transform="translate(90.6875 0)"/>
     <use xlink:href="#DejaVuSans-51" transform="translate(118.46875 0)"/>
     <use xlink:href="#DejaVuSans-57" transform="translate(181.84375 0)"/>
     <use xlink:href="#DejaVuSans-3" transform="translate(221.046875 0)"/>
     <use xlink:href="#DejaVuSans-47" transform="translate(252.828125 0)"/>
     <use xlink:href="#DejaVuSans-48" transform="translate(316.3125 0)"/>
     <use xlink:href="#DejaVuSans-55" transform="translate(377.84375 0)"/>
     <use xlink:href="#DejaVuSans-4c" transform="translate(418.953125 0)"/>
     <use xlink:href="#DejaVuSans-59" transform="translate(446.734375 0)"/>
     <use xlink:href="#DejaVuSans-44" transform="translate(505.921875 0)"/>
     <use xlink:href="#DejaVuSans-57" transform="translate(567.203125 0)"/>
     <use xlink:href="#DejaVuSans-4c" transform="translate(606.40625 0)"/>
     <use xlink:href="#DejaVuSans-59" transform="translate(634.1875 0)"/>
     <use xlink:href="#DejaVuSans-48" transform="translate(693.375 0)"/>
     <use xlink:href="#DejaVuSans-3" transform="translate(754.90625 0)"/>
     <use xlink:href="#DejaVuSans-46" transform="translate(786.6875 0)"/>
     <use xlink:href="#DejaVuSans-52" transform="translate(841.671875 0)"/>
     <use xlink:href="#DejaVuSans-51" transform="translate(902.859375 0)"/>
     <use xlink:href="#DejaVuSans-56" transform="translate(966.234375 0)"/>
     <use xlink:href="#DejaVuSans-57" transform="translate(1018.328125 0)"/>
     <use xlink:href="#DejaVuSans-55" transform="translate(1057.53125 0)"/>
     <use xlink:href="#DejaVuSans-44" transform="translate(1098.640625 0)"/>
     <use xlink:href="#DejaVuSans-4c" transform="translate(1159.921875 0)"/>
     <use xlink:href="#DejaVuSans-51" transform="translate(1187.703125 0)"/>
     <use xlink:href="#DejaVuSans-57" transform="translate(1251.078125 0)"/>
     <use xlink:href="#DejaVuSans-f" transform="translate(1290.28125 0)"/>
     <use xlink:href="#DejaVuSans-3" transform="translate(1322.0625 0)"/>
     <use xlink:href="#DejaVuSans-5d" transform="translate(1353.84375 0)"/>
     <use xlink:href="#DejaVuSans-20" transform="translate(1406.328125 0)"/>
     <use xlink:href="#DejaVuSans-13" transform="translate(1490.125 0)"/>
     <use xlink:href="#DejaVuSans-11" transform="translate(1553.75 0)"/>
     <use xlink:href="#DejaVuSans-1a" transform="translate(1585.53125 0)"/>
     <use xlink:href="#DejaVuSans-18" transform="translate(1649.15625 0)"/>
     <use xlink:href="#DejaVuSans-3" transform="translate(1712.78125 0)"/>
     <use xlink:href="#DejaVuSans-b" transform="translate(1744.5625 0)"/>
     <use xlink:href="#DejaVuSans-4f" transform="translate(1783.578125 0)"/>
     <use xlink:href="#DejaVuSans-4c" transform="translate(1811.359375 0)"/>
     <use xlink:href="#DejaVuSans-51" transform="translate(1839.140625 0)"/>
     <use xlink:href="#DejaVuSans-48" transform="translate(1902.515625 0)"/>
     <use xlink:href="#DejaVuSans-44" transform="translate(1964.046875 0)"/>
     <use xlink:href="#DejaVuSans-55" transform="translate(2025.328125 0)"/>
     <use xlink:href="#DejaVuSans-3" transform="translate(2066.4375 0)"/>
     <use xlink:href="#DejaVuSans-50" transform="translate(2098.21875 0)"/>
     <use xlink:href="#DejaVuSans-52" transform="translate(2195.625 0)"/>
     <use xlink:href="#DejaVuSans-47" transform="translate(2256.8125 0)"/>
     <use xlink:href="#DejaVuSans-48" transform="translate(2320.296875 0)"/>
     <use xlink:href="#DejaVuSans-4f" transform="translate(2381.828125 0)"/>
     <use xlink:href="#DejaVuSans-c" transform="translate(2409.609375 0)"/>
    </g>
   </g>
   <g id="legend_1">
    <g id="patch_7">
     <path d="M 364.94375 64.161562 
L 486.2 64.161562 
Q 488.2 64.161562 488.2 62.161562 
L 488.2 33.16 
Q 488.2 31.16 486.2 31.16 
L 364.94375 31.16 
Q 362.94375 31.16 362.94375 33.16 
L 362.94375 62.161562 
Q 362.94375 64.161562 364.94375 64.161562 
z
" style="fill: #ffffff; opacity: 0.8; stroke: #cccccc; stroke-linejoin: miter"/>
    </g>
    <g id="PathCollection_3">
     <g>
      <use xlink:href="#m5ec5d56177" x="376.94375" y="40.133437" style="fill: #1f77b4; stroke: #1f77b4"/>
     </g>
    </g>
    <g id="text_15">
     <!-- Posterior median -->
     <g transform="translate(394.94375 42.758437) scale(0.1 -0.1)">
      <defs>
       <path id="DejaVuSans-33" d="M 1259 4147 
L 1259 2394 
L 2053 2394 
Q 2494 2394 2734 2622 
Q 2975 2850 2975 3272 
Q 2975 3691 2734 3919 
Q 2494 4147 2053 4147 
L 1259 4147 
z
M 628 4666 
L 2053 4666 
Q 2838 4666 3239 4311 
Q 3641 3956 3641 3272 
Q 3641 2581 3239 2228 
Q 2838 1875 2053 1875 
L 1259 1875 
L 1259 0 
L 628 0 
L 628 4666 
z
" transform="scale(0.015625)"/>
      </defs>
      <use xlink:href="#DejaVuSans-33"/>
      <use xlink:href="#DejaVuSans-52" transform="translate(56.734375 0)"/>
      <use xlink:href="#DejaVuSans-56" transform="translate(117.921875 0)"/>
      <use xlink:href="#DejaVuSans-57" transform="translate(170.015625 0)"/>
      <use xlink:href="#DejaVuSans-48" transform="translate(209.21875 0)"/>
      <use xlink:href="#DejaVuSans-55" transform="translate(270.75 0)"/>
      <use xlink:href="#DejaVuSans-4c" transform="translate(311.859375 0)"/>
      <use xlink:href="#DejaVuSans-52" transform="translate(339.640625 0)"/>
      <use xlink:href="#DejaVuSans-55" transform="translate(400.828125 0)"/>
      <use xlink:href="#DejaVuSans-3" transform="translate(441.9375 0)"/>
      <use xlink:href="#DejaVuSans-50" transform="translate(473.71875 0)"/>
      <use xlink:href="#DejaVuSans-48" transform="translate(571.125 0)"/>
      <use xlink:href="#DejaVuSans-47" transform="translate(632.65625 0)"/>
      <use xlink:href="#DejaVuSans-4c" transform="translate(696.140625 0)"/>
      <use xlink:href="#DejaVuSans-44" transform="translate(723.921875 0)"/>
      <use xlink:href="#DejaVuSans-51" transform="translate(785.203125 0)"/>
     </g>
    </g>
    <g id="PathCollection_4">
     <g>
      <use xlink:href="#mc869d3e8a3" x="376.94375" y="55.134219" style="fill: #ff7f0e; stroke: #ff7f0e; stroke-width: 1.5"/>
     </g>
    </g>
    <g id="text_16">
     <!-- Fiducial flat LCDM -->
     <g transform="translate(394.94375 57.759219) scale(0.1 -0.1)">
      <defs>
       <path id="DejaVuSans-29" d="M 628 4666 
L 3309 4666 
L 3309 4134 
L 1259 4134 
L 1259 2759 
L 3109 2759 
L 3109 2228 
L 1259 2228 
L 1259 0 
L 628 0 
L 628 4666 
z
" transform="scale(0.015625)"/>
       <path id="DejaVuSans-58" d="M 544 1381 
L 544 3500 
L 1119 3500 
L 1119 1403 
Q 1119 906 1312 657 
Q 1506 409 1894 409 
Q 2359 409 2629 706 
Q 2900 1003 2900 1516 
L 2900 3500 
L 3475 3500 
L 3475 0 
L 2900 0 
L 2900 538 
Q 2691 219 2414 64 
Q 2138 -91 1772 -91 
Q 1169 -91 856 284 
Q 544 659 544 1381 
z
M 1991 3584 
L 1991 3584 
z
" transform="scale(0.015625)"/>
       <path id="DejaVuSans-13b0" d="M 1831 4863 
L 3431 4863 
L 3431 0 
L 2853 0 
L 2853 4384 
L 1825 4384 
Q 1516 4384 1395 4259 
Q 1275 4134 1275 3809 
L 1275 3500 
L 2222 3500 
L 2222 3053 
L 1275 3053 
L 1275 0 
L 697 0 
L 697 3053 
L 147 3053 
L 147 3500 
L 697 3500 
L 697 3744 
Q 697 4328 969 4595 
Q 1241 4863 1831 4863 
z
" transform="scale(0.015625)"/>
       <path id="DejaVuSans-2f" d="M 628 4666 
L 1259 4666 
L 1259 531 
L 3531 531 
L 3531 0 
L 628 0 
L 628 4666 
z
" transform="scale(0.015625)"/>
       <path id="DejaVuSans-26" d="M 4122 4306 
L 4122 3641 
Q 3803 3938 3442 4084 
Q 3081 4231 2675 4231 
Q 1875 4231 1450 3742 
Q 1025 3253 1025 2328 
Q 1025 1406 1450 917 
Q 1875 428 2675 428 
Q 3081 428 3442 575 
Q 3803 722 4122 1019 
L 4122 359 
Q 3791 134 3420 21 
Q 3050 -91 2638 -91 
Q 1578 -91 968 557 
Q 359 1206 359 2328 
Q 359 3453 968 4101 
Q 1578 4750 2638 4750 
Q 3056 4750 3426 4639 
Q 3797 4528 4122 4306 
z
" transform="scale(0.015625)"/>
       <path id="DejaVuSans-27" d="M 1259 4147 
L 1259 519 
L 2022 519 
Q 2988 519 3436 956 
Q 3884 1394 3884 2338 
Q 3884 3275 3436 3711 
Q 2988 4147 2022 4147 
L 1259 4147 
z
M 628 4666 
L 1925 4666 
Q 3281 4666 3915 4102 
Q 4550 3538 4550 2338 
Q 4550 1131 3912 565 
Q 3275 0 1925 0 
L 628 0 
L 628 4666 
z
" transform="scale(0.015625)"/>
       <path id="DejaVuSans-30" d="M 628 4666 
L 1569 4666 
L 2759 1491 
L 3956 4666 
L 4897 4666 
L 4897 0 
L 4281 0 
L 4281 4097 
L 3078 897 
L 2444 897 
L 1241 4097 
L 1241 0 
L 628 0 
L 628 4666 
z
" transform="scale(0.015625)"/>
      </defs>
      <use xlink:href="#DejaVuSans-29"/>
      <use xlink:href="#DejaVuSans-4c" transform="translate(50.234375 0)"/>
      <use xlink:href="#DejaVuSans-47" transform="translate(78.015625 0)"/>
      <use xlink:href="#DejaVuSans-58" transform="translate(141.5 0)"/>
      <use xlink:href="#DejaVuSans-46" transform="translate(204.875 0)"/>
      <use xlink:href="#DejaVuSans-4c" transform="translate(259.859375 0)"/>
      <use xlink:href="#DejaVuSans-44" transform="translate(287.640625 0)"/>
      <use xlink:href="#DejaVuSans-4f" transform="translate(348.921875 0)"/>
      <use xlink:href="#DejaVuSans-3" transform="translate(376.703125 0)"/>
      <use xlink:href="#DejaVuSans-13b0" transform="translate(408.484375 0)"/>
      <use xlink:href="#DejaVuSans-44" transform="translate(471.46875 0)"/>
      <use xlink:href="#DejaVuSans-57" transform="translate(532.75 0)"/>
      <use xlink:href="#DejaVuSans-3" transform="translate(571.953125 0)"/>
      <use xlink:href="#DejaVuSans-2f" transform="translate(603.734375 0)"/>
      <use xlink:href="#DejaVuSans-26" transform="translate(659.453125 0)"/>
      <use xlink:href="#DejaVuSans-27" transform="translate(729.28125 0)"/>
      <use xlink:href="#DejaVuSans-30" transform="translate(806.28125 0)"/>
     </g>
    </g>
   </g>
  </g>
 </g>
 <defs>
  <clipPath id="p4d5465210d">
   <rect x="53.722344" y="26.16" width="439.477656" height="363.717656"/>
  </clipPath>
 </defs>
</svg>
