<?xml version="1.0" encoding="utf-8" standalone="no"?>
<!DOCTYPE svg PUBLIC "-//W3C//DTD SVG 1.1//EN"
  "http://www.w3.org/Graphics/SVG/1.1/DTD/svg11.dtd">
<svg xmlns:xlink="http://www.w3.org/1999/xlink" width="604.8pt" height="381.6pt" viewBox="0 0 604.8 381.6" xmlns="http://www.w3.org/2000/svg" version="1.1">
 <metadata>
  <rdf:RDF xmlns:dc="http://purl.org/dc/elements/1.1/" xmlns:cc="http://creativecommons.org/ns#" xmlns:rdf="http://www.w3.org/1999/02/22-rdf-syntax-ns#">
   <cc:Work>
    <dc:type rdf:resource="http://purl.org/dc/dcmitype/StillImage"/>
    <dc:date>2026-09-05T06:31:21.091786</dc:date>
    <dc:format>image/svg+xml</dc:format>
    <dc:creator>
     <cc:Agent>
      <dc:title>Matplotlib v3.11.1, https://matplotlib.org/</dc:title>
     </cc:Agent>
    </dc:creator>
   </cc:Work>
  </rdf:RDF>
 </metadata>
 <defs>
  <style type="text/css">*{stroke-linejoin: round; stroke-linecap: butt}</style>
 </defs>
 <g id="figure_1">
  <g id="patch_1">
   <path d="M 0 381.6 
L 604.8 381.6 
L 604.8 0 
L 0 0 
z
" style="fill: #ffffff"/>
  </g>
  <g id="axes_1">
   <g id="patch_2">
    <path d="M 61.642344 339.477656 
L 594 339.477656 
L 594 26.16 
L 61.642344 26.16 
z
" style="fill: #ffffff"/>
   </g>
   <g id="FillBetweenPolyCollection_1">
    <path d="M 85.840419 40.401712 
L 85.840419 306.777184 
L 89.066829 307.171293 
L 92.293239 307.408887 
L 95.519649 307.590172 
L 98.746059 307.919682 
L 101.972469 308.151142 
L 105.198879 308.37004 
L 108.425289 308.618677 
L 111.651699 308.780369 
L 114.878109 308.969712 
L 118.104519 309.150341 
L 121.330929 309.517887 
L 124.557339 309.505014 
L 127.78375 310.022449 
L 131.01016 310.217454 
L 134.23657 310.663165 
L 137.46298 310.989198 
L 140.68939 311.559118 
L 143.9158 312.219281 
L 147.14221 312.671585 
L 150.36862 313.299838 
L 153.59503 313.953982 
L 156.82144 314.284879 
L 160.04785 314.429459 
L 163.27426 315.011572 
L 166.50067 315.985785 
L 169.72708 316.647568 
L 172.95349 316.943984 
L 176.1799 317.619173 
L 179.40631 318.086651 
L 182.63272 318.696647 
L 185.85913 319.063263 
L 189.08554 319.615137 
L 192.31195 319.944955 
L 195.53836 320.156484 
L 198.76477 320.514034 
L 201.99118 320.607442 
L 205.21759 320.622624 
L 208.444 320.808129 
L 211.670411 320.876239 
L 214.896821 321.038202 
L 218.123231 321.40678 
L 221.349641 321.505038 
L 224.576051 321.991656 
L 227.802461 322.025314 
L 231.028871 321.977871 
L 234.255281 322.24878 
L 237.481691 322.585 
L 240.708101 322.910778 
L 243.934511 323.367156 
L 247.160921 323.818396 
L 250.387331 323.888948 
L 253.613741 323.944095 
L 256.840151 324.185461 
L 260.066561 324.003604 
L 263.292971 324.0017 
L 266.519381 324.035036 
L 269.745791 324.410909 
L 272.972201 324.544857 
L 276.198611 324.633228 
L 279.425021 324.822848 
L 282.651431 325.109048 
L 285.877841 325.235945 
L 289.104251 325.062353 
L 292.330661 324.869133 
L 295.557071 324.254913 
L 298.783482 324.424298 
L 302.009892 324.172953 
L 305.236302 323.902521 
L 308.462712 323.563229 
L 311.689122 323.488815 
L 314.915532 323.729849 
L 318.141942 323.948009 
L 321.368352 324.143156 
L 324.594762 324.225155 
L 327.821172 323.713278 
L 331.047582 323.179252 
L 334.273992 322.618508 
L 337.500402 322.514377 
L 340.726812 322.452226 
L 343.953222 321.872816 
L 347.179632 321.610835 
L 350.406042 321.735792 
L 353.632452 321.683412 
L 356.858862 321.255026 
L 360.085272 320.745909 
L 363.311682 320.144222 
L 366.538092 319.835382 
L 369.764502 319.644149 
L 372.990912 319.592142 
L 376.217322 319.610055 
L 379.443732 319.621099 
L 382.670143 319.616179 
L 385.896553 319.595304 
L 389.122963 319.460905 
L 392.349373 318.903714 
L 395.575783 318.428234 
L 398.802193 318.018221 
L 402.028603 317.409566 
L 405.255013 316.580123 
L 408.481423 315.889799 
L 411.707833 315.635329 
L 414.934243 315.360181 
L 418.160653 315.046918 
L 421.387063 314.749954 
L 424.613473 314.122937 
L 427.839883 313.331473 
L 431.066293 312.333975 
L 434.292703 311.702779 
L 437.519113 311.094242 
L 440.745523 310.348607 
L 443.971933 309.600482 
L 447.198343 309.347715 
L 450.424753 309.128182 
L 453.651163 308.410986 
L 456.877573 307.711104 
L 460.103983 307.43799 
L 463.330393 306.718606 
L 466.556804 306.221464 
L 469.783214 305.71655 
L 473.009624 305.200657 
L 476.236034 304.7047 
L 479.462444 304.298858 
L 482.688854 303.877297 
L 485.915264 303.34322 
L 489.141674 302.542807 
L 492.368084 301.907101 
L 495.594494 301.325505 
L 498.820904 300.927668 
L 502.047314 300.517859 
L 505.273724 299.696129 
L 508.500134 298.891804 
L 511.726544 298.260528 
L 514.952954 297.605239 
L 518.179364 297.001776 
L 521.405774 296.414736 
L 524.632184 295.795068 
L 527.858594 295.173256 
L 531.085004 294.795135 
L 534.311414 294.276381 
L 537.537824 293.881681 
L 540.764234 293.559585 
L 543.990644 293.232517 
L 547.217054 292.869538 
L 550.443464 292.533555 
L 553.669875 292.192211 
L 556.896285 291.84477 
L 560.122695 291.303018 
L 563.349105 290.888269 
L 566.575515 290.406327 
L 569.801925 289.933857 
L 569.801925 160.473955 
L 569.801925 160.473955 
L 566.575515 162.352567 
L 563.349105 164.181257 
L 560.122695 165.961238 
L 556.896285 167.693685 
L 553.669875 169.379737 
L 550.443464 171.020501 
L 547.217054 172.617047 
L 543.990644 174.171019 
L 540.764234 175.685838 
L 537.537824 177.159427 
L 534.311414 178.592736 
L 531.085004 179.986682 
L 527.858594 181.342158 
L 524.632184 182.660027 
L 521.405774 183.941126 
L 518.179364 185.186265 
L 514.952954 186.448554 
L 511.726544 187.742744 
L 508.500134 188.99949 
L 505.273724 190.21965 
L 502.047314 191.404059 
L 498.820904 192.55352 
L 495.594494 193.668813 
L 492.368084 194.750692 
L 489.141674 195.799885 
L 485.915264 196.817096 
L 482.688854 197.692849 
L 479.462444 198.450662 
L 476.236034 199.179061 
L 473.009624 199.879392 
L 469.783214 200.55314 
L 466.556804 201.198885 
L 463.330393 201.840702 
L 460.103983 202.650842 
L 456.877573 203.334156 
L 453.651163 203.858021 
L 450.424753 204.400914 
L 447.198343 204.873563 
L 443.971933 205.507911 
L 440.745523 206.15755 
L 437.519113 206.808415 
L 434.292703 207.168239 
L 431.066293 207.609963 
L 427.839883 208.346168 
L 424.613473 209.060428 
L 421.387063 209.157992 
L 418.160653 209.293256 
L 414.934243 209.688633 
L 411.707833 210.063733 
L 408.481423 210.418779 
L 405.255013 210.75695 
L 402.028603 211.209556 
L 398.802193 211.515602 
L 395.575783 211.236028 
L 392.349373 211.44266 
L 389.122963 211.411081 
L 385.896553 211.287965 
L 382.670143 211.131902 
L 379.443732 210.855381 
L 376.217322 210.902544 
L 372.990912 210.39602 
L 369.764502 209.978237 
L 366.538092 209.627521 
L 363.311682 209.65114 
L 360.085272 209.22924 
L 356.858862 208.65325 
L 353.632452 208.873802 
L 350.406042 208.665123 
L 347.179632 208.434735 
L 343.953222 208.128821 
L 340.726812 207.950167 
L 337.500402 207.889729 
L 334.273992 207.355822 
L 331.047582 206.754953 
L 327.821172 206.126776 
L 324.594762 205.685525 
L 321.368352 205.308183 
L 318.141942 204.802131 
L 314.915532 204.294756 
L 311.689122 203.718534 
L 308.462712 202.780777 
L 305.236302 201.767608 
L 302.009892 200.750826 
L 298.783482 199.713156 
L 295.557071 198.651255 
L 292.330661 197.564604 
L 289.104251 196.452673 
L 285.877841 195.314915 
L 282.651431 194.150772 
L 279.425021 193.024562 
L 276.198611 191.768751 
L 272.972201 190.49585 
L 269.745791 189.219139 
L 266.519381 188.117294 
L 263.292971 187.041172 
L 260.066561 185.927695 
L 256.840151 184.776325 
L 253.613741 183.586518 
L 250.387331 182.357063 
L 247.160921 181.087102 
L 243.934511 179.779686 
L 240.708101 178.429863 
L 237.481691 177.00645 
L 234.255281 175.433575 
L 231.028871 173.824638 
L 227.802461 172.178814 
L 224.576051 170.495259 
L 221.349641 168.773103 
L 218.123231 167.011457 
L 214.896821 165.209406 
L 211.670411 163.366013 
L 208.444 161.480313 
L 205.21759 159.551318 
L 201.99118 157.578014 
L 198.76477 155.559359 
L 195.53836 153.494284 
L 192.31195 151.381692 
L 189.08554 149.220455 
L 185.85913 147.009418 
L 182.63272 144.747394 
L 179.40631 142.433162 
L 176.1799 140.066401 
L 172.95349 137.649806 
L 169.72708 135.177805 
L 166.50067 132.466251 
L 163.27426 129.632143 
L 160.04785 126.71494 
L 156.82144 123.746648 
L 153.59503 121.081337 
L 150.36862 118.358887 
L 147.14221 115.183615 
L 143.9158 111.91414 
L 140.68939 108.550369 
L 137.46298 105.089599 
L 134.23657 101.529036 
L 131.01016 97.865793 
L 127.78375 94.096887 
L 124.557339 90.231494 
L 121.330929 86.256923 
L 118.104519 82.168186 
L 114.878109 77.961925 
L 111.651699 74.060178 
L 108.425289 70.16936 
L 105.198879 66.189674 
L 101.972469 62.124705 
L 98.746059 57.974021 
L 95.519649 53.728715 
L 92.293239 49.386481 
L 89.066829 44.944956 
L 85.840419 40.401712 
z
" clip-path="url(#p06ceb7be9b)" style="fill: #1f77b4; fill-opacity: 0.16"/>
   </g>
   <g id="FillBetweenPolyCollection_2">
    <path d="M 85.840419 198.35701 
L 85.840419 291.312211 
L 89.066829 291.483838 
L 92.293239 291.793983 
L 95.519649 292.026561 
L 98.746059 292.295768 
L 101.972469 292.379405 
L 105.198879 292.596457 
L 108.425289 292.806274 
L 111.651699 292.931602 
L 114.878109 293.129047 
L 118.104519 293.385458 
L 121.330929 293.429304 
L 124.557339 293.537077 
L 127.78375 293.602765 
L 131.01016 293.774912 
L 134.23657 293.974074 
L 137.46298 294.135986 
L 140.68939 294.243714 
L 143.9158 294.472871 
L 147.14221 294.595955 
L 150.36862 294.662639 
L 153.59503 294.784123 
L 156.82144 294.869995 
L 160.04785 295.04437 
L 163.27426 295.280012 
L 166.50067 295.280166 
L 169.72708 295.585536 
L 172.95349 295.700644 
L 176.1799 296.347795 
L 179.40631 296.621568 
L 182.63272 297.088755 
L 185.85913 297.439848 
L 189.08554 297.636993 
L 192.31195 297.662769 
L 195.53836 297.841331 
L 198.76477 298.293712 
L 201.99118 298.722232 
L 205.21759 299.136409 
L 208.444 299.589743 
L 211.670411 300.075731 
L 214.896821 300.676086 
L 218.123231 300.65136 
L 221.349641 300.891699 
L 224.576051 301.222607 
L 227.802461 301.576839 
L 231.028871 301.833981 
L 234.255281 302.055489 
L 237.481691 302.261753 
L 240.708101 302.476339 
L 243.934511 302.744935 
L 247.160921 303.097263 
L 250.387331 303.447505 
L 253.613741 303.788233 
L 256.840151 304.109696 
L 260.066561 304.316097 
L 263.292971 304.351347 
L 266.519381 304.458943 
L 269.745791 304.426648 
L 272.972201 304.505242 
L 276.198611 304.633046 
L 279.425021 304.835393 
L 282.651431 304.89506 
L 285.877841 304.966269 
L 289.104251 305.072776 
L 292.330661 305.132972 
L 295.557071 304.98287 
L 298.783482 304.939738 
L 302.009892 305.034381 
L 305.236302 304.879512 
L 308.462712 304.864713 
L 311.689122 304.71218 
L 314.915532 304.438638 
L 318.141942 304.127562 
L 321.368352 303.985704 
L 324.594762 303.975459 
L 327.821172 303.799676 
L 331.047582 303.760259 
L 334.273992 303.723078 
L 337.500402 303.714628 
L 340.726812 303.693532 
L 343.953222 303.603684 
L 347.179632 303.637923 
L 350.406042 303.264698 
L 353.632452 302.954068 
L 356.858862 302.97011 
L 360.085272 302.67407 
L 363.311682 302.593067 
L 366.538092 302.485977 
L 369.764502 302.406584 
L 372.990912 301.995876 
L 376.217322 301.880996 
L 379.443732 301.722058 
L 382.670143 301.638429 
L 385.896553 301.506326 
L 389.122963 301.339785 
L 392.349373 301.186159 
L 395.575783 300.695263 
L 398.802193 300.597257 
L 402.028603 300.113189 
L 405.255013 299.802095 
L 408.481423 299.374403 
L 411.707833 299.072315 
L 414.934243 298.809665 
L 418.160653 298.182973 
L 421.387063 297.926122 
L 424.613473 297.514746 
L 427.839883 297.340722 
L 431.066293 296.739607 
L 434.292703 296.124528 
L 437.519113 295.827944 
L 440.745523 295.538443 
L 443.971933 295.1606 
L 447.198343 294.472104 
L 450.424753 294.338516 
L 453.651163 293.838238 
L 456.877573 293.441121 
L 460.103983 293.085192 
L 463.330393 292.756663 
L 466.556804 292.438253 
L 469.783214 291.632304 
L 473.009624 291.416941 
L 476.236034 291.202549 
L 479.462444 290.770031 
L 482.688854 290.484563 
L 485.915264 290.216648 
L 489.141674 289.860976 
L 492.368084 289.57322 
L 495.594494 289.40287 
L 498.820904 289.065553 
L 502.047314 288.643848 
L 505.273724 288.210298 
L 508.500134 288.023468 
L 511.726544 287.523074 
L 514.952954 287.385122 
L 518.179364 286.948263 
L 521.405774 286.584545 
L 524.632184 286.507962 
L 527.858594 286.248927 
L 531.085004 286.028345 
L 534.311414 285.740407 
L 537.537824 285.568817 
L 540.764234 285.45769 
L 543.990644 285.320468 
L 547.217054 285.101288 
L 550.443464 284.867269 
L 553.669875 284.580358 
L 556.896285 284.274468 
L 560.122695 283.770069 
L 563.349105 283.275242 
L 566.575515 282.761248 
L 569.801925 282.173194 
L 569.801925 233.000309 
L 569.801925 233.000309 
L 566.575515 233.082131 
L 563.349105 233.155308 
L 560.122695 233.219871 
L 556.896285 233.370006 
L 553.669875 233.602815 
L 550.443464 233.828886 
L 547.217054 234.058858 
L 543.990644 234.243223 
L 540.764234 234.44535 
L 537.537824 234.612022 
L 534.311414 234.812504 
L 531.085004 234.973523 
L 527.858594 235.155414 
L 524.632184 235.279457 
L 521.405774 235.442655 
L 518.179364 235.624683 
L 514.952954 235.792072 
L 511.726544 235.938366 
L 508.500134 236.047921 
L 505.273724 236.207911 
L 502.047314 236.287609 
L 498.820904 236.159112 
L 495.594494 235.900983 
L 492.368084 235.630074 
L 489.141674 235.631063 
L 485.915264 235.703815 
L 482.688854 235.734798 
L 479.462444 235.599414 
L 476.236034 235.545285 
L 473.009624 235.658968 
L 469.783214 235.897379 
L 466.556804 235.879604 
L 463.330393 235.89896 
L 460.103983 235.958264 
L 456.877573 236.008222 
L 453.651163 235.774985 
L 450.424753 235.631466 
L 447.198343 235.801278 
L 443.971933 235.650095 
L 440.745523 235.80847 
L 437.519113 235.663857 
L 434.292703 235.497221 
L 431.066293 235.560277 
L 427.839883 235.470341 
L 424.613473 235.199476 
L 421.387063 235.131276 
L 418.160653 235.020764 
L 414.934243 234.766595 
L 411.707833 234.594261 
L 408.481423 234.686897 
L 405.255013 234.704167 
L 402.028603 234.652447 
L 398.802193 234.544621 
L 395.575783 234.454576 
L 392.349373 234.562749 
L 389.122963 234.376407 
L 385.896553 234.496223 
L 382.670143 234.604021 
L 379.443732 234.276878 
L 376.217322 234.169161 
L 372.990912 234.151385 
L 369.764502 234.126786 
L 366.538092 234.134933 
L 363.311682 234.091691 
L 360.085272 234.042868 
L 356.858862 233.978445 
L 353.632452 233.629327 
L 350.406042 233.479172 
L 347.179632 233.256804 
L 343.953222 232.922534 
L 340.726812 232.529086 
L 337.500402 232.525441 
L 334.273992 232.578318 
L 331.047582 232.57432 
L 327.821172 232.489567 
L 324.594762 232.388315 
L 321.368352 232.234335 
L 318.141942 232.056462 
L 314.915532 231.764397 
L 311.689122 231.548669 
L 308.462712 231.468325 
L 305.236302 231.410968 
L 302.009892 231.365499 
L 298.783482 231.283787 
L 295.557071 230.888276 
L 292.330661 230.699089 
L 289.104251 230.349744 
L 285.877841 229.916814 
L 282.651431 229.853784 
L 279.425021 229.798539 
L 276.198611 229.43902 
L 272.972201 229.044751 
L 269.745791 228.816287 
L 266.519381 228.564541 
L 263.292971 228.315945 
L 260.066561 227.990621 
L 256.840151 227.707871 
L 253.613741 227.420064 
L 250.387331 227.03507 
L 247.160921 226.960657 
L 243.934511 226.650349 
L 240.708101 226.4332 
L 237.481691 226.090991 
L 234.255281 225.688981 
L 231.028871 225.275711 
L 227.802461 224.851016 
L 224.576051 224.430947 
L 221.349641 224.097381 
L 218.123231 223.623678 
L 214.896821 223.181834 
L 211.670411 222.631973 
L 208.444 222.331249 
L 205.21759 222.043845 
L 201.99118 221.754487 
L 198.76477 221.337977 
L 195.53836 220.876775 
L 192.31195 220.406756 
L 189.08554 219.925852 
L 185.85913 219.433908 
L 182.63272 218.989747 
L 179.40631 218.557167 
L 176.1799 218.109458 
L 172.95349 217.646413 
L 169.72708 217.167817 
L 166.50067 216.673448 
L 163.27426 216.163075 
L 160.04785 215.636459 
L 156.82144 215.081754 
L 153.59503 214.521118 
L 150.36862 213.94457 
L 147.14221 213.350934 
L 143.9158 212.739934 
L 140.68939 212.111281 
L 137.46298 211.464681 
L 134.23657 210.799829 
L 131.01016 210.116409 
L 127.78375 209.414098 
L 124.557339 208.692561 
L 121.330929 207.951455 
L 118.104519 207.184268 
L 114.878109 206.397169 
L 111.651699 205.590379 
L 108.425289 204.763535 
L 105.198879 203.916261 
L 101.972469 203.048169 
L 98.746059 202.158863 
L 95.519649 201.246555 
L 92.293239 200.307457 
L 89.066829 199.344435 
L 85.840419 198.35701 
z
" clip-path="url(#p06ceb7be9b)" style="fill: #ff7f0e; fill-opacity: 0.32"/>
   </g>
   <g id="matplotlib.axis_1">
    <g id="xtick_1">
     <g id="line2d_1">
      <defs>
       <path id="m771032051b" d="M 0 0 
L 0 3.5 
" style="stroke: #000000; stroke-width: 0.8"/>
      </defs>
      <g>
       <use xlink:href="#m771032051b" x="85.840419" y="339.477656" style="stroke: #000000; stroke-width: 0.8"/>
      </g>
     </g>
     <g id="text_1">
      <!-- 0.4 -->
      <g transform="translate(77.888857 354.075312) scale(0.1 -0.1)">
       <defs>
        <path id="DejaVuSans-13" d="M 2034 4250 
Q 1547 4250 1301 3770 
Q 1056 3291 1056 2328 
Q 1056 1369 1301 889 
Q 1547 409 2034 409 
Q 2525 409 2770 889 
Q 3016 1369 3016 2328 
Q 3016 3291 2770 3770 
Q 2525 4250 2034 4250 
z
M 2034 4750 
Q 2819 4750 3233 4129 
Q 3647 3509 3647 2328 
Q 3647 1150 3233 529 
Q 2819 -91 2034 -91 
Q 1250 -91 836 529 
Q 422 1150 422 2328 
Q 422 3509 836 4129 
Q 1250 4750 2034 4750 
z
" transform="scale(0.015625)"/>
        <path id="DejaVuSans-11" d="M 684 794 
L 1344 794 
L 1344 0 
L 684 0 
L 684 794 
z
" transform="scale(0.015625)"/>
        <path id="DejaVuSans-17" d="M 2419 4116 
L 825 1625 
L 2419 1625 
L 2419 4116 
z
M 2253 4666 
L 3047 4666 
L 3047 1625 
L 3713 1625 
L 3713 1100 
L 3047 1100 
L 3047 0 
L 2419 0 
L 2419 1100 
L 313 1100 
L 313 1709 
L 2253 4666 
z
" transform="scale(0.015625)"/>
       </defs>
       <use xlink:href="#DejaVuSans-13"/>
       <use xlink:href="#DejaVuSans-11" transform="translate(63.625 0)"/>
       <use xlink:href="#DejaVuSans-17" transform="translate(95.40625 0)"/>
      </g>
     </g>
    </g>
    <g id="xtick_2">
     <g id="line2d_2">
      <g>
       <use xlink:href="#m771032051b" x="154.977777" y="339.477656" style="stroke: #000000; stroke-width: 0.8"/>
      </g>
     </g>
     <g id="text_2">
      <!-- 0.5 -->
      <g transform="translate(147.026214 354.075312) scale(0.1 -0.1)">
       <defs>
        <path id="DejaVuSans-18" d="M 691 4666 
L 3169 4666 
L 3169 4134 
L 1269 4134 
L 1269 2991 
Q 1406 3038 1543 3061 
Q 1681 3084 1819 3084 
Q 2600 3084 3056 2656 
Q 3513 2228 3513 1497 
Q 3513 744 3044 326 
Q 2575 -91 1722 -91 
Q 1428 -91 1123 -41 
Q 819 9 494 109 
L 494 744 
Q 775 591 1075 516 
Q 1375 441 1709 441 
Q 2250 441 2565 725 
Q 2881 1009 2881 1497 
Q 2881 1984 2565 2268 
Q 2250 2553 1709 2553 
Q 1456 2553 1204 2497 
Q 953 2441 691 2322 
L 691 4666 
z
" transform="scale(0.015625)"/>
       </defs>
       <use xlink:href="#DejaVuSans-13"/>
       <use xlink:href="#DejaVuSans-11" transform="translate(63.625 0)"/>
       <use xlink:href="#DejaVuSans-18" transform="translate(95.40625 0)"/>
      </g>
     </g>
    </g>
    <g id="xtick_3">
     <g id="line2d_3">
      <g>
       <use xlink:href="#m771032051b" x="224.115135" y="339.477656" style="stroke: #000000; stroke-width: 0.8"/>
      </g>
     </g>
     <g id="text_3">
      <!-- 0.6 -->
      <g transform="translate(216.163572 354.075312) scale(0.1 -0.1)">
       <defs>
        <path id="DejaVuSans-19" d="M 2113 2584 
Q 1688 2584 1439 2293 
Q 1191 2003 1191 1497 
Q 1191 994 1439 701 
Q 1688 409 2113 409 
Q 2538 409 2786 701 
Q 3034 994 3034 1497 
Q 3034 2003 2786 2293 
Q 2538 2584 2113 2584 
z
M 3366 4563 
L 3366 3988 
Q 3128 4100 2886 4159 
Q 2644 4219 2406 4219 
Q 1781 4219 1451 3797 
Q 1122 3375 1075 2522 
Q 1259 2794 1537 2939 
Q 1816 3084 2150 3084 
Q 2853 3084 3261 2657 
Q 3669 2231 3669 1497 
Q 3669 778 3244 343 
Q 2819 -91 2113 -91 
Q 1303 -91 875 529 
Q 447 1150 447 2328 
Q 447 3434 972 4092 
Q 1497 4750 2381 4750 
Q 2619 4750 2861 4703 
Q 3103 4656 3366 4563 
z
" transform="scale(0.015625)"/>
       </defs>
       <use xlink:href="#DejaVuSans-13"/>
       <use xlink:href="#DejaVuSans-11" transform="translate(63.625 0)"/>
       <use xlink:href="#DejaVuSans-19" transform="translate(95.40625 0)"/>
      </g>
     </g>
    </g>
    <g id="xtick_4">
     <g id="line2d_4">
      <g>
       <use xlink:href="#m771032051b" x="293.252493" y="339.477656" style="stroke: #000000; stroke-width: 0.8"/>
      </g>
     </g>
     <g id="text_4">
      <!-- 0.7 -->
      <g transform="translate(285.30093 354.075312) scale(0.1 -0.1)">
       <defs>
        <path id="DejaVuSans-1a" d="M 525 4666 
L 3525 4666 
L 3525 4397 
L 1831 0 
L 1172 0 
L 2766 4134 
L 525 4134 
L 525 4666 
z
" transform="scale(0.015625)"/>
       </defs>
       <use xlink:href="#DejaVuSans-13"/>
       <use xlink:href="#DejaVuSans-11" transform="translate(63.625 0)"/>
       <use xlink:href="#DejaVuSans-1a" transform="translate(95.40625 0)"/>
      </g>
     </g>
    </g>
    <g id="xtick_5">
     <g id="line2d_5">
      <g>
       <use xlink:href="#m771032051b" x="362.389851" y="339.477656" style="stroke: #000000; stroke-width: 0.8"/>
      </g>
     </g>
     <g id="text_5">
      <!-- 0.8 -->
      <g transform="translate(354.438288 354.075312) scale(0.1 -0.1)">
       <defs>
        <path id="DejaVuSans-1b" d="M 2034 2216 
Q 1584 2216 1326 1975 
Q 1069 1734 1069 1313 
Q 1069 891 1326 650 
Q 1584 409 2034 409 
Q 2484 409 2743 651 
Q 3003 894 3003 1313 
Q 3003 1734 2745 1975 
Q 2488 2216 2034 2216 
z
M 1403 2484 
Q 997 2584 770 2862 
Q 544 3141 544 3541 
Q 544 4100 942 4425 
Q 1341 4750 2034 4750 
Q 2731 4750 3128 4425 
Q 3525 4100 3525 3541 
Q 3525 3141 3298 2862 
Q 3072 2584 2669 2484 
Q 3125 2378 3379 2068 
Q 3634 1759 3634 1313 
Q 3634 634 3220 271 
Q 2806 -91 2034 -91 
Q 1263 -91 848 271 
Q 434 634 434 1313 
Q 434 1759 690 2068 
Q 947 2378 1403 2484 
z
M 1172 3481 
Q 1172 3119 1398 2916 
Q 1625 2713 2034 2713 
Q 2441 2713 2670 2916 
Q 2900 3119 2900 3481 
Q 2900 3844 2670 4047 
Q 2441 4250 2034 4250 
Q 1625 4250 1398 4047 
Q 1172 3844 1172 3481 
z
" transform="scale(0.015625)"/>
       </defs>
       <use xlink:href="#DejaVuSans-13"/>
       <use xlink:href="#DejaVuSans-11" transform="translate(63.625 0)"/>
       <use xlink:href="#DejaVuSans-1b" transform="translate(95.40625 0)"/>
      </g>
     </g>
    </g>
    <g id="xtick_6">
     <g id="line2d_6">
      <g>
       <use xlink:href="#m771032051b" x="431.527209" y="339.477656" style="stroke: #000000; stroke-width: 0.8"/>
      </g>
     </g>
     <g id="text_6">
      <!-- 0.9 -->
      <g transform="translate(423.575646 354.075312) scale(0.1 -0.1)">
       <defs>
        <path id="DejaVuSans-1c" d="M 703 97 
L 703 672 
Q 941 559 1184 500 
Q 1428 441 1663 441 
Q 2288 441 2617 861 
Q 2947 1281 2994 2138 
Q 2813 1869 2534 1725 
Q 2256 1581 1919 1581 
Q 1219 1581 811 2004 
Q 403 2428 403 3163 
Q 403 3881 828 4315 
Q 1253 4750 1959 4750 
Q 2769 4750 3195 4129 
Q 3622 3509 3622 2328 
Q 3622 1225 3098 567 
Q 2575 -91 1691 -91 
Q 1453 -91 1209 -44 
Q 966 3 703 97 
z
M 1959 2075 
Q 2384 2075 2632 2365 
Q 2881 2656 2881 3163 
Q 2881 3666 2632 3958 
Q 2384 4250 1959 4250 
Q 1534 4250 1286 3958 
Q 1038 3666 1038 3163 
Q 1038 2656 1286 2365 
Q 1534 2075 1959 2075 
z
" transform="scale(0.015625)"/>
       </defs>
       <use xlink:href="#DejaVuSans-13"/>
       <use xlink:href="#DejaVuSans-11" transform="translate(63.625 0)"/>
       <use xlink:href="#DejaVuSans-1c" transform="translate(95.40625 0)"/>
      </g>
     </g>
    </g>
    <g id="xtick_7">
     <g id="line2d_7">
      <g>
       <use xlink:href="#m771032051b" x="500.664567" y="339.477656" style="stroke: #000000; stroke-width: 0.8"/>
      </g>
     </g>
     <g id="text_7">
      <!-- 1.0 -->
      <g transform="translate(492.713004 354.075312) scale(0.1 -0.1)">
       <defs>
        <path id="DejaVuSans-14" d="M 794 531 
L 1825 531 
L 1825 4091 
L 703 3866 
L 703 4441 
L 1819 4666 
L 2450 4666 
L 2450 531 
L 3481 531 
L 3481 0 
L 794 0 
L 794 531 
z
" transform="scale(0.015625)"/>
       </defs>
       <use xlink:href="#DejaVuSans-14"/>
       <use xlink:href="#DejaVuSans-11" transform="translate(63.625 0)"/>
       <use xlink:href="#DejaVuSans-13" transform="translate(95.40625 0)"/>
      </g>
     </g>
    </g>
    <g id="xtick_8">
     <g id="line2d_8">
      <g>
       <use xlink:href="#m771032051b" x="569.801925" y="339.477656" style="stroke: #000000; stroke-width: 0.8"/>
      </g>
     </g>
     <g id="text_8">
      <!-- 1.1 -->
      <g transform="translate(561.850362 354.075312) scale(0.1 -0.1)">
       <use xlink:href="#DejaVuSans-14"/>
       <use xlink:href="#DejaVuSans-11" transform="translate(63.625 0)"/>
       <use xlink:href="#DejaVuSans-14" transform="translate(95.40625 0)"/>
      </g>
     </g>
    </g>
    <g id="text_9">
     <!-- Redshift z -->
     <g transform="translate(303.311797 368.076094) scale(0.1 -0.1)">
      <defs>
       <path id="DejaVuSans-35" d="M 2841 2188 
Q 3044 2119 3236 1894 
Q 3428 1669 3622 1275 
L 4263 0 
L 3584 0 
L 2988 1197 
Q 2756 1666 2539 1819 
Q 2322 1972 1947 1972 
L 1259 1972 
L 1259 0 
L 628 0 
L 628 4666 
L 2053 4666 
Q 2853 4666 3247 4331 
Q 3641 3997 3641 3322 
Q 3641 2881 3436 2590 
Q 3231 2300 2841 2188 
z
M 1259 4147 
L 1259 2491 
L 2053 2491 
Q 2509 2491 2742 2702 
Q 2975 2913 2975 3322 
Q 2975 3731 2742 3939 
Q 2509 4147 2053 4147 
L 1259 4147 
z
" transform="scale(0.015625)"/>
       <path id="DejaVuSans-48" d="M 3597 1894 
L 3597 1613 
L 953 1613 
Q 991 1019 1311 708 
Q 1631 397 2203 397 
Q 2534 397 2845 478 
Q 3156 559 3463 722 
L 3463 178 
Q 3153 47 2828 -22 
Q 2503 -91 2169 -91 
Q 1331 -91 842 396 
Q 353 884 353 1716 
Q 353 2575 817 3079 
Q 1281 3584 2069 3584 
Q 2775 3584 3186 3129 
Q 3597 2675 3597 1894 
z
M 3022 2063 
Q 3016 2534 2758 2815 
Q 2500 3097 2075 3097 
Q 1594 3097 1305 2825 
Q 1016 2553 972 2059 
L 3022 2063 
z
" transform="scale(0.015625)"/>
       <path id="DejaVuSans-47" d="M 2906 2969 
L 2906 4863 
L 3481 4863 
L 3481 0 
L 2906 0 
L 2906 525 
Q 2725 213 2448 61 
Q 2172 -91 1784 -91 
Q 1150 -91 751 415 
Q 353 922 353 1747 
Q 353 2572 751 3078 
Q 1150 3584 1784 3584 
Q 2172 3584 2448 3432 
Q 2725 3281 2906 2969 
z
M 947 1747 
Q 947 1113 1208 752 
Q 1469 391 1925 391 
Q 2381 391 2643 752 
Q 2906 1113 2906 1747 
Q 2906 2381 2643 2742 
Q 2381 3103 1925 3103 
Q 1469 3103 1208 2742 
Q 947 2381 947 1747 
z
" transform="scale(0.015625)"/>
       <path id="DejaVuSans-56" d="M 2834 3397 
L 2834 2853 
Q 2591 2978 2328 3040 
Q 2066 3103 1784 3103 
Q 1356 3103 1142 2972 
Q 928 2841 928 2578 
Q 928 2378 1081 2264 
Q 1234 2150 1697 2047 
L 1894 2003 
Q 2506 1872 2764 1633 
Q 3022 1394 3022 966 
Q 3022 478 2636 193 
Q 2250 -91 1575 -91 
Q 1294 -91 989 -36 
Q 684 19 347 128 
L 347 722 
Q 666 556 975 473 
Q 1284 391 1588 391 
Q 1994 391 2212 530 
Q 2431 669 2431 922 
Q 2431 1156 2273 1281 
Q 2116 1406 1581 1522 
L 1381 1569 
Q 847 1681 609 1914 
Q 372 2147 372 2553 
Q 372 3047 722 3315 
Q 1072 3584 1716 3584 
Q 2034 3584 2315 3537 
Q 2597 3491 2834 3397 
z
" transform="scale(0.015625)"/>
       <path id="DejaVuSans-4b" d="M 3513 2113 
L 3513 0 
L 2938 0 
L 2938 2094 
Q 2938 2591 2744 2837 
Q 2550 3084 2163 3084 
Q 1697 3084 1428 2787 
Q 1159 2491 1159 1978 
L 1159 0 
L 581 0 
L 581 4863 
L 1159 4863 
L 1159 2956 
Q 1366 3272 1645 3428 
Q 1925 3584 2291 3584 
Q 2894 3584 3203 3211 
Q 3513 2838 3513 2113 
z
" transform="scale(0.015625)"/>
       <path id="DejaVuSans-4c" d="M 603 3500 
L 1178 3500 
L 1178 0 
L 603 0 
L 603 3500 
z
M 603 4863 
L 1178 4863 
L 1178 4134 
L 603 4134 
L 603 4863 
z
" transform="scale(0.015625)"/>
       <path id="DejaVuSans-49" d="M 2375 4863 
L 2375 4384 
L 1825 4384 
Q 1516 4384 1395 4259 
Q 1275 4134 1275 3809 
L 1275 3500 
L 2222 3500 
L 2222 3053 
L 1275 3053 
L 1275 0 
L 697 0 
L 697 3053 
L 147 3053 
L 147 3500 
L 697 3500 
L 697 3744 
Q 697 4328 969 4595 
Q 1241 4863 1831 4863 
L 2375 4863 
z
" transform="scale(0.015625)"/>
       <path id="DejaVuSans-57" d="M 1172 4494 
L 1172 3500 
L 2356 3500 
L 2356 3053 
L 1172 3053 
L 1172 1153 
Q 1172 725 1289 603 
Q 1406 481 1766 481 
L 2356 481 
L 2356 0 
L 1766 0 
Q 1100 0 847 248 
Q 594 497 594 1153 
L 594 3053 
L 172 3053 
L 172 3500 
L 594 3500 
L 594 4494 
L 1172 4494 
z
" transform="scale(0.015625)"/>
       <path id="DejaVuSans-3" transform="scale(0.015625)"/>
       <path id="DejaVuSans-5d" d="M 353 3500 
L 3084 3500 
L 3084 2975 
L 922 459 
L 3084 459 
L 3084 0 
L 275 0 
L 275 525 
L 2438 3041 
L 353 3041 
L 353 3500 
z
" transform="scale(0.015625)"/>
      </defs>
      <use xlink:href="#DejaVuSans-35"/>
      <use xlink:href="#DejaVuSans-48" transform="translate(65 0)"/>
      <use xlink:href="#DejaVuSans-47" transform="translate(126.53125 0)"/>
      <use xlink:href="#DejaVuSans-56" transform="translate(190.015625 0)"/>
      <use xlink:href="#DejaVuSans-4b" transform="translate(242.109375 0)"/>
      <use xlink:href="#DejaVuSans-4c" transform="translate(305.484375 0)"/>
      <use xlink:href="#DejaVuSans-49" transform="translate(333.265625 0)"/>
      <use xlink:href="#DejaVuSans-57" transform="translate(366.71875 0)"/>
      <use xlink:href="#DejaVuSans-3" transform="translate(405.921875 0)"/>
      <use xlink:href="#DejaVuSans-5d" transform="translate(437.703125 0)"/>
     </g>
    </g>
   </g>
   <g id="matplotlib.axis_2">
    <g id="ytick_1">
     <g id="line2d_9">
      <defs>
       <path id="m3a1d01266e" d="M 0 0 
L -3.5 0 
" style="stroke: #000000; stroke-width: 0.8"/>
      </defs>
      <g>
       <use xlink:href="#m3a1d01266e" x="61.642344" y="313.33723" style="stroke: #000000; stroke-width: 0.8"/>
      </g>
     </g>
     <g id="text_10">
      <!-- −100 -->
      <g transform="translate(27.175156 317.136058) scale(0.1 -0.1)">
       <defs>
        <path id="DejaVuSans-c9c" d="M 678 2272 
L 4684 2272 
L 4684 1741 
L 678 1741 
L 678 2272 
z
" transform="scale(0.015625)"/>
       </defs>
       <use xlink:href="#DejaVuSans-c9c"/>
       <use xlink:href="#DejaVuSans-14" transform="translate(83.796875 0)"/>
       <use xlink:href="#DejaVuSans-13" transform="translate(147.421875 0)"/>
       <use xlink:href="#DejaVuSans-13" transform="translate(211.046875 0)"/>
      </g>
     </g>
    </g>
    <g id="ytick_2">
     <g id="line2d_10">
      <g>
       <use xlink:href="#m3a1d01266e" x="61.642344" y="266.8072" style="stroke: #000000; stroke-width: 0.8"/>
      </g>
     </g>
     <g id="text_11">
      <!-- 0 -->
      <g transform="translate(48.279844 270.606028) scale(0.1 -0.1)">
       <use xlink:href="#DejaVuSans-13"/>
      </g>
     </g>
    </g>
    <g id="ytick_3">
     <g id="line2d_11">
      <g>
       <use xlink:href="#m3a1d01266e" x="61.642344" y="220.27717" style="stroke: #000000; stroke-width: 0.8"/>
      </g>
     </g>
     <g id="text_12">
      <!-- 100 -->
      <g transform="translate(35.554844 224.075998) scale(0.1 -0.1)">
       <use xlink:href="#DejaVuSans-14"/>
       <use xlink:href="#DejaVuSans-13" transform="translate(63.625 0)"/>
       <use xlink:href="#DejaVuSans-13" transform="translate(127.25 0)"/>
      </g>
     </g>
    </g>
    <g id="ytick_4">
     <g id="line2d_12">
      <g>
       <use xlink:href="#m3a1d01266e" x="61.642344" y="173.74714" style="stroke: #000000; stroke-width: 0.8"/>
      </g>
     </g>
     <g id="text_13">
      <!-- 200 -->
      <g transform="translate(35.554844 177.545968) scale(0.1 -0.1)">
       <defs>
        <path id="DejaVuSans-15" d="M 1228 531 
L 3431 531 
L 3431 0 
L 469 0 
L 469 531 
Q 828 903 1448 1529 
Q 2069 2156 2228 2338 
Q 2531 2678 2651 2914 
Q 2772 3150 2772 3378 
Q 2772 3750 2511 3984 
Q 2250 4219 1831 4219 
Q 1534 4219 1204 4116 
Q 875 4013 500 3803 
L 500 4441 
Q 881 4594 1212 4672 
Q 1544 4750 1819 4750 
Q 2544 4750 2975 4387 
Q 3406 4025 3406 3419 
Q 3406 3131 3298 2873 
Q 3191 2616 2906 2266 
Q 2828 2175 2409 1742 
Q 1991 1309 1228 531 
z
" transform="scale(0.015625)"/>
       </defs>
       <use xlink:href="#DejaVuSans-15"/>
       <use xlink:href="#DejaVuSans-13" transform="translate(63.625 0)"/>
       <use xlink:href="#DejaVuSans-13" transform="translate(127.25 0)"/>
      </g>
     </g>
    </g>
    <g id="ytick_5">
     <g id="line2d_13">
      <g>
       <use xlink:href="#m3a1d01266e" x="61.642344" y="127.21711" style="stroke: #000000; stroke-width: 0.8"/>
      </g>
     </g>
     <g id="text_14">
      <!-- 300 -->
      <g transform="translate(35.554844 131.015938) scale(0.1 -0.1)">
       <defs>
        <path id="DejaVuSans-16" d="M 2597 2516 
Q 3050 2419 3304 2112 
Q 3559 1806 3559 1356 
Q 3559 666 3084 287 
Q 2609 -91 1734 -91 
Q 1441 -91 1130 -33 
Q 819 25 488 141 
L 488 750 
Q 750 597 1062 519 
Q 1375 441 1716 441 
Q 2309 441 2620 675 
Q 2931 909 2931 1356 
Q 2931 1769 2642 2001 
Q 2353 2234 1838 2234 
L 1294 2234 
L 1294 2753 
L 1863 2753 
Q 2328 2753 2575 2939 
Q 2822 3125 2822 3475 
Q 2822 3834 2567 4026 
Q 2313 4219 1838 4219 
Q 1578 4219 1281 4162 
Q 984 4106 628 3988 
L 628 4550 
Q 988 4650 1302 4700 
Q 1616 4750 1894 4750 
Q 2613 4750 3031 4423 
Q 3450 4097 3450 3541 
Q 3450 3153 3228 2886 
Q 3006 2619 2597 2516 
z
" transform="scale(0.015625)"/>
       </defs>
       <use xlink:href="#DejaVuSans-16"/>
       <use xlink:href="#DejaVuSans-13" transform="translate(63.625 0)"/>
       <use xlink:href="#DejaVuSans-13" transform="translate(127.25 0)"/>
      </g>
     </g>
    </g>
    <g id="ytick_6">
     <g id="line2d_14">
      <g>
       <use xlink:href="#m3a1d01266e" x="61.642344" y="80.68708" style="stroke: #000000; stroke-width: 0.8"/>
      </g>
     </g>
     <g id="text_15">
      <!-- 400 -->
      <g transform="translate(35.554844 84.485908) scale(0.1 -0.1)">
       <use xlink:href="#DejaVuSans-17"/>
       <use xlink:href="#DejaVuSans-13" transform="translate(63.625 0)"/>
       <use xlink:href="#DejaVuSans-13" transform="translate(127.25 0)"/>
      </g>
     </g>
    </g>
    <g id="ytick_7">
     <g id="line2d_15">
      <g>
       <use xlink:href="#m3a1d01266e" x="61.642344" y="34.15705" style="stroke: #000000; stroke-width: 0.8"/>
      </g>
     </g>
     <g id="text_16">
      <!-- 500 -->
      <g transform="translate(35.554844 37.955878) scale(0.1 -0.1)">
       <use xlink:href="#DejaVuSans-18"/>
       <use xlink:href="#DejaVuSans-13" transform="translate(63.625 0)"/>
       <use xlink:href="#DejaVuSans-13" transform="translate(127.25 0)"/>
      </g>
     </g>
    </g>
    <g id="text_17">
     <!-- $d^2(D_H/r_d)/dz^2$ -->
     <g transform="translate(20.772813 215.418828) rotate(-90) scale(0.1 -0.1)">
      <defs>
       <path id="DejaVuSans-Oblique-47" d="M 2675 525 
Q 2444 222 2128 65 
Q 1813 -91 1428 -91 
Q 903 -91 598 267 
Q 294 625 294 1247 
Q 294 1766 478 2236 
Q 663 2706 1013 3078 
Q 1244 3325 1534 3454 
Q 1825 3584 2144 3584 
Q 2481 3584 2739 3421 
Q 2997 3259 3138 2956 
L 3513 4863 
L 4091 4863 
L 3144 0 
L 2566 0 
L 2675 525 
z
M 891 1350 
Q 891 897 1095 644 
Q 1300 391 1663 391 
Q 1931 391 2161 520 
Q 2391 650 2566 903 
Q 2750 1166 2856 1509 
Q 2963 1853 2963 2188 
Q 2963 2622 2758 2865 
Q 2553 3109 2194 3109 
Q 1922 3109 1687 2981 
Q 1453 2853 1288 2613 
Q 1106 2353 998 2009 
Q 891 1666 891 1350 
z
" transform="scale(0.015625)"/>
       <path id="DejaVuSans-b" d="M 1984 4856 
Q 1566 4138 1362 3434 
Q 1159 2731 1159 2009 
Q 1159 1288 1364 580 
Q 1569 -128 1984 -844 
L 1484 -844 
Q 1016 -109 783 600 
Q 550 1309 550 2009 
Q 550 2706 781 3412 
Q 1013 4119 1484 4856 
L 1984 4856 
z
" transform="scale(0.015625)"/>
       <path id="DejaVuSans-Oblique-27" d="M 1081 4666 
L 2438 4666 
Q 3519 4666 4070 4208 
Q 4622 3750 4622 2847 
Q 4622 2250 4412 1698 
Q 4203 1147 3834 769 
Q 3463 381 2891 190 
Q 2319 0 1538 0 
L 172 0 
L 1081 4666 
z
M 1613 4147 
L 909 519 
L 1734 519 
Q 2794 519 3375 1128 
Q 3956 1738 3956 2847 
Q 3956 3519 3581 3833 
Q 3206 4147 2406 4147 
L 1613 4147 
z
" transform="scale(0.015625)"/>
       <path id="DejaVuSans-Oblique-2b" d="M 1081 4666 
L 1716 4666 
L 1344 2753 
L 3634 2753 
L 4006 4666 
L 4641 4666 
L 3731 0 
L 3097 0 
L 3531 2222 
L 1241 2222 
L 806 0 
L 172 0 
L 1081 4666 
z
" transform="scale(0.015625)"/>
       <path id="DejaVuSans-12" d="M 1625 4666 
L 2156 4666 
L 531 -594 
L 0 -594 
L 1625 4666 
z
" transform="scale(0.015625)"/>
       <path id="DejaVuSans-Oblique-55" d="M 2853 2969 
Q 2766 3016 2653 3041 
Q 2541 3066 2413 3066 
Q 1953 3066 1609 2717 
Q 1266 2369 1153 1784 
L 800 0 
L 225 0 
L 909 3500 
L 1484 3500 
L 1375 2956 
Q 1603 3259 1920 3421 
Q 2238 3584 2597 3584 
Q 2691 3584 2781 3573 
Q 2872 3563 2963 3538 
L 2853 2969 
z
" transform="scale(0.015625)"/>
       <path id="DejaVuSans-c" d="M 513 4856 
L 1013 4856 
Q 1481 4119 1714 3412 
Q 1947 2706 1947 2009 
Q 1947 1309 1714 600 
Q 1481 -109 1013 -844 
L 513 -844 
Q 928 -128 1133 580 
Q 1338 1288 1338 2009 
Q 1338 2731 1133 3434 
Q 928 4138 513 4856 
z
" transform="scale(0.015625)"/>
       <path id="DejaVuSans-Oblique-5d" d="M 744 3500 
L 3475 3500 
L 3372 2975 
L 738 459 
L 2913 459 
L 2822 0 
L -19 0 
L 84 525 
L 2719 3041 
L 653 3041 
L 744 3500 
z
" transform="scale(0.015625)"/>
      </defs>
      <use xlink:href="#DejaVuSans-Oblique-47" transform="translate(0 0.746875)"/>
      <use xlink:href="#DejaVuSans-15" transform="translate(70.924271 42.046875) scale(0.7)"/>
      <use xlink:href="#DejaVuSans-b" transform="translate(118.194779 0.746875)"/>
      <use xlink:href="#DejaVuSans-Oblique-27" transform="translate(157.208451 0.746875)"/>
      <use xlink:href="#DejaVuSans-Oblique-2b" transform="translate(234.210404 -14.253076) scale(0.7)"/>
      <use xlink:href="#DejaVuSans-12" transform="translate(289.581497 0.746875)"/>
      <use xlink:href="#DejaVuSans-Oblique-55" transform="translate(323.272904 0.746875)"/>
      <use xlink:href="#DejaVuSans-Oblique-47" transform="translate(364.386185 -14.253076) scale(0.7)"/>
      <use xlink:href="#DejaVuSans-c" transform="translate(411.554154 0.746875)"/>
      <use xlink:href="#DejaVuSans-12" transform="translate(450.567826 0.746875)"/>
      <use xlink:href="#DejaVuSans-Oblique-47" transform="translate(484.259232 0.746875)"/>
      <use xlink:href="#DejaVuSans-Oblique-5d" transform="translate(547.735794 0.746875)"/>
      <use xlink:href="#DejaVuSans-15" transform="translate(604.692174 42.046875) scale(0.7)"/>
     </g>
    </g>
   </g>
   <g id="line2d_16">
    <path d="M 85.840419 274.280794 
L 89.066829 274.459353 
L 92.293239 274.818923 
L 101.972469 275.511685 
L 108.425289 276.446364 
L 111.651699 276.634779 
L 114.878109 276.665685 
L 118.104519 276.99984 
L 121.330929 277.059221 
L 124.557339 276.975066 
L 147.14221 277.828539 
L 150.36862 277.785831 
L 156.82144 278.079725 
L 169.72708 278.763476 
L 189.08554 278.481203 
L 205.21759 278.081493 
L 214.896821 277.641658 
L 234.255281 276.498324 
L 353.632452 273.021568 
L 366.538092 272.709878 
L 372.990912 272.47128 
L 418.160653 271.208096 
L 440.745523 270.443588 
L 453.651163 270.031491 
L 469.783214 269.475442 
L 476.236034 269.102497 
L 495.594494 268.193422 
L 502.047314 268.030449 
L 505.273724 267.751097 
L 508.500134 267.286186 
L 514.952954 267.081543 
L 521.405774 266.713811 
L 531.085004 266.475026 
L 537.537824 266.187063 
L 540.764234 266.089603 
L 547.217054 265.530767 
L 550.443464 265.194507 
L 560.122695 264.84547 
L 566.575515 264.617589 
L 569.801925 264.416888 
L 569.801925 264.416888 
" clip-path="url(#p06ceb7be9b)" style="fill: none; stroke: #1f77b4; stroke-width: 1.5; stroke-linecap: square"/>
   </g>
   <g id="line2d_17">
    <path d="M 85.840419 264.333517 
L 140.68939 263.740671 
L 201.99118 263.30548 
L 269.745791 263.050962 
L 350.406042 262.977804 
L 453.651163 263.119905 
L 569.801925 263.445719 
L 569.801925 263.445719 
" clip-path="url(#p06ceb7be9b)" style="fill: none; stroke-dasharray: 5.55,2.4; stroke-dashoffset: 0; stroke: #ff7f0e; stroke-width: 1.5"/>
   </g>
   <g id="line2d_18">
    <path d="M 327.821172 339.477656 
L 327.821172 26.16 
" clip-path="url(#p06ceb7be9b)" style="fill: none; stroke-dasharray: 1,1.65; stroke-dashoffset: 0; stroke: #1f77b4"/>
   </g>
   <g id="patch_3">
    <path d="M 61.642344 339.477656 
L 61.642344 26.16 
" style="fill: none; stroke: #000000; stroke-width: 0.8; stroke-linejoin: miter; stroke-linecap: square"/>
   </g>
   <g id="patch_4">
    <path d="M 594 339.477656 
L 594 26.16 
" style="fill: none; stroke: #000000; stroke-width: 0.8; stroke-linejoin: miter; stroke-linecap: square"/>
   </g>
   <g id="patch_5">
    <path d="M 61.642344 339.477656 
L 594 339.477656 
" style="fill: none; stroke: #000000; stroke-width: 0.8; stroke-linejoin: miter; stroke-linecap: square"/>
   </g>
   <g id="patch_6">
    <path d="M 61.642344 26.16 
L 594 26.16 
" style="fill: none; stroke: #000000; stroke-width: 0.8; stroke-linejoin: miter; stroke-linecap: square"/>
   </g>
   <g id="text_18">
    <!-- Full LRG: quadratic redshift model; pre-reconstruction -->
    <g transform="translate(166.453984 20.16) scale(0.12 -0.12)">
     <defs>
      <path id="DejaVuSans-29" d="M 628 4666 
L 3309 4666 
L 3309 4134 
L 1259 4134 
L 1259 2759 
L 3109 2759 
L 3109 2228 
L 1259 2228 
L 1259 0 
L 628 0 
L 628 4666 
z
" transform="scale(0.015625)"/>
      <path id="DejaVuSans-58" d="M 544 1381 
L 544 3500 
L 1119 3500 
L 1119 1403 
Q 1119 906 1312 657 
Q 1506 409 1894 409 
Q 2359 409 2629 706 
Q 2900 1003 2900 1516 
L 2900 3500 
L 3475 3500 
L 3475 0 
L 2900 0 
L 2900 538 
Q 2691 219 2414 64 
Q 2138 -91 1772 -91 
Q 1169 -91 856 284 
Q 544 659 544 1381 
z
M 1991 3584 
L 1991 3584 
z
" transform="scale(0.015625)"/>
      <path id="DejaVuSans-4f" d="M 603 4863 
L 1178 4863 
L 1178 0 
L 603 0 
L 603 4863 
z
" transform="scale(0.015625)"/>
      <path id="DejaVuSans-2f" d="M 628 4666 
L 1259 4666 
L 1259 531 
L 3531 531 
L 3531 0 
L 628 0 
L 628 4666 
z
" transform="scale(0.015625)"/>
      <path id="DejaVuSans-2a" d="M 3809 666 
L 3809 1919 
L 2778 1919 
L 2778 2438 
L 4434 2438 
L 4434 434 
Q 4069 175 3628 42 
Q 3188 -91 2688 -91 
Q 1594 -91 976 548 
Q 359 1188 359 2328 
Q 359 3472 976 4111 
Q 1594 4750 2688 4750 
Q 3144 4750 3555 4637 
Q 3966 4525 4313 4306 
L 4313 3634 
Q 3963 3931 3569 4081 
Q 3175 4231 2741 4231 
Q 1884 4231 1454 3753 
Q 1025 3275 1025 2328 
Q 1025 1384 1454 906 
Q 1884 428 2741 428 
Q 3075 428 3337 486 
Q 3600 544 3809 666 
z
" transform="scale(0.015625)"/>
      <path id="DejaVuSans-1d" d="M 750 794 
L 1409 794 
L 1409 0 
L 750 0 
L 750 794 
z
M 750 3309 
L 1409 3309 
L 1409 2516 
L 750 2516 
L 750 3309 
z
" transform="scale(0.015625)"/>
      <path id="DejaVuSans-54" d="M 947 1747 
Q 947 1113 1208 752 
Q 1469 391 1925 391 
Q 2381 391 2643 752 
Q 2906 1113 2906 1747 
Q 2906 2381 2643 2742 
Q 2381 3103 1925 3103 
Q 1469 3103 1208 2742 
Q 947 2381 947 1747 
z
M 2906 525 
Q 2725 213 2448 61 
Q 2172 -91 1784 -91 
Q 1150 -91 751 415 
Q 353 922 353 1747 
Q 353 2572 751 3078 
Q 1150 3584 1784 3584 
Q 2172 3584 2448 3432 
Q 2725 3281 2906 2969 
L 2906 3500 
L 3481 3500 
L 3481 -1331 
L 2906 -1331 
L 2906 525 
z
" transform="scale(0.015625)"/>
      <path id="DejaVuSans-44" d="M 2194 1759 
Q 1497 1759 1228 1600 
Q 959 1441 959 1056 
Q 959 750 1161 570 
Q 1363 391 1709 391 
Q 2188 391 2477 730 
Q 2766 1069 2766 1631 
L 2766 1759 
L 2194 1759 
z
M 3341 1997 
L 3341 0 
L 2766 0 
L 2766 531 
Q 2569 213 2275 61 
Q 1981 -91 1556 -91 
Q 1019 -91 701 211 
Q 384 513 384 1019 
Q 384 1609 779 1909 
Q 1175 2209 1959 2209 
L 2766 2209 
L 2766 2266 
Q 2766 2663 2505 2880 
Q 2244 3097 1772 3097 
Q 1472 3097 1187 3025 
Q 903 2953 641 2809 
L 641 3341 
Q 956 3463 1253 3523 
Q 1550 3584 1831 3584 
Q 2591 3584 2966 3190 
Q 3341 2797 3341 1997 
z
" transform="scale(0.015625)"/>
      <path id="DejaVuSans-55" d="M 2631 2963 
Q 2534 3019 2420 3045 
Q 2306 3072 2169 3072 
Q 1681 3072 1420 2755 
Q 1159 2438 1159 1844 
L 1159 0 
L 581 0 
L 581 3500 
L 1159 3500 
L 1159 2956 
Q 1341 3275 1631 3429 
Q 1922 3584 2338 3584 
Q 2397 3584 2469 3576 
Q 2541 3569 2628 3553 
L 2631 2963 
z
" transform="scale(0.015625)"/>
      <path id="DejaVuSans-46" d="M 3122 3366 
L 3122 2828 
Q 2878 2963 2633 3030 
Q 2388 3097 2138 3097 
Q 1578 3097 1268 2742 
Q 959 2388 959 1747 
Q 959 1106 1268 751 
Q 1578 397 2138 397 
Q 2388 397 2633 464 
Q 2878 531 3122 666 
L 3122 134 
Q 2881 22 2623 -34 
Q 2366 -91 2075 -91 
Q 1284 -91 818 406 
Q 353 903 353 1747 
Q 353 2603 823 3093 
Q 1294 3584 2113 3584 
Q 2378 3584 2631 3529 
Q 2884 3475 3122 3366 
z
" transform="scale(0.015625)"/>
      <path id="DejaVuSans-50" d="M 3328 2828 
Q 3544 3216 3844 3400 
Q 4144 3584 4550 3584 
Q 5097 3584 5394 3201 
Q 5691 2819 5691 2113 
L 5691 0 
L 5113 0 
L 5113 2094 
Q 5113 2597 4934 2840 
Q 4756 3084 4391 3084 
Q 3944 3084 3684 2787 
Q 3425 2491 3425 1978 
L 3425 0 
L 2847 0 
L 2847 2094 
Q 2847 2600 2669 2842 
Q 2491 3084 2119 3084 
Q 1678 3084 1418 2786 
Q 1159 2488 1159 1978 
L 1159 0 
L 581 0 
L 581 3500 
L 1159 3500 
L 1159 2956 
Q 1356 3278 1631 3431 
Q 1906 3584 2284 3584 
Q 2666 3584 2933 3390 
Q 3200 3197 3328 2828 
z
" transform="scale(0.015625)"/>
      <path id="DejaVuSans-52" d="M 1959 3097 
Q 1497 3097 1228 2736 
Q 959 2375 959 1747 
Q 959 1119 1226 758 
Q 1494 397 1959 397 
Q 2419 397 2687 759 
Q 2956 1122 2956 1747 
Q 2956 2369 2687 2733 
Q 2419 3097 1959 3097 
z
M 1959 3584 
Q 2709 3584 3137 3096 
Q 3566 2609 3566 1747 
Q 3566 888 3137 398 
Q 2709 -91 1959 -91 
Q 1206 -91 779 398 
Q 353 888 353 1747 
Q 353 2609 779 3096 
Q 1206 3584 1959 3584 
z
" transform="scale(0.015625)"/>
      <path id="DejaVuSans-1e" d="M 750 3309 
L 1409 3309 
L 1409 2516 
L 750 2516 
L 750 3309 
z
M 750 794 
L 1409 794 
L 1409 256 
L 897 -744 
L 494 -744 
L 750 256 
L 750 794 
z
" transform="scale(0.015625)"/>
      <path id="DejaVuSans-53" d="M 1159 525 
L 1159 -1331 
L 581 -1331 
L 581 3500 
L 1159 3500 
L 1159 2969 
Q 1341 3281 1617 3432 
Q 1894 3584 2278 3584 
Q 2916 3584 3314 3078 
Q 3713 2572 3713 1747 
Q 3713 922 3314 415 
Q 2916 -91 2278 -91 
Q 1894 -91 1617 61 
Q 1341 213 1159 525 
z
M 3116 1747 
Q 3116 2381 2855 2742 
Q 2594 3103 2138 3103 
Q 1681 3103 1420 2742 
Q 1159 2381 1159 1747 
Q 1159 1113 1420 752 
Q 1681 391 2138 391 
Q 2594 391 2855 752 
Q 3116 1113 3116 1747 
z
" transform="scale(0.015625)"/>
      <path id="DejaVuSans-10" d="M 313 2009 
L 1997 2009 
L 1997 1497 
L 313 1497 
L 313 2009 
z
" transform="scale(0.015625)"/>
      <path id="DejaVuSans-51" d="M 3513 2113 
L 3513 0 
L 2938 0 
L 2938 2094 
Q 2938 2591 2744 2837 
Q 2550 3084 2163 3084 
Q 1697 3084 1428 2787 
Q 1159 2491 1159 1978 
L 1159 0 
L 581 0 
L 581 3500 
L 1159 3500 
L 1159 2956 
Q 1366 3272 1645 3428 
Q 1925 3584 2291 3584 
Q 2894 3584 3203 3211 
Q 3513 2838 3513 2113 
z
" transform="scale(0.015625)"/>
     </defs>
     <use xlink:href="#DejaVuSans-29"/>
     <use xlink:href="#DejaVuSans-58" transform="translate(52.046875 0)"/>
     <use xlink:href="#DejaVuSans-4f" transform="translate(115.421875 0)"/>
     <use xlink:href="#DejaVuSans-4f" transform="translate(143.203125 0)"/>
     <use xlink:href="#DejaVuSans-3" transform="translate(170.984375 0)"/>
     <use xlink:href="#DejaVuSans-2f" transform="translate(202.765625 0)"/>
     <use xlink:href="#DejaVuSans-35" transform="translate(258.484375 0)"/>
     <use xlink:href="#DejaVuSans-2a" transform="translate(327.96875 0)"/>
     <use xlink:href="#DejaVuSans-1d" transform="translate(405.453125 0)"/>
     <use xlink:href="#DejaVuSans-3" transform="translate(439.140625 0)"/>
     <use xlink:href="#DejaVuSans-54" transform="translate(470.921875 0)"/>
     <use xlink:href="#DejaVuSans-58" transform="translate(534.40625 0)"/>
     <use xlink:href="#DejaVuSans-44" transform="translate(597.78125 0)"/>
     <use xlink:href="#DejaVuSans-47" transform="translate(659.0625 0)"/>
     <use xlink:href="#DejaVuSans-55" transform="translate(722.546875 0)"/>
     <use xlink:href="#DejaVuSans-44" transform="translate(763.65625 0)"/>
     <use xlink:href="#DejaVuSans-57" transform="translate(824.9375 0)"/>
     <use xlink:href="#DejaVuSans-4c" transform="translate(864.140625 0)"/>
     <use xlink:href="#DejaVuSans-46" transform="translate(891.921875 0)"/>
     <use xlink:href="#DejaVuSans-3" transform="translate(946.90625 0)"/>
     <use xlink:href="#DejaVuSans-55" transform="translate(978.6875 0)"/>
     <use xlink:href="#DejaVuSans-48" transform="translate(1017.59375 0)"/>
     <use xlink:href="#DejaVuSans-47" transform="translate(1079.125 0)"/>
     <use xlink:href="#DejaVuSans-56" transform="translate(1142.609375 0)"/>
     <use xlink:href="#DejaVuSans-4b" transform="translate(1194.703125 0)"/>
     <use xlink:href="#DejaVuSans-4c" transform="translate(1258.078125 0)"/>
     <use xlink:href="#DejaVuSans-49" transform="translate(1285.859375 0)"/>
     <use xlink:href="#DejaVuSans-57" transform="translate(1319.3125 0)"/>
     <use xlink:href="#DejaVuSans-3" transform="translate(1358.515625 0)"/>
     <use xlink:href="#DejaVuSans-50" transform="translate(1390.296875 0)"/>
     <use xlink:href="#DejaVuSans-52" transform="translate(1487.703125 0)"/>
     <use xlink:href="#DejaVuSans-47" transform="translate(1548.890625 0)"/>
     <use xlink:href="#DejaVuSans-48" transform="translate(1612.375 0)"/>
     <use xlink:href="#DejaVuSans-4f" transform="translate(1673.90625 0)"/>
     <use xlink:href="#DejaVuSans-1e" transform="translate(1701.6875 0)"/>
     <use xlink:href="#DejaVuSans-3" transform="translate(1735.375 0)"/>
     <use xlink:href="#DejaVuSans-53" transform="translate(1767.15625 0)"/>
     <use xlink:href="#DejaVuSans-55" transform="translate(1830.640625 0)"/>
     <use xlink:href="#DejaVuSans-48" transform="translate(1869.546875 0)"/>
     <use xlink:href="#DejaVuSans-10" transform="translate(1931.078125 0)"/>
     <use xlink:href="#DejaVuSans-55" transform="translate(1967.15625 0)"/>
     <use xlink:href="#DejaVuSans-48" transform="translate(2006.0625 0)"/>
     <use xlink:href="#DejaVuSans-46" transform="translate(2067.59375 0)"/>
     <use xlink:href="#DejaVuSans-52" transform="translate(2122.578125 0)"/>
     <use xlink:href="#DejaVuSans-51" transform="translate(2183.765625 0)"/>
     <use xlink:href="#DejaVuSans-56" transform="translate(2247.140625 0)"/>
     <use xlink:href="#DejaVuSans-57" transform="translate(2299.234375 0)"/>
     <use xlink:href="#DejaVuSans-55" transform="translate(2338.4375 0)"/>
     <use xlink:href="#DejaVuSans-58" transform="translate(2379.546875 0)"/>
     <use xlink:href="#DejaVuSans-46" transform="translate(2442.921875 0)"/>
     <use xlink:href="#DejaVuSans-57" transform="translate(2497.90625 0)"/>
     <use xlink:href="#DejaVuSans-4c" transform="translate(2537.109375 0)"/>
     <use xlink:href="#DejaVuSans-52" transform="translate(2564.890625 0)"/>
     <use xlink:href="#DejaVuSans-51" transform="translate(2626.078125 0)"/>
    </g>
   </g>
   <g id="legend_1">
    <g id="patch_7">
     <path d="M 432.734062 87.362812 
L 587.7 87.362812 
Q 589.5 87.362812 589.5 85.562812 
L 589.5 32.46 
Q 589.5 30.66 587.7 30.66 
L 432.734062 30.66 
Q 430.934062 30.66 430.934062 32.46 
L 430.934062 85.562812 
Q 430.934062 87.362812 432.734062 87.362812 
z
" style="fill: #ffffff; opacity: 0.8; stroke: #cccccc; stroke-linejoin: miter"/>
    </g>
    <g id="patch_8">
     <path d="M 434.534063 41.098594 
L 452.534063 41.098594 
L 452.534063 34.798594 
L 434.534063 34.798594 
z
" style="fill: #1f77b4; fill-opacity: 0.16"/>
    </g>
    <g id="text_19">
     <!-- 95% marginal interval -->
     <g transform="translate(459.734062 41.098594) scale(0.09 -0.09)">
      <defs>
       <path id="DejaVuSans-8" d="M 4653 2053 
Q 4381 2053 4226 1822 
Q 4072 1591 4072 1178 
Q 4072 772 4226 539 
Q 4381 306 4653 306 
Q 4919 306 5073 539 
Q 5228 772 5228 1178 
Q 5228 1588 5073 1820 
Q 4919 2053 4653 2053 
z
M 4653 2450 
Q 5147 2450 5437 2106 
Q 5728 1763 5728 1178 
Q 5728 594 5436 251 
Q 5144 -91 4653 -91 
Q 4153 -91 3862 251 
Q 3572 594 3572 1178 
Q 3572 1766 3864 2108 
Q 4156 2450 4653 2450 
z
M 1428 4353 
Q 1159 4353 1004 4120 
Q 850 3888 850 3481 
Q 850 3069 1003 2837 
Q 1156 2606 1428 2606 
Q 1700 2606 1854 2837 
Q 2009 3069 2009 3481 
Q 2009 3884 1853 4118 
Q 1697 4353 1428 4353 
z
M 4250 4750 
L 4750 4750 
L 1831 -91 
L 1331 -91 
L 4250 4750 
z
M 1428 4750 
Q 1922 4750 2215 4408 
Q 2509 4066 2509 3481 
Q 2509 2891 2217 2550 
Q 1925 2209 1428 2209 
Q 931 2209 642 2551 
Q 353 2894 353 3481 
Q 353 4063 643 4406 
Q 934 4750 1428 4750 
z
" transform="scale(0.015625)"/>
       <path id="DejaVuSans-4a" d="M 2906 1791 
Q 2906 2416 2648 2759 
Q 2391 3103 1925 3103 
Q 1463 3103 1205 2759 
Q 947 2416 947 1791 
Q 947 1169 1205 825 
Q 1463 481 1925 481 
Q 2391 481 2648 825 
Q 2906 1169 2906 1791 
z
M 3481 434 
Q 3481 -459 3084 -895 
Q 2688 -1331 1869 -1331 
Q 1566 -1331 1297 -1286 
Q 1028 -1241 775 -1147 
L 775 -588 
Q 1028 -725 1275 -790 
Q 1522 -856 1778 -856 
Q 2344 -856 2625 -561 
Q 2906 -266 2906 331 
L 2906 616 
Q 2728 306 2450 153 
Q 2172 0 1784 0 
Q 1141 0 747 490 
Q 353 981 353 1791 
Q 353 2603 747 3093 
Q 1141 3584 1784 3584 
Q 2172 3584 2450 3431 
Q 2728 3278 2906 2969 
L 2906 3500 
L 3481 3500 
L 3481 434 
z
" transform="scale(0.015625)"/>
       <path id="DejaVuSans-59" d="M 191 3500 
L 800 3500 
L 1894 563 
L 2988 3500 
L 3597 3500 
L 2284 0 
L 1503 0 
L 191 3500 
z
" transform="scale(0.015625)"/>
      </defs>
      <use xlink:href="#DejaVuSans-1c"/>
      <use xlink:href="#DejaVuSans-18" transform="translate(63.625 0)"/>
      <use xlink:href="#DejaVuSans-8" transform="translate(127.25 0)"/>
      <use xlink:href="#DejaVuSans-3" transform="translate(222.265625 0)"/>
      <use xlink:href="#DejaVuSans-50" transform="translate(254.046875 0)"/>
      <use xlink:href="#DejaVuSans-44" transform="translate(351.453125 0)"/>
      <use xlink:href="#DejaVuSans-55" transform="translate(412.734375 0)"/>
      <use xlink:href="#DejaVuSans-4a" transform="translate(452.09375 0)"/>
      <use xlink:href="#DejaVuSans-4c" transform="translate(515.578125 0)"/>
      <use xlink:href="#DejaVuSans-51" transform="translate(543.359375 0)"/>
      <use xlink:href="#DejaVuSans-44" transform="translate(606.734375 0)"/>
      <use xlink:href="#DejaVuSans-4f" transform="translate(668.015625 0)"/>
      <use xlink:href="#DejaVuSans-3" transform="translate(695.796875 0)"/>
      <use xlink:href="#DejaVuSans-4c" transform="translate(727.578125 0)"/>
      <use xlink:href="#DejaVuSans-51" transform="translate(755.359375 0)"/>
      <use xlink:href="#DejaVuSans-57" transform="translate(818.734375 0)"/>
      <use xlink:href="#DejaVuSans-48" transform="translate(857.9375 0)"/>
      <use xlink:href="#DejaVuSans-55" transform="translate(919.46875 0)"/>
      <use xlink:href="#DejaVuSans-59" transform="translate(960.578125 0)"/>
      <use xlink:href="#DejaVuSans-44" transform="translate(1019.765625 0)"/>
      <use xlink:href="#DejaVuSans-4f" transform="translate(1081.046875 0)"/>
     </g>
    </g>
    <g id="patch_9">
     <path d="M 434.534063 54.599297 
L 452.534063 54.599297 
L 452.534063 48.299297 
L 434.534063 48.299297 
z
" style="fill: #ff7f0e; fill-opacity: 0.32"/>
    </g>
    <g id="text_20">
     <!-- 68% marginal interval -->
     <g transform="translate(459.734062 54.599297) scale(0.09 -0.09)">
      <use xlink:href="#DejaVuSans-19"/>
      <use xlink:href="#DejaVuSans-1b" transform="translate(63.625 0)"/>
      <use xlink:href="#DejaVuSans-8" transform="translate(127.25 0)"/>
      <use xlink:href="#DejaVuSans-3" transform="translate(222.265625 0)"/>
      <use xlink:href="#DejaVuSans-50" transform="translate(254.046875 0)"/>
      <use xlink:href="#DejaVuSans-44" transform="translate(351.453125 0)"/>
      <use xlink:href="#DejaVuSans-55" transform="translate(412.734375 0)"/>
      <use xlink:href="#DejaVuSans-4a" transform="translate(452.09375 0)"/>
      <use xlink:href="#DejaVuSans-4c" transform="translate(515.578125 0)"/>
      <use xlink:href="#DejaVuSans-51" transform="translate(543.359375 0)"/>
      <use xlink:href="#DejaVuSans-44" transform="translate(606.734375 0)"/>
      <use xlink:href="#DejaVuSans-4f" transform="translate(668.015625 0)"/>
      <use xlink:href="#DejaVuSans-3" transform="translate(695.796875 0)"/>
      <use xlink:href="#DejaVuSans-4c" transform="translate(727.578125 0)"/>
      <use xlink:href="#DejaVuSans-51" transform="translate(755.359375 0)"/>
      <use xlink:href="#DejaVuSans-57" transform="translate(818.734375 0)"/>
      <use xlink:href="#DejaVuSans-48" transform="translate(857.9375 0)"/>
      <use xlink:href="#DejaVuSans-55" transform="translate(919.46875 0)"/>
      <use xlink:href="#DejaVuSans-59" transform="translate(960.578125 0)"/>
      <use xlink:href="#DejaVuSans-44" transform="translate(1019.765625 0)"/>
      <use xlink:href="#DejaVuSans-4f" transform="translate(1081.046875 0)"/>
     </g>
    </g>
    <g id="line2d_19">
     <path d="M 434.534063 64.95 
L 443.534063 64.95 
L 452.534063 64.95 
" style="fill: none; stroke: #1f77b4; stroke-width: 1.5; stroke-linecap: square"/>
    </g>
    <g id="text_21">
     <!-- NGC+SGC catalogue fit -->
     <g transform="translate(459.734062 68.1) scale(0.09 -0.09)">
      <defs>
       <path id="DejaVuSans-31" d="M 628 4666 
L 1478 4666 
L 3547 763 
L 3547 4666 
L 4159 4666 
L 4159 0 
L 3309 0 
L 1241 3903 
L 1241 0 
L 628 0 
L 628 4666 
z
" transform="scale(0.015625)"/>
       <path id="DejaVuSans-26" d="M 4122 4306 
L 4122 3641 
Q 3803 3938 3442 4084 
Q 3081 4231 2675 4231 
Q 1875 4231 1450 3742 
Q 1025 3253 1025 2328 
Q 1025 1406 1450 917 
Q 1875 428 2675 428 
Q 3081 428 3442 575 
Q 3803 722 4122 1019 
L 4122 359 
Q 3791 134 3420 21 
Q 3050 -91 2638 -91 
Q 1578 -91 968 557 
Q 359 1206 359 2328 
Q 359 3453 968 4101 
Q 1578 4750 2638 4750 
Q 3056 4750 3426 4639 
Q 3797 4528 4122 4306 
z
" transform="scale(0.015625)"/>
       <path id="DejaVuSans-e" d="M 2944 4013 
L 2944 2272 
L 4684 2272 
L 4684 1741 
L 2944 1741 
L 2944 0 
L 2419 0 
L 2419 1741 
L 678 1741 
L 678 2272 
L 2419 2272 
L 2419 4013 
L 2944 4013 
z
" transform="scale(0.015625)"/>
       <path id="DejaVuSans-36" d="M 3425 4513 
L 3425 3897 
Q 3066 4069 2747 4153 
Q 2428 4238 2131 4238 
Q 1616 4238 1336 4038 
Q 1056 3838 1056 3469 
Q 1056 3159 1242 3001 
Q 1428 2844 1947 2747 
L 2328 2669 
Q 3034 2534 3370 2195 
Q 3706 1856 3706 1288 
Q 3706 609 3251 259 
Q 2797 -91 1919 -91 
Q 1588 -91 1214 -16 
Q 841 59 441 206 
L 441 856 
Q 825 641 1194 531 
Q 1563 422 1919 422 
Q 2459 422 2753 634 
Q 3047 847 3047 1241 
Q 3047 1584 2836 1778 
Q 2625 1972 2144 2069 
L 1759 2144 
Q 1053 2284 737 2584 
Q 422 2884 422 3419 
Q 422 4038 858 4394 
Q 1294 4750 2059 4750 
Q 2388 4750 2728 4690 
Q 3069 4631 3425 4513 
z
" transform="scale(0.015625)"/>
       <path id="DejaVuSans-13af" d="M 3431 3500 
L 3431 0 
L 2853 0 
L 2853 3053 
L 1275 3053 
L 1275 0 
L 697 0 
L 697 3053 
L 147 3053 
L 147 3500 
L 697 3500 
L 697 3744 
Q 697 4316 967 4589 
Q 1238 4863 1797 4863 
L 2375 4863 
L 2375 4384 
L 1825 4384 
Q 1516 4384 1395 4259 
Q 1275 4134 1275 3809 
L 1275 3500 
L 3431 3500 
z
M 2853 4856 
L 3431 4856 
L 3431 4128 
L 2853 4128 
L 2853 4856 
z
" transform="scale(0.015625)"/>
      </defs>
      <use xlink:href="#DejaVuSans-31"/>
      <use xlink:href="#DejaVuSans-2a" transform="translate(74.8125 0)"/>
      <use xlink:href="#DejaVuSans-26" transform="translate(152.296875 0)"/>
      <use xlink:href="#DejaVuSans-e" transform="translate(222.125 0)"/>
      <use xlink:href="#DejaVuSans-36" transform="translate(305.921875 0)"/>
      <use xlink:href="#DejaVuSans-2a" transform="translate(369.40625 0)"/>
      <use xlink:href="#DejaVuSans-26" transform="translate(446.890625 0)"/>
      <use xlink:href="#DejaVuSans-3" transform="translate(516.71875 0)"/>
      <use xlink:href="#DejaVuSans-46" transform="translate(548.5 0)"/>
      <use xlink:href="#DejaVuSans-44" transform="translate(603.484375 0)"/>
      <use xlink:href="#DejaVuSans-57" transform="translate(664.765625 0)"/>
      <use xlink:href="#DejaVuSans-44" transform="translate(703.96875 0)"/>
      <use xlink:href="#DejaVuSans-4f" transform="translate(765.25 0)"/>
      <use xlink:href="#DejaVuSans-52" transform="translate(793.03125 0)"/>
      <use xlink:href="#DejaVuSans-4a" transform="translate(854.21875 0)"/>
      <use xlink:href="#DejaVuSans-58" transform="translate(917.703125 0)"/>
      <use xlink:href="#DejaVuSans-48" transform="translate(981.078125 0)"/>
      <use xlink:href="#DejaVuSans-3" transform="translate(1042.609375 0)"/>
      <use xlink:href="#DejaVuSans-13af" transform="translate(1074.390625 0)"/>
      <use xlink:href="#DejaVuSans-57" transform="translate(1137.375 0)"/>
     </g>
    </g>
    <g id="line2d_20">
     <path d="M 434.534063 78.450703 
L 443.534063 78.450703 
L 452.534063 78.450703 
" style="fill: none; stroke-dasharray: 5.55,2.4; stroke-dashoffset: 0; stroke: #ff7f0e; stroke-width: 1.5"/>
    </g>
    <g id="text_22">
     <!-- Fiducial flat LCDM reference -->
     <g transform="translate(459.734062 81.600703) scale(0.09 -0.09)">
      <defs>
       <path id="DejaVuSans-13b0" d="M 1831 4863 
L 3431 4863 
L 3431 0 
L 2853 0 
L 2853 4384 
L 1825 4384 
Q 1516 4384 1395 4259 
Q 1275 4134 1275 3809 
L 1275 3500 
L 2222 3500 
L 2222 3053 
L 1275 3053 
L 1275 0 
L 697 0 
L 697 3053 
L 147 3053 
L 147 3500 
L 697 3500 
L 697 3744 
Q 697 4328 969 4595 
Q 1241 4863 1831 4863 
z
" transform="scale(0.015625)"/>
       <path id="DejaVuSans-27" d="M 1259 4147 
L 1259 519 
L 2022 519 
Q 2988 519 3436 956 
Q 3884 1394 3884 2338 
Q 3884 3275 3436 3711 
Q 2988 4147 2022 4147 
L 1259 4147 
z
M 628 4666 
L 1925 4666 
Q 3281 4666 3915 4102 
Q 4550 3538 4550 2338 
Q 4550 1131 3912 565 
Q 3275 0 1925 0 
L 628 0 
L 628 4666 
z
" transform="scale(0.015625)"/>
       <path id="DejaVuSans-30" d="M 628 4666 
L 1569 4666 
L 2759 1491 
L 3956 4666 
L 4897 4666 
L 4897 0 
L 4281 0 
L 4281 4097 
L 3078 897 
L 2444 897 
L 1241 4097 
L 1241 0 
L 628 0 
L 628 4666 
z
" transform="scale(0.015625)"/>
      </defs>
      <use xlink:href="#DejaVuSans-29"/>
      <use xlink:href="#DejaVuSans-4c" transform="translate(50.234375 0)"/>
      <use xlink:href="#DejaVuSans-47" transform="translate(78.015625 0)"/>
      <use xlink:href="#DejaVuSans-58" transform="translate(141.5 0)"/>
      <use xlink:href="#DejaVuSans-46" transform="translate(204.875 0)"/>
      <use xlink:href="#DejaVuSans-4c" transform="translate(259.859375 0)"/>
      <use xlink:href="#DejaVuSans-44" transform="translate(287.640625 0)"/>
      <use xlink:href="#DejaVuSans-4f" transform="translate(348.921875 0)"/>
      <use xlink:href="#DejaVuSans-3" transform="translate(376.703125 0)"/>
      <use xlink:href="#DejaVuSans-13b0" transform="translate(408.484375 0)"/>
      <use xlink:href="#DejaVuSans-44" transform="translate(471.46875 0)"/>
      <use xlink:href="#DejaVuSans-57" transform="translate(532.75 0)"/>
      <use xlink:href="#DejaVuSans-3" transform="translate(571.953125 0)"/>
      <use xlink:href="#DejaVuSans-2f" transform="translate(603.734375 0)"/>
      <use xlink:href="#DejaVuSans-26" transform="translate(659.453125 0)"/>
      <use xlink:href="#DejaVuSans-27" transform="translate(729.28125 0)"/>
      <use xlink:href="#DejaVuSans-30" transform="translate(806.28125 0)"/>
      <use xlink:href="#DejaVuSans-3" transform="translate(892.5625 0)"/>
      <use xlink:href="#DejaVuSans-55" transform="translate(924.34375 0)"/>
      <use xlink:href="#DejaVuSans-48" transform="translate(963.25 0)"/>
      <use xlink:href="#DejaVuSans-49" transform="translate(1024.78125 0)"/>
      <use xlink:href="#DejaVuSans-48" transform="translate(1059.984375 0)"/>
      <use xlink:href="#DejaVuSans-55" transform="translate(1121.515625 0)"/>
      <use xlink:href="#DejaVuSans-48" transform="translate(1160.421875 0)"/>
      <use xlink:href="#DejaVuSans-51" transform="translate(1221.953125 0)"/>
      <use xlink:href="#DejaVuSans-46" transform="translate(1285.328125 0)"/>
      <use xlink:href="#DejaVuSans-48" transform="translate(1340.3125 0)"/>
     </g>
    </g>
   </g>
  </g>
 </g>
 <defs>
  <clipPath id="p06ceb7be9b">
   <rect x="61.642344" y="26.16" width="532.357656" height="313.317656"/>
  </clipPath>
 </defs>
</svg>
