<?xml version="1.0" encoding="utf-8" standalone="no"?>
<!DOCTYPE svg PUBLIC "-//W3C//DTD SVG 1.1//EN"
  "http://www.w3.org/Graphics/SVG/1.1/DTD/svg11.dtd">
<svg xmlns:xlink="http://www.w3.org/1999/xlink" width="504pt" height="432pt" viewBox="0 0 504 432" xmlns="http://www.w3.org/2000/svg" version="1.1">
 <metadata>
  <rdf:RDF xmlns:dc="http://purl.org/dc/elements/1.1/" xmlns:cc="http://creativecommons.org/ns#" xmlns:rdf="http://www.w3.org/1999/02/22-rdf-syntax-ns#">
   <cc:Work>
    <dc:type rdf:resource="http://purl.org/dc/dcmitype/StillImage"/>
    <dc:date>2026-09-05T06:31:21.362414</dc:date>
    <dc:format>image/svg+xml</dc:format>
    <dc:creator>
     <cc:Agent>
      <dc:title>Matplotlib v3.11.1, https://matplotlib.org/</dc:title>
     </cc:Agent>
    </dc:creator>
   </cc:Work>
  </rdf:RDF>
 </metadata>
 <defs>
  <style type="text/css">*{stroke-linejoin: round; stroke-linecap: butt}</style>
 </defs>
 <g id="figure_1">
  <g id="patch_1">
   <path d="M 0 432 
L 504 432 
L 504 0 
L 0 0 
z
" style="fill: #ffffff"/>
  </g>
  <g id="axes_1">
   <g id="patch_2">
    <path d="M 53.722344 389.877656 
L 487.261049 389.877656 
L 487.261049 26.16 
L 53.722344 26.16 
z
" style="fill: #ffffff"/>
   </g>
   <g id="PathCollection_1">
    <defs>
     <path id="mf145517625" d="M 0 3 
C 0.795609 3 1.55874 2.683901 2.12132 2.12132 
C 2.683901 1.55874 3 0.795609 3 0 
C 3 -0.795609 2.683901 -1.55874 2.12132 -2.12132 
C 1.55874 -2.683901 0.795609 -3 0 -3 
C -0.795609 -3 -1.55874 -2.683901 -2.12132 -2.12132 
C -2.683901 -1.55874 -3 -0.795609 -3 0 
C -3 0.795609 -2.683901 1.55874 -2.12132 2.12132 
C -1.55874 2.683901 -0.795609 3 0 3 
z
" style="stroke: #1f77b4"/>
    </defs>
    <g clip-path="url(#pe0e29ea9fe)">
     <use xlink:href="#mf145517625" x="259.543851" y="166.300924" style="fill: #1f77b4; stroke: #1f77b4"/>
    </g>
   </g>
   <g id="PathCollection_2">
    <defs>
     <path id="m038c9c4570" d="M -3 3 
L 3 -3 
M -3 -3 
L 3 3 
" style="stroke: #ff7f0e; stroke-width: 1.5"/>
    </defs>
    <g clip-path="url(#pe0e29ea9fe)">
     <use xlink:href="#m038c9c4570" x="270.03535" y="187.622934" style="fill: #ff7f0e; stroke: #ff7f0e; stroke-width: 1.5"/>
    </g>
   </g>
   <g id="matplotlib.axis_1">
    <g id="xtick_1">
     <g id="line2d_1">
      <defs>
       <path id="mbce6fb9b83" d="M 0 0 
L 0 3.5 
" style="stroke: #000000; stroke-width: 0.8"/>
      </defs>
      <g>
       <use xlink:href="#mbce6fb9b83" x="63.679593" y="389.877656" style="stroke: #000000; stroke-width: 0.8"/>
      </g>
     </g>
     <g id="text_1">
      <!-- 5 -->
      <g transform="translate(60.498343 404.475312) scale(0.1 -0.1)">
       <defs>
        <path id="DejaVuSans-18" d="M 691 4666 
L 3169 4666 
L 3169 4134 
L 1269 4134 
L 1269 2991 
Q 1406 3038 1543 3061 
Q 1681 3084 1819 3084 
Q 2600 3084 3056 2656 
Q 3513 2228 3513 1497 
Q 3513 744 3044 326 
Q 2575 -91 1722 -91 
Q 1428 -91 1123 -41 
Q 819 9 494 109 
L 494 744 
Q 775 591 1075 516 
Q 1375 441 1709 441 
Q 2250 441 2565 725 
Q 2881 1009 2881 1497 
Q 2881 1984 2565 2268 
Q 2250 2553 1709 2553 
Q 1456 2553 1204 2497 
Q 953 2441 691 2322 
L 691 4666 
z
" transform="scale(0.015625)"/>
       </defs>
       <use xlink:href="#DejaVuSans-18"/>
      </g>
     </g>
    </g>
    <g id="xtick_2">
     <g id="line2d_2">
      <g>
       <use xlink:href="#mbce6fb9b83" x="134.176415" y="389.877656" style="stroke: #000000; stroke-width: 0.8"/>
      </g>
     </g>
     <g id="text_2">
      <!-- 10 -->
      <g transform="translate(127.813915 404.475312) scale(0.1 -0.1)">
       <defs>
        <path id="DejaVuSans-14" d="M 794 531 
L 1825 531 
L 1825 4091 
L 703 3866 
L 703 4441 
L 1819 4666 
L 2450 4666 
L 2450 531 
L 3481 531 
L 3481 0 
L 794 0 
L 794 531 
z
" transform="scale(0.015625)"/>
        <path id="DejaVuSans-13" d="M 2034 4250 
Q 1547 4250 1301 3770 
Q 1056 3291 1056 2328 
Q 1056 1369 1301 889 
Q 1547 409 2034 409 
Q 2525 409 2770 889 
Q 3016 1369 3016 2328 
Q 3016 3291 2770 3770 
Q 2525 4250 2034 4250 
z
M 2034 4750 
Q 2819 4750 3233 4129 
Q 3647 3509 3647 2328 
Q 3647 1150 3233 529 
Q 2819 -91 2034 -91 
Q 1250 -91 836 529 
Q 422 1150 422 2328 
Q 422 3509 836 4129 
Q 1250 4750 2034 4750 
z
" transform="scale(0.015625)"/>
       </defs>
       <use xlink:href="#DejaVuSans-14"/>
       <use xlink:href="#DejaVuSans-13" transform="translate(63.625 0)"/>
      </g>
     </g>
    </g>
    <g id="xtick_3">
     <g id="line2d_3">
      <g>
       <use xlink:href="#mbce6fb9b83" x="204.673236" y="389.877656" style="stroke: #000000; stroke-width: 0.8"/>
      </g>
     </g>
     <g id="text_3">
      <!-- 15 -->
      <g transform="translate(198.310736 404.475312) scale(0.1 -0.1)">
       <use xlink:href="#DejaVuSans-14"/>
       <use xlink:href="#DejaVuSans-18" transform="translate(63.625 0)"/>
      </g>
     </g>
    </g>
    <g id="xtick_4">
     <g id="line2d_4">
      <g>
       <use xlink:href="#mbce6fb9b83" x="275.170058" y="389.877656" style="stroke: #000000; stroke-width: 0.8"/>
      </g>
     </g>
     <g id="text_4">
      <!-- 20 -->
      <g transform="translate(268.807558 404.475312) scale(0.1 -0.1)">
       <defs>
        <path id="DejaVuSans-15" d="M 1228 531 
L 3431 531 
L 3431 0 
L 469 0 
L 469 531 
Q 828 903 1448 1529 
Q 2069 2156 2228 2338 
Q 2531 2678 2651 2914 
Q 2772 3150 2772 3378 
Q 2772 3750 2511 3984 
Q 2250 4219 1831 4219 
Q 1534 4219 1204 4116 
Q 875 4013 500 3803 
L 500 4441 
Q 881 4594 1212 4672 
Q 1544 4750 1819 4750 
Q 2544 4750 2975 4387 
Q 3406 4025 3406 3419 
Q 3406 3131 3298 2873 
Q 3191 2616 2906 2266 
Q 2828 2175 2409 1742 
Q 1991 1309 1228 531 
z
" transform="scale(0.015625)"/>
       </defs>
       <use xlink:href="#DejaVuSans-15"/>
       <use xlink:href="#DejaVuSans-13" transform="translate(63.625 0)"/>
      </g>
     </g>
    </g>
    <g id="xtick_5">
     <g id="line2d_5">
      <g>
       <use xlink:href="#mbce6fb9b83" x="345.666879" y="389.877656" style="stroke: #000000; stroke-width: 0.8"/>
      </g>
     </g>
     <g id="text_5">
      <!-- 25 -->
      <g transform="translate(339.304379 404.475312) scale(0.1 -0.1)">
       <use xlink:href="#DejaVuSans-15"/>
       <use xlink:href="#DejaVuSans-18" transform="translate(63.625 0)"/>
      </g>
     </g>
    </g>
    <g id="xtick_6">
     <g id="line2d_6">
      <g>
       <use xlink:href="#mbce6fb9b83" x="416.163701" y="389.877656" style="stroke: #000000; stroke-width: 0.8"/>
      </g>
     </g>
     <g id="text_6">
      <!-- 30 -->
      <g transform="translate(409.801201 404.475312) scale(0.1 -0.1)">
       <defs>
        <path id="DejaVuSans-16" d="M 2597 2516 
Q 3050 2419 3304 2112 
Q 3559 1806 3559 1356 
Q 3559 666 3084 287 
Q 2609 -91 1734 -91 
Q 1441 -91 1130 -33 
Q 819 25 488 141 
L 488 750 
Q 750 597 1062 519 
Q 1375 441 1716 441 
Q 2309 441 2620 675 
Q 2931 909 2931 1356 
Q 2931 1769 2642 2001 
Q 2353 2234 1838 2234 
L 1294 2234 
L 1294 2753 
L 1863 2753 
Q 2328 2753 2575 2939 
Q 2822 3125 2822 3475 
Q 2822 3834 2567 4026 
Q 2313 4219 1838 4219 
Q 1578 4219 1281 4162 
Q 984 4106 628 3988 
L 628 4550 
Q 988 4650 1302 4700 
Q 1616 4750 1894 4750 
Q 2613 4750 3031 4423 
Q 3450 4097 3450 3541 
Q 3450 3153 3228 2886 
Q 3006 2619 2597 2516 
z
" transform="scale(0.015625)"/>
       </defs>
       <use xlink:href="#DejaVuSans-16"/>
       <use xlink:href="#DejaVuSans-13" transform="translate(63.625 0)"/>
      </g>
     </g>
    </g>
    <g id="xtick_7">
     <g id="line2d_7">
      <g>
       <use xlink:href="#mbce6fb9b83" x="486.660522" y="389.877656" style="stroke: #000000; stroke-width: 0.8"/>
      </g>
     </g>
     <g id="text_7">
      <!-- 35 -->
      <g transform="translate(480.298022 404.475312) scale(0.1 -0.1)">
       <use xlink:href="#DejaVuSans-16"/>
       <use xlink:href="#DejaVuSans-18" transform="translate(63.625 0)"/>
      </g>
     </g>
    </g>
    <g id="text_8">
     <!-- $d(D_M/r_d)/dz$ -->
     <g transform="translate(242.791696 418.477656) scale(0.1 -0.1)">
      <defs>
       <path id="DejaVuSans-Oblique-47" d="M 2675 525 
Q 2444 222 2128 65 
Q 1813 -91 1428 -91 
Q 903 -91 598 267 
Q 294 625 294 1247 
Q 294 1766 478 2236 
Q 663 2706 1013 3078 
Q 1244 3325 1534 3454 
Q 1825 3584 2144 3584 
Q 2481 3584 2739 3421 
Q 2997 3259 3138 2956 
L 3513 4863 
L 4091 4863 
L 3144 0 
L 2566 0 
L 2675 525 
z
M 891 1350 
Q 891 897 1095 644 
Q 1300 391 1663 391 
Q 1931 391 2161 520 
Q 2391 650 2566 903 
Q 2750 1166 2856 1509 
Q 2963 1853 2963 2188 
Q 2963 2622 2758 2865 
Q 2553 3109 2194 3109 
Q 1922 3109 1687 2981 
Q 1453 2853 1288 2613 
Q 1106 2353 998 2009 
Q 891 1666 891 1350 
z
" transform="scale(0.015625)"/>
       <path id="DejaVuSans-b" d="M 1984 4856 
Q 1566 4138 1362 3434 
Q 1159 2731 1159 2009 
Q 1159 1288 1364 580 
Q 1569 -128 1984 -844 
L 1484 -844 
Q 1016 -109 783 600 
Q 550 1309 550 2009 
Q 550 2706 781 3412 
Q 1013 4119 1484 4856 
L 1984 4856 
z
" transform="scale(0.015625)"/>
       <path id="DejaVuSans-Oblique-27" d="M 1081 4666 
L 2438 4666 
Q 3519 4666 4070 4208 
Q 4622 3750 4622 2847 
Q 4622 2250 4412 1698 
Q 4203 1147 3834 769 
Q 3463 381 2891 190 
Q 2319 0 1538 0 
L 172 0 
L 1081 4666 
z
M 1613 4147 
L 909 519 
L 1734 519 
Q 2794 519 3375 1128 
Q 3956 1738 3956 2847 
Q 3956 3519 3581 3833 
Q 3206 4147 2406 4147 
L 1613 4147 
z
" transform="scale(0.015625)"/>
       <path id="DejaVuSans-Oblique-30" d="M 1081 4666 
L 2028 4666 
L 2572 1522 
L 4378 4666 
L 5350 4666 
L 4441 0 
L 3828 0 
L 4622 4091 
L 2791 897 
L 2175 897 
L 1581 4103 
L 788 0 
L 172 0 
L 1081 4666 
z
" transform="scale(0.015625)"/>
       <path id="DejaVuSans-12" d="M 1625 4666 
L 2156 4666 
L 531 -594 
L 0 -594 
L 1625 4666 
z
" transform="scale(0.015625)"/>
       <path id="DejaVuSans-Oblique-55" d="M 2853 2969 
Q 2766 3016 2653 3041 
Q 2541 3066 2413 3066 
Q 1953 3066 1609 2717 
Q 1266 2369 1153 1784 
L 800 0 
L 225 0 
L 909 3500 
L 1484 3500 
L 1375 2956 
Q 1603 3259 1920 3421 
Q 2238 3584 2597 3584 
Q 2691 3584 2781 3573 
Q 2872 3563 2963 3538 
L 2853 2969 
z
" transform="scale(0.015625)"/>
       <path id="DejaVuSans-c" d="M 513 4856 
L 1013 4856 
Q 1481 4119 1714 3412 
Q 1947 2706 1947 2009 
Q 1947 1309 1714 600 
Q 1481 -109 1013 -844 
L 513 -844 
Q 928 -128 1133 580 
Q 1338 1288 1338 2009 
Q 1338 2731 1133 3434 
Q 928 4138 513 4856 
z
" transform="scale(0.015625)"/>
       <path id="DejaVuSans-Oblique-5d" d="M 744 3500 
L 3475 3500 
L 3372 2975 
L 738 459 
L 2913 459 
L 2822 0 
L -19 0 
L 84 525 
L 2719 3041 
L 653 3041 
L 744 3500 
z
" transform="scale(0.015625)"/>
      </defs>
      <use xlink:href="#DejaVuSans-Oblique-47" transform="translate(0 0.015625)"/>
      <use xlink:href="#DejaVuSans-b" transform="translate(63.476562 0.015625)"/>
      <use xlink:href="#DejaVuSans-Oblique-27" transform="translate(102.490234 0.015625)"/>
      <use xlink:href="#DejaVuSans-Oblique-30" transform="translate(179.492188 -14.984326) scale(0.7)"/>
      <use xlink:href="#DejaVuSans-12" transform="translate(242.62207 0.015625)"/>
      <use xlink:href="#DejaVuSans-Oblique-55" transform="translate(276.313477 0.015625)"/>
      <use xlink:href="#DejaVuSans-Oblique-47" transform="translate(317.426758 -14.984326) scale(0.7)"/>
      <use xlink:href="#DejaVuSans-c" transform="translate(364.594727 0.015625)"/>
      <use xlink:href="#DejaVuSans-12" transform="translate(403.608398 0.015625)"/>
      <use xlink:href="#DejaVuSans-Oblique-47" transform="translate(437.299805 0.015625)"/>
      <use xlink:href="#DejaVuSans-Oblique-5d" transform="translate(500.776367 0.015625)"/>
     </g>
    </g>
   </g>
   <g id="matplotlib.axis_2">
    <g id="ytick_1">
     <g id="line2d_8">
      <defs>
       <path id="m07305ffda8" d="M 0 0 
L -3.5 0 
" style="stroke: #000000; stroke-width: 0.8"/>
      </defs>
      <g>
       <use xlink:href="#m07305ffda8" x="53.722344" y="328.176636" style="stroke: #000000; stroke-width: 0.8"/>
      </g>
     </g>
     <g id="text_9">
      <!-- −30 -->
      <g transform="translate(25.617656 331.975464) scale(0.1 -0.1)">
       <defs>
        <path id="DejaVuSans-c9c" d="M 678 2272 
L 4684 2272 
L 4684 1741 
L 678 1741 
L 678 2272 
z
" transform="scale(0.015625)"/>
       </defs>
       <use xlink:href="#DejaVuSans-c9c"/>
       <use xlink:href="#DejaVuSans-16" transform="translate(83.796875 0)"/>
       <use xlink:href="#DejaVuSans-13" transform="translate(147.421875 0)"/>
      </g>
     </g>
    </g>
    <g id="ytick_2">
     <g id="line2d_9">
      <g>
       <use xlink:href="#m07305ffda8" x="53.722344" y="250.188729" style="stroke: #000000; stroke-width: 0.8"/>
      </g>
     </g>
     <g id="text_10">
      <!-- −20 -->
      <g transform="translate(25.617656 253.987557) scale(0.1 -0.1)">
       <use xlink:href="#DejaVuSans-c9c"/>
       <use xlink:href="#DejaVuSans-15" transform="translate(83.796875 0)"/>
       <use xlink:href="#DejaVuSans-13" transform="translate(147.421875 0)"/>
      </g>
     </g>
    </g>
    <g id="ytick_3">
     <g id="line2d_10">
      <g>
       <use xlink:href="#m07305ffda8" x="53.722344" y="172.200823" style="stroke: #000000; stroke-width: 0.8"/>
      </g>
     </g>
     <g id="text_11">
      <!-- −10 -->
      <g transform="translate(25.617656 175.999651) scale(0.1 -0.1)">
       <use xlink:href="#DejaVuSans-c9c"/>
       <use xlink:href="#DejaVuSans-14" transform="translate(83.796875 0)"/>
       <use xlink:href="#DejaVuSans-13" transform="translate(147.421875 0)"/>
      </g>
     </g>
    </g>
    <g id="ytick_4">
     <g id="line2d_11">
      <g>
       <use xlink:href="#m07305ffda8" x="53.722344" y="94.212916" style="stroke: #000000; stroke-width: 0.8"/>
      </g>
     </g>
     <g id="text_12">
      <!-- 0 -->
      <g transform="translate(40.359844 98.011744) scale(0.1 -0.1)">
       <use xlink:href="#DejaVuSans-13"/>
      </g>
     </g>
    </g>
    <g id="text_13">
     <!-- $d(D_H/r_d)/dz$ -->
     <g transform="translate(19.215313 235.318828) rotate(-90) scale(0.1 -0.1)">
      <defs>
       <path id="DejaVuSans-Oblique-2b" d="M 1081 4666 
L 1716 4666 
L 1344 2753 
L 3634 2753 
L 4006 4666 
L 4641 4666 
L 3731 0 
L 3097 0 
L 3531 2222 
L 1241 2222 
L 806 0 
L 172 0 
L 1081 4666 
z
" transform="scale(0.015625)"/>
      </defs>
      <use xlink:href="#DejaVuSans-Oblique-47" transform="translate(0 0.015625)"/>
      <use xlink:href="#DejaVuSans-b" transform="translate(63.476562 0.015625)"/>
      <use xlink:href="#DejaVuSans-Oblique-27" transform="translate(102.490234 0.015625)"/>
      <use xlink:href="#DejaVuSans-Oblique-2b" transform="translate(179.492188 -14.984326) scale(0.7)"/>
      <use xlink:href="#DejaVuSans-12" transform="translate(234.863281 0.015625)"/>
      <use xlink:href="#DejaVuSans-Oblique-55" transform="translate(268.554688 0.015625)"/>
      <use xlink:href="#DejaVuSans-Oblique-47" transform="translate(309.667969 -14.984326) scale(0.7)"/>
      <use xlink:href="#DejaVuSans-c" transform="translate(356.835938 0.015625)"/>
      <use xlink:href="#DejaVuSans-12" transform="translate(395.849609 0.015625)"/>
      <use xlink:href="#DejaVuSans-Oblique-47" transform="translate(429.541016 0.015625)"/>
      <use xlink:href="#DejaVuSans-Oblique-5d" transform="translate(493.017578 0.015625)"/>
     </g>
    </g>
   </g>
   <g id="QuadContourSet_1">
    <path d="M 282.315479 389.877656 
L 290.198001 387.515853 
L 298.408961 381.611346 
L 300.051153 380.430444 
L 306.619922 381.611346 
L 309.904306 389.877656 
L 313.18869 381.611346 
L 315.816197 373.345036 
L 318.772143 365.078725 
L 319.757458 362.323288 
L 326.326226 356.812415 
L 329.610611 355.159153 
L 336.179379 348.546104 
L 339.463763 345.23958 
L 345.375654 340.279794 
L 341.927051 332.013484 
L 339.463763 329.258047 
L 334.537187 323.747173 
L 339.463763 319.614018 
L 349.316915 315.480863 
L 349.316915 307.214553 
L 339.463763 302.048109 
L 333.305543 307.214553 
L 329.610611 312.174339 
L 326.326226 307.214553 
L 329.610611 301.01482 
L 332.073899 298.948242 
L 339.463763 292.748509 
L 341.434393 290.681932 
L 339.463763 286.548777 
L 329.610611 283.79334 
L 327.968418 282.415621 
L 329.610611 278.282466 
L 339.463763 278.282466 
L 341.434393 274.149311 
L 339.463763 271.393874 
L 337.000475 265.883001 
L 339.463763 260.372127 
L 341.927051 257.61669 
L 339.463763 249.35038 
L 339.463763 249.35038 
L 337.493132 241.08407 
L 329.610611 232.817759 
L 329.610611 232.817759 
L 329.610611 232.817759 
L 339.463763 224.551449 
L 329.610611 222.484871 
L 326.923387 216.285138 
L 329.610611 210.085406 
L 334.537187 208.018828 
L 329.610611 203.885673 
L 328.378966 199.752518 
L 328.515816 191.486207 
L 327.421021 183.219897 
L 329.610611 179.913373 
L 333.551871 183.219897 
L 339.463763 188.179683 
L 344.390339 183.219897 
L 339.463763 177.020164 
L 337.000475 174.953587 
L 339.463763 172.19815 
L 342.748147 166.687276 
L 339.463763 163.380752 
L 335.522502 166.687276 
L 329.610611 170.820431 
L 319.757458 170.820431 
L 318.115266 166.687276 
L 319.757458 158.420966 
L 316.473074 150.154656 
L 315.816197 141.888345 
L 319.757458 133.622035 
L 319.757458 125.355724 
L 319.757458 125.355724 
L 329.610611 117.089414 
L 319.757458 110.889681 
L 318.772143 108.823104 
L 319.757458 107.642202 
L 329.610611 108.823104 
L 337.000475 100.556793 
L 329.610611 92.290483 
L 329.610611 92.290483 
L 329.610611 92.290483 
L 339.463763 88.157328 
L 342.748147 92.290483 
L 349.316915 95.597007 
L 356.70678 100.556793 
L 349.316915 104.099498 
L 339.463763 108.823104 
L 339.463763 108.823104 
L 329.610611 117.089414 
L 339.463763 122.993921 
L 346.501729 117.089414 
L 349.316915 114.333977 
L 359.170068 112.956259 
L 363.111329 108.823104 
L 361.633356 100.556793 
L 366.559932 92.290483 
L 365.738836 84.024173 
L 366.704831 75.757862 
L 368.037905 67.491552 
L 369.02322 59.225241 
L 362.454452 50.958931 
L 363.392847 42.692621 
L 359.170068 39.149916 
L 351.780203 42.692621 
L 355.228807 50.958931 
L 349.316915 59.225241 
L 349.316915 59.225241 
L 349.316915 59.225241 
L 339.463763 55.092086 
L 338.232119 50.958931 
L 333.551871 42.692621 
L 329.610611 39.937184 
L 319.757458 38.559466 
L 314.830882 42.692621 
L 309.904306 44.759198 
L 307.441018 42.692621 
L 309.904306 38.559466 
L 314.830882 34.42631 
L 309.904306 30.883606 
L 300.051153 27.734535 
L 292.168631 26.16 
M 202.067027 26.16 
L 201.51963 27.078479 
L 191.666477 27.537718 
L 181.813325 27.193289 
L 171.960172 34.42631 
L 171.960172 34.42631 
L 162.10702 34.42631 
L 162.10702 34.42631 
L 152.253868 31.670874 
L 145.685099 34.42631 
L 145.087939 42.692621 
L 142.400715 50.958931 
L 142.400715 50.958931 
L 132.547563 56.469805 
L 129.263179 59.225241 
L 132.547563 60.878504 
L 142.400715 61.291819 
L 146.095647 67.491552 
L 152.253868 74.380144 
L 153.89606 75.757862 
L 158.822636 84.024173 
L 162.10702 86.09075 
L 166.3298 92.290483 
L 171.960172 98.903531 
L 173.054967 100.556793 
L 176.886749 108.823104 
L 176.886749 117.089414 
L 171.960172 121.222569 
L 166.3298 125.355724 
L 171.960172 130.866598 
L 181.813325 125.355724 
L 181.813325 125.355724 
L 181.813325 125.355724 
L 184.500548 133.622035 
L 189.203189 141.888345 
L 186.739901 150.154656 
L 191.666477 154.287811 
L 201.51963 157.669483 
L 202.504945 158.420966 
L 201.51963 166.687276 
L 206.446206 174.953587 
L 204.804014 183.219897 
L 211.372782 190.305306 
L 216.299358 191.486207 
L 217.284673 199.752518 
L 221.225934 203.059042 
L 224.510318 208.018828 
L 223.689222 216.285138 
L 224.510318 224.551449 
L 226.15251 232.817759 
L 226.15251 241.08407 
L 231.079087 244.390594 
L 234.774019 249.35038 
L 231.079087 255.550113 
L 226.15251 257.61669 
L 231.079087 261.749846 
L 240.932239 261.749846 
L 244.8735 265.883001 
L 240.932239 271.393874 
L 238.468951 274.149311 
L 240.932239 278.282466 
L 242.90287 282.415621 
L 242.163883 290.681932 
L 240.932239 294.815087 
L 238.961609 298.948242 
L 236.990978 307.214553 
L 240.932239 310.521077 
L 246.84413 315.480863 
L 250.785391 323.747173 
L 250.785391 323.747173 
L 250.785391 323.747173 
L 242.90287 332.013484 
L 245.858815 340.279794 
L 246.84413 348.546104 
L 247.501007 356.812415 
L 250.785391 360.118939 
L 253.741337 365.078725 
L 258.175256 373.345036 
L 260.638544 377.478191 
L 270.491696 377.478191 
L 280.344849 381.611346 
L 280.344849 381.611346 
L 280.344849 381.611346 
L 277.881561 389.877656 
M 287.734713 26.16 
L 290.198001 27.813262 
L 292.074792 34.42631 
L 290.198001 41.039359 
L 280.344849 36.492888 
L 274.432957 42.692621 
L 270.491696 45.999145 
L 266.112517 42.692621 
L 262.609174 34.42631 
L 260.638544 32.773048 
L 250.785391 28.915437 
L 242.339832 34.42631 
L 240.932239 34.73247 
L 239.290047 34.42631 
L 240.932239 26.16 
M 290.198001 374.722754 
L 283.629233 373.345036 
L 290.198001 372.164134 
L 291.605594 373.345036 
L 290.198001 374.722754 
z
M 349.316915 368.62143 
L 354.243491 365.078725 
L 349.316915 360.118939 
L 343.405024 365.078725 
L 349.316915 368.62143 
z
M 201.51963 351.301541 
L 204.804014 348.546104 
L 201.51963 345.790668 
L 198.235245 348.546104 
L 201.51963 351.301541 
z
M 181.813325 334.080061 
L 183.783955 332.013484 
L 181.813325 329.258047 
L 179.350037 323.747173 
L 181.813325 320.440649 
L 186.739901 315.480863 
L 181.813325 310.521077 
L 175.901433 315.480863 
L 171.960172 317.547441 
L 166.048281 323.747173 
L 171.960172 328.70696 
L 179.842694 332.013484 
L 181.813325 334.080061 
z
M 260.638544 315.480863 
L 260.638544 315.480863 
L 260.638544 315.480863 
L 260.638544 315.480863 
L 260.638544 315.480863 
z
M 171.960172 309.969989 
L 175.244556 307.214553 
L 171.960172 303.081397 
L 170.552579 298.948242 
L 167.033596 290.681932 
L 171.960172 289.02867 
L 176.886749 282.415621 
L 171.960172 277.692016 
L 164.07765 282.415621 
L 162.10702 286.548777 
L 160.13639 290.681932 
L 153.661461 298.948242 
L 162.10702 307.214553 
L 162.10702 307.214553 
L 171.960172 309.969989 
z
M 181.813325 301.703679 
L 184.276613 298.948242 
L 181.813325 294.815087 
L 176.886749 298.948242 
L 181.813325 301.703679 
z
M 211.372782 301.703679 
L 221.225934 298.948242 
L 211.372782 296.881665 
L 209.402151 298.948242 
L 211.372782 301.703679 
z
M 250.785391 298.948242 
L 250.785391 298.948242 
L 250.785391 298.948242 
L 250.785391 298.948242 
L 250.785391 298.948242 
z
M 231.079087 293.437369 
L 237.647855 290.681932 
L 231.079087 286.548777 
L 226.15251 290.681932 
L 231.079087 293.437369 
z
M 211.372782 284.482199 
L 213.83607 282.415621 
L 216.299358 274.149311 
L 211.372782 269.189525 
L 207.150002 274.149311 
L 209.402151 282.415621 
L 211.372782 284.482199 
z
M 260.638544 284.482199 
L 257.35416 282.415621 
L 260.638544 280.578664 
L 261.534285 282.415621 
L 260.638544 284.482199 
z
M 221.225934 267.949578 
L 226.15251 265.883001 
L 221.225934 261.749846 
L 217.94155 265.883001 
L 221.225934 267.949578 
z
M 359.170068 238.328633 
L 364.096644 232.817759 
L 359.170068 228.684604 
L 355.228807 232.817759 
L 359.170068 238.328633 
z
M 300.051153 141.888345 
L 300.051153 141.888345 
L 300.051153 141.888345 
L 300.051153 141.888345 
L 300.051153 141.888345 
z
M 339.463763 143.954923 
L 342.748147 141.888345 
L 339.463763 140.235083 
L 337.000475 141.888345 
L 339.463763 143.954923 
z
M 369.02322 127.008987 
L 370.993851 125.355724 
L 369.02322 121.222569 
L 366.559932 125.355724 
L 369.02322 127.008987 
z
M 309.904306 119.155992 
L 308.918991 117.089414 
L 309.904306 116.262783 
L 312.367594 117.089414 
L 309.904306 119.155992 
z
M 300.051153 96.423638 
L 296.766769 92.290483 
L 296.766769 84.024173 
L 298.64356 75.757862 
L 290.198001 68.672453 
L 287.734713 67.491552 
L 282.315479 59.225241 
L 286.913617 50.958931 
L 290.198001 46.825776 
L 300.051153 50.958931 
L 300.051153 50.958931 
L 307.441018 59.225241 
L 300.051153 67.491552 
L 309.904306 75.757862 
L 319.757458 69.558129 
L 329.610611 74.1046 
L 333.305543 75.757862 
L 329.610611 81.957595 
L 319.757458 78.513299 
L 309.904306 75.757862 
L 304.273933 84.024173 
L 309.904306 92.290483 
L 309.904306 92.290483 
L 309.904306 92.290483 
L 300.051153 96.423638 
z
M 378.876372 81.268736 
L 382.160757 75.757862 
L 378.876372 72.451338 
L 375.591988 75.757862 
L 378.876372 81.268736 
z
M 162.10702 67.491552 
L 162.10702 67.491552 
L 162.10702 67.491552 
L 171.960172 67.491552 
L 171.960172 67.491552 
L 171.960172 67.491552 
L 162.10702 67.491552 
z
M 319.757458 64.736115 
L 313.18869 59.225241 
L 318.772143 50.958931 
L 319.757458 48.892354 
L 320.989102 50.958931 
L 322.572645 59.225241 
L 319.757458 64.736115 
z
M 122.69441 53.714368 
L 125.978795 50.958931 
L 122.69441 46.825776 
L 119.410026 50.958931 
L 122.69441 53.714368 
z
" clip-path="url(#pe0e29ea9fe)" style="fill: none; stroke: #440154; stroke-width: 1.5"/>
    <path d="M 210.277987 26.16 
L 207.789817 34.42631 
L 201.51963 42.692621 
L 202.614424 50.958931 
L 201.51963 51.99222 
L 191.666477 52.612193 
L 190.770736 50.958931 
L 181.813325 45.792487 
L 175.901433 42.692621 
L 171.960172 40.952345 
L 169.770583 42.692621 
L 171.960172 46.825776 
L 174.775359 50.958931 
L 181.813325 57.317631 
L 186.036104 59.225241 
L 181.813325 67.491552 
L 190.024285 75.757862 
L 191.666477 77.411124 
L 194.481664 84.024173 
L 195.18546 92.290483 
L 200.112036 100.556793 
L 201.51963 102.623371 
L 203.367096 108.823104 
L 202.504945 117.089414 
L 201.51963 121.222569 
L 200.534314 125.355724 
L 201.51963 129.48888 
L 202.927223 133.622035 
L 206.680805 141.888345 
L 211.372782 147.792853 
L 213.562371 150.154656 
L 214.657166 158.420966 
L 217.284673 166.687276 
L 220.522138 174.953587 
L 221.225934 183.219897 
L 231.079087 183.219897 
L 231.079087 183.219897 
L 231.079087 183.219897 
L 228.889497 191.486207 
L 231.079087 194.792732 
L 233.542375 199.752518 
L 235.513005 208.018828 
L 240.932239 213.070462 
L 247.829446 216.285138 
L 250.785391 221.244925 
L 254.069776 224.551449 
L 250.785391 226.618026 
L 247.829446 232.817759 
L 250.785391 239.903168 
L 258.175256 232.817759 
L 260.638544 230.062322 
L 262.609174 232.817759 
L 261.45964 241.08407 
L 270.491696 248.661521 
L 272.133888 249.35038 
L 280.344849 255.254887 
L 290.198001 256.435789 
L 291.605594 257.61669 
L 290.198001 258.797592 
L 280.344849 259.119656 
L 271.477011 265.883001 
L 280.344849 271.197057 
L 290.198001 269.698221 
L 300.051153 274.149311 
L 303.746086 265.883001 
L 305.963045 257.61669 
L 309.904306 251.003642 
L 310.9991 249.35038 
L 309.904306 247.283802 
L 300.051153 243.667292 
L 290.198001 242.264971 
L 289.103206 241.08407 
L 290.198001 240.753417 
L 299.293219 232.817759 
L 300.051153 231.440041 
L 309.904306 232.817759 
L 313.599238 224.551449 
L 309.904306 222.071556 
L 306.769212 216.285138 
L 309.08321 208.018828 
L 308.388436 199.752518 
L 307.333918 191.486207 
L 307.933675 183.219897 
L 305.593552 174.953587 
L 300.051153 168.190242 
L 298.7374 166.687276 
L 298.080523 158.420966 
L 290.198001 153.200138 
L 280.344849 150.485308 
L 279.99295 150.154656 
L 280.344849 148.501393 
L 285.975221 141.888345 
L 286.25674 133.622035 
L 281.24059 125.355724 
L 280.344849 123.702462 
L 276.761884 117.089414 
L 274.640392 108.823104 
L 270.491696 103.31223 
L 261.733339 108.823104 
L 260.638544 109.741583 
L 260.058947 108.823104 
L 259.653229 100.556793 
L 260.638544 98.903531 
L 267.207312 92.290483 
L 260.638544 85.677435 
L 259.700148 84.024173 
L 256.697283 75.757862 
L 259.230951 67.491552 
L 258.175256 59.225241 
L 254.4155 50.958931 
L 250.785391 44.529579 
L 249.269522 42.692621 
L 240.932239 39.324865 
L 231.079087 41.941138 
L 221.225934 38.559466 
L 214.955746 34.42631 
L 221.225934 29.165931 
L 223.689222 26.16 
M 270.491696 368.836139 
L 275.183674 365.078725 
L 270.491696 361.142387 
L 265.017723 365.078725 
L 270.491696 368.836139 
z
M 290.198001 358.878992 
L 300.051153 359.912281 
L 304.273933 356.812415 
L 300.051153 352.303518 
L 290.198001 354.056978 
L 285.271425 356.812415 
L 290.198001 358.878992 
z
M 270.491696 346.114837 
L 280.344849 340.279794 
L 270.491696 334.76892 
L 265.56512 340.279794 
L 270.491696 346.114837 
z
M 290.198001 347.827295 
L 300.051153 346.114837 
L 307.441018 340.279794 
L 302.514441 332.013484 
L 300.051153 328.70696 
L 296.939632 323.747173 
L 300.051153 315.480863 
L 295.945673 307.214553 
L 296.261479 298.948242 
L 290.198001 293.437369 
L 284.942986 298.948242 
L 283.300794 307.214553 
L 288.227371 315.480863 
L 280.344849 322.566272 
L 278.155259 323.747173 
L 280.344849 332.013484 
L 280.344849 332.013484 
L 280.344849 340.279794 
L 290.198001 347.827295 
z
M 270.491696 287.008016 
L 280.344849 284.895515 
L 284.039781 282.415621 
L 280.344849 279.315755 
L 270.491696 279.236271 
L 268.252343 282.415621 
L 270.491696 287.008016 
z
M 201.51963 71.165468 
L 198.704443 67.491552 
L 201.51963 64.485621 
L 205.898808 67.491552 
L 201.51963 71.165468 
z
M 359.170068 72.451338 
L 360.648041 67.491552 
L 359.170068 63.948847 
L 357.199437 67.491552 
L 359.170068 72.451338 
z
M 240.932239 51.510018 
L 237.647855 50.958931 
L 240.932239 50.270072 
L 242.163883 50.958931 
L 240.932239 51.510018 
z
M 300.051153 36.492888 
L 301.458747 34.42631 
L 300.051153 33.639043 
L 299.112758 34.42631 
L 300.051153 36.492888 
z
" clip-path="url(#pe0e29ea9fe)" style="fill: none; stroke: #fde725; stroke-width: 1.5"/>
   </g>
   <g id="patch_3">
    <path d="M 53.722344 389.877656 
L 53.722344 26.16 
" style="fill: none; stroke: #000000; stroke-width: 0.8; stroke-linejoin: miter; stroke-linecap: square"/>
   </g>
   <g id="patch_4">
    <path d="M 487.261049 389.877656 
L 487.261049 26.16 
" style="fill: none; stroke: #000000; stroke-width: 0.8; stroke-linejoin: miter; stroke-linecap: square"/>
   </g>
   <g id="patch_5">
    <path d="M 53.722344 389.877656 
L 487.261049 389.877656 
" style="fill: none; stroke: #000000; stroke-width: 0.8; stroke-linejoin: miter; stroke-linecap: square"/>
   </g>
   <g id="patch_6">
    <path d="M 53.722344 26.16 
L 487.261049 26.16 
" style="fill: none; stroke: #000000; stroke-width: 0.8; stroke-linejoin: miter; stroke-linecap: square"/>
   </g>
   <g id="text_14">
    <!-- Joint derivative constraint, z=0.75 (quadratic model) -->
    <g transform="translate(111.986696 20.16) scale(0.12 -0.12)">
     <defs>
      <path id="DejaVuSans-2d" d="M 628 4666 
L 1259 4666 
L 1259 325 
Q 1259 -519 939 -900 
Q 619 -1281 -91 -1281 
L -331 -1281 
L -331 -750 
L -134 -750 
Q 284 -750 456 -515 
Q 628 -281 628 325 
L 628 4666 
z
" transform="scale(0.015625)"/>
      <path id="DejaVuSans-52" d="M 1959 3097 
Q 1497 3097 1228 2736 
Q 959 2375 959 1747 
Q 959 1119 1226 758 
Q 1494 397 1959 397 
Q 2419 397 2687 759 
Q 2956 1122 2956 1747 
Q 2956 2369 2687 2733 
Q 2419 3097 1959 3097 
z
M 1959 3584 
Q 2709 3584 3137 3096 
Q 3566 2609 3566 1747 
Q 3566 888 3137 398 
Q 2709 -91 1959 -91 
Q 1206 -91 779 398 
Q 353 888 353 1747 
Q 353 2609 779 3096 
Q 1206 3584 1959 3584 
z
" transform="scale(0.015625)"/>
      <path id="DejaVuSans-4c" d="M 603 3500 
L 1178 3500 
L 1178 0 
L 603 0 
L 603 3500 
z
M 603 4863 
L 1178 4863 
L 1178 4134 
L 603 4134 
L 603 4863 
z
" transform="scale(0.015625)"/>
      <path id="DejaVuSans-51" d="M 3513 2113 
L 3513 0 
L 2938 0 
L 2938 2094 
Q 2938 2591 2744 2837 
Q 2550 3084 2163 3084 
Q 1697 3084 1428 2787 
Q 1159 2491 1159 1978 
L 1159 0 
L 581 0 
L 581 3500 
L 1159 3500 
L 1159 2956 
Q 1366 3272 1645 3428 
Q 1925 3584 2291 3584 
Q 2894 3584 3203 3211 
Q 3513 2838 3513 2113 
z
" transform="scale(0.015625)"/>
      <path id="DejaVuSans-57" d="M 1172 4494 
L 1172 3500 
L 2356 3500 
L 2356 3053 
L 1172 3053 
L 1172 1153 
Q 1172 725 1289 603 
Q 1406 481 1766 481 
L 2356 481 
L 2356 0 
L 1766 0 
Q 1100 0 847 248 
Q 594 497 594 1153 
L 594 3053 
L 172 3053 
L 172 3500 
L 594 3500 
L 594 4494 
L 1172 4494 
z
" transform="scale(0.015625)"/>
      <path id="DejaVuSans-3" transform="scale(0.015625)"/>
      <path id="DejaVuSans-47" d="M 2906 2969 
L 2906 4863 
L 3481 4863 
L 3481 0 
L 2906 0 
L 2906 525 
Q 2725 213 2448 61 
Q 2172 -91 1784 -91 
Q 1150 -91 751 415 
Q 353 922 353 1747 
Q 353 2572 751 3078 
Q 1150 3584 1784 3584 
Q 2172 3584 2448 3432 
Q 2725 3281 2906 2969 
z
M 947 1747 
Q 947 1113 1208 752 
Q 1469 391 1925 391 
Q 2381 391 2643 752 
Q 2906 1113 2906 1747 
Q 2906 2381 2643 2742 
Q 2381 3103 1925 3103 
Q 1469 3103 1208 2742 
Q 947 2381 947 1747 
z
" transform="scale(0.015625)"/>
      <path id="DejaVuSans-48" d="M 3597 1894 
L 3597 1613 
L 953 1613 
Q 991 1019 1311 708 
Q 1631 397 2203 397 
Q 2534 397 2845 478 
Q 3156 559 3463 722 
L 3463 178 
Q 3153 47 2828 -22 
Q 2503 -91 2169 -91 
Q 1331 -91 842 396 
Q 353 884 353 1716 
Q 353 2575 817 3079 
Q 1281 3584 2069 3584 
Q 2775 3584 3186 3129 
Q 3597 2675 3597 1894 
z
M 3022 2063 
Q 3016 2534 2758 2815 
Q 2500 3097 2075 3097 
Q 1594 3097 1305 2825 
Q 1016 2553 972 2059 
L 3022 2063 
z
" transform="scale(0.015625)"/>
      <path id="DejaVuSans-55" d="M 2631 2963 
Q 2534 3019 2420 3045 
Q 2306 3072 2169 3072 
Q 1681 3072 1420 2755 
Q 1159 2438 1159 1844 
L 1159 0 
L 581 0 
L 581 3500 
L 1159 3500 
L 1159 2956 
Q 1341 3275 1631 3429 
Q 1922 3584 2338 3584 
Q 2397 3584 2469 3576 
Q 2541 3569 2628 3553 
L 2631 2963 
z
" transform="scale(0.015625)"/>
      <path id="DejaVuSans-59" d="M 191 3500 
L 800 3500 
L 1894 563 
L 2988 3500 
L 3597 3500 
L 2284 0 
L 1503 0 
L 191 3500 
z
" transform="scale(0.015625)"/>
      <path id="DejaVuSans-44" d="M 2194 1759 
Q 1497 1759 1228 1600 
Q 959 1441 959 1056 
Q 959 750 1161 570 
Q 1363 391 1709 391 
Q 2188 391 2477 730 
Q 2766 1069 2766 1631 
L 2766 1759 
L 2194 1759 
z
M 3341 1997 
L 3341 0 
L 2766 0 
L 2766 531 
Q 2569 213 2275 61 
Q 1981 -91 1556 -91 
Q 1019 -91 701 211 
Q 384 513 384 1019 
Q 384 1609 779 1909 
Q 1175 2209 1959 2209 
L 2766 2209 
L 2766 2266 
Q 2766 2663 2505 2880 
Q 2244 3097 1772 3097 
Q 1472 3097 1187 3025 
Q 903 2953 641 2809 
L 641 3341 
Q 956 3463 1253 3523 
Q 1550 3584 1831 3584 
Q 2591 3584 2966 3190 
Q 3341 2797 3341 1997 
z
" transform="scale(0.015625)"/>
      <path id="DejaVuSans-46" d="M 3122 3366 
L 3122 2828 
Q 2878 2963 2633 3030 
Q 2388 3097 2138 3097 
Q 1578 3097 1268 2742 
Q 959 2388 959 1747 
Q 959 1106 1268 751 
Q 1578 397 2138 397 
Q 2388 397 2633 464 
Q 2878 531 3122 666 
L 3122 134 
Q 2881 22 2623 -34 
Q 2366 -91 2075 -91 
Q 1284 -91 818 406 
Q 353 903 353 1747 
Q 353 2603 823 3093 
Q 1294 3584 2113 3584 
Q 2378 3584 2631 3529 
Q 2884 3475 3122 3366 
z
" transform="scale(0.015625)"/>
      <path id="DejaVuSans-56" d="M 2834 3397 
L 2834 2853 
Q 2591 2978 2328 3040 
Q 2066 3103 1784 3103 
Q 1356 3103 1142 2972 
Q 928 2841 928 2578 
Q 928 2378 1081 2264 
Q 1234 2150 1697 2047 
L 1894 2003 
Q 2506 1872 2764 1633 
Q 3022 1394 3022 966 
Q 3022 478 2636 193 
Q 2250 -91 1575 -91 
Q 1294 -91 989 -36 
Q 684 19 347 128 
L 347 722 
Q 666 556 975 473 
Q 1284 391 1588 391 
Q 1994 391 2212 530 
Q 2431 669 2431 922 
Q 2431 1156 2273 1281 
Q 2116 1406 1581 1522 
L 1381 1569 
Q 847 1681 609 1914 
Q 372 2147 372 2553 
Q 372 3047 722 3315 
Q 1072 3584 1716 3584 
Q 2034 3584 2315 3537 
Q 2597 3491 2834 3397 
z
" transform="scale(0.015625)"/>
      <path id="DejaVuSans-f" d="M 750 794 
L 1409 794 
L 1409 256 
L 897 -744 
L 494 -744 
L 750 256 
L 750 794 
z
" transform="scale(0.015625)"/>
      <path id="DejaVuSans-5d" d="M 353 3500 
L 3084 3500 
L 3084 2975 
L 922 459 
L 3084 459 
L 3084 0 
L 275 0 
L 275 525 
L 2438 3041 
L 353 3041 
L 353 3500 
z
" transform="scale(0.015625)"/>
      <path id="DejaVuSans-20" d="M 678 2906 
L 4684 2906 
L 4684 2381 
L 678 2381 
L 678 2906 
z
M 678 1631 
L 4684 1631 
L 4684 1100 
L 678 1100 
L 678 1631 
z
" transform="scale(0.015625)"/>
      <path id="DejaVuSans-11" d="M 684 794 
L 1344 794 
L 1344 0 
L 684 0 
L 684 794 
z
" transform="scale(0.015625)"/>
      <path id="DejaVuSans-1a" d="M 525 4666 
L 3525 4666 
L 3525 4397 
L 1831 0 
L 1172 0 
L 2766 4134 
L 525 4134 
L 525 4666 
z
" transform="scale(0.015625)"/>
      <path id="DejaVuSans-54" d="M 947 1747 
Q 947 1113 1208 752 
Q 1469 391 1925 391 
Q 2381 391 2643 752 
Q 2906 1113 2906 1747 
Q 2906 2381 2643 2742 
Q 2381 3103 1925 3103 
Q 1469 3103 1208 2742 
Q 947 2381 947 1747 
z
M 2906 525 
Q 2725 213 2448 61 
Q 2172 -91 1784 -91 
Q 1150 -91 751 415 
Q 353 922 353 1747 
Q 353 2572 751 3078 
Q 1150 3584 1784 3584 
Q 2172 3584 2448 3432 
Q 2725 3281 2906 2969 
L 2906 3500 
L 3481 3500 
L 3481 -1331 
L 2906 -1331 
L 2906 525 
z
" transform="scale(0.015625)"/>
      <path id="DejaVuSans-58" d="M 544 1381 
L 544 3500 
L 1119 3500 
L 1119 1403 
Q 1119 906 1312 657 
Q 1506 409 1894 409 
Q 2359 409 2629 706 
Q 2900 1003 2900 1516 
L 2900 3500 
L 3475 3500 
L 3475 0 
L 2900 0 
L 2900 538 
Q 2691 219 2414 64 
Q 2138 -91 1772 -91 
Q 1169 -91 856 284 
Q 544 659 544 1381 
z
M 1991 3584 
L 1991 3584 
z
" transform="scale(0.015625)"/>
      <path id="DejaVuSans-50" d="M 3328 2828 
Q 3544 3216 3844 3400 
Q 4144 3584 4550 3584 
Q 5097 3584 5394 3201 
Q 5691 2819 5691 2113 
L 5691 0 
L 5113 0 
L 5113 2094 
Q 5113 2597 4934 2840 
Q 4756 3084 4391 3084 
Q 3944 3084 3684 2787 
Q 3425 2491 3425 1978 
L 3425 0 
L 2847 0 
L 2847 2094 
Q 2847 2600 2669 2842 
Q 2491 3084 2119 3084 
Q 1678 3084 1418 2786 
Q 1159 2488 1159 1978 
L 1159 0 
L 581 0 
L 581 3500 
L 1159 3500 
L 1159 2956 
Q 1356 3278 1631 3431 
Q 1906 3584 2284 3584 
Q 2666 3584 2933 3390 
Q 3200 3197 3328 2828 
z
" transform="scale(0.015625)"/>
      <path id="DejaVuSans-4f" d="M 603 4863 
L 1178 4863 
L 1178 0 
L 603 0 
L 603 4863 
z
" transform="scale(0.015625)"/>
     </defs>
     <use xlink:href="#DejaVuSans-2d"/>
     <use xlink:href="#DejaVuSans-52" transform="translate(29.5 0)"/>
     <use xlink:href="#DejaVuSans-4c" transform="translate(90.6875 0)"/>
     <use xlink:href="#DejaVuSans-51" transform="translate(118.46875 0)"/>
     <use xlink:href="#DejaVuSans-57" transform="translate(181.84375 0)"/>
     <use xlink:href="#DejaVuSans-3" transform="translate(221.046875 0)"/>
     <use xlink:href="#DejaVuSans-47" transform="translate(252.828125 0)"/>
     <use xlink:href="#DejaVuSans-48" transform="translate(316.3125 0)"/>
     <use xlink:href="#DejaVuSans-55" transform="translate(377.84375 0)"/>
     <use xlink:href="#DejaVuSans-4c" transform="translate(418.953125 0)"/>
     <use xlink:href="#DejaVuSans-59" transform="translate(446.734375 0)"/>
     <use xlink:href="#DejaVuSans-44" transform="translate(505.921875 0)"/>
     <use xlink:href="#DejaVuSans-57" transform="translate(567.203125 0)"/>
     <use xlink:href="#DejaVuSans-4c" transform="translate(606.40625 0)"/>
     <use xlink:href="#DejaVuSans-59" transform="translate(634.1875 0)"/>
     <use xlink:href="#DejaVuSans-48" transform="translate(693.375 0)"/>
     <use xlink:href="#DejaVuSans-3" transform="translate(754.90625 0)"/>
     <use xlink:href="#DejaVuSans-46" transform="translate(786.6875 0)"/>
     <use xlink:href="#DejaVuSans-52" transform="translate(841.671875 0)"/>
     <use xlink:href="#DejaVuSans-51" transform="translate(902.859375 0)"/>
     <use xlink:href="#DejaVuSans-56" transform="translate(966.234375 0)"/>
     <use xlink:href="#DejaVuSans-57" transform="translate(1018.328125 0)"/>
     <use xlink:href="#DejaVuSans-55" transform="translate(1057.53125 0)"/>
     <use xlink:href="#DejaVuSans-44" transform="translate(1098.640625 0)"/>
     <use xlink:href="#DejaVuSans-4c" transform="translate(1159.921875 0)"/>
     <use xlink:href="#DejaVuSans-51" transform="translate(1187.703125 0)"/>
     <use xlink:href="#DejaVuSans-57" transform="translate(1251.078125 0)"/>
     <use xlink:href="#DejaVuSans-f" transform="translate(1290.28125 0)"/>
     <use xlink:href="#DejaVuSans-3" transform="translate(1322.0625 0)"/>
     <use xlink:href="#DejaVuSans-5d" transform="translate(1353.84375 0)"/>
     <use xlink:href="#DejaVuSans-20" transform="translate(1406.328125 0)"/>
     <use xlink:href="#DejaVuSans-13" transform="translate(1490.125 0)"/>
     <use xlink:href="#DejaVuSans-11" transform="translate(1553.75 0)"/>
     <use xlink:href="#DejaVuSans-1a" transform="translate(1585.53125 0)"/>
     <use xlink:href="#DejaVuSans-18" transform="translate(1649.15625 0)"/>
     <use xlink:href="#DejaVuSans-3" transform="translate(1712.78125 0)"/>
     <use xlink:href="#DejaVuSans-b" transform="translate(1744.5625 0)"/>
     <use xlink:href="#DejaVuSans-54" transform="translate(1783.578125 0)"/>
     <use xlink:href="#DejaVuSans-58" transform="translate(1847.0625 0)"/>
     <use xlink:href="#DejaVuSans-44" transform="translate(1910.4375 0)"/>
     <use xlink:href="#DejaVuSans-47" transform="translate(1971.71875 0)"/>
     <use xlink:href="#DejaVuSans-55" transform="translate(2035.203125 0)"/>
     <use xlink:href="#DejaVuSans-44" transform="translate(2076.3125 0)"/>
     <use xlink:href="#DejaVuSans-57" transform="translate(2137.59375 0)"/>
     <use xlink:href="#DejaVuSans-4c" transform="translate(2176.796875 0)"/>
     <use xlink:href="#DejaVuSans-46" transform="translate(2204.578125 0)"/>
     <use xlink:href="#DejaVuSans-3" transform="translate(2259.5625 0)"/>
     <use xlink:href="#DejaVuSans-50" transform="translate(2291.34375 0)"/>
     <use xlink:href="#DejaVuSans-52" transform="translate(2388.75 0)"/>
     <use xlink:href="#DejaVuSans-47" transform="translate(2449.9375 0)"/>
     <use xlink:href="#DejaVuSans-48" transform="translate(2513.421875 0)"/>
     <use xlink:href="#DejaVuSans-4f" transform="translate(2574.953125 0)"/>
     <use xlink:href="#DejaVuSans-c" transform="translate(2602.734375 0)"/>
    </g>
   </g>
   <g id="legend_1">
    <g id="patch_7">
     <path d="M 359.004799 64.161562 
L 480.261049 64.161562 
Q 482.261049 64.161562 482.261049 62.161562 
L 482.261049 33.16 
Q 482.261049 31.16 480.261049 31.16 
L 359.004799 31.16 
Q 357.004799 31.16 357.004799 33.16 
L 357.004799 62.161562 
Q 357.004799 64.161562 359.004799 64.161562 
z
" style="fill: #ffffff; opacity: 0.8; stroke: #cccccc; stroke-linejoin: miter"/>
    </g>
    <g id="PathCollection_3">
     <g>
      <use xlink:href="#mf145517625" x="371.004799" y="40.133437" style="fill: #1f77b4; stroke: #1f77b4"/>
     </g>
    </g>
    <g id="text_15">
     <!-- Posterior median -->
     <g transform="translate(389.004799 42.758437) scale(0.1 -0.1)">
      <defs>
       <path id="DejaVuSans-33" d="M 1259 4147 
L 1259 2394 
L 2053 2394 
Q 2494 2394 2734 2622 
Q 2975 2850 2975 3272 
Q 2975 3691 2734 3919 
Q 2494 4147 2053 4147 
L 1259 4147 
z
M 628 4666 
L 2053 4666 
Q 2838 4666 3239 4311 
Q 3641 3956 3641 3272 
Q 3641 2581 3239 2228 
Q 2838 1875 2053 1875 
L 1259 1875 
L 1259 0 
L 628 0 
L 628 4666 
z
" transform="scale(0.015625)"/>
      </defs>
      <use xlink:href="#DejaVuSans-33"/>
      <use xlink:href="#DejaVuSans-52" transform="translate(56.734375 0)"/>
      <use xlink:href="#DejaVuSans-56" transform="translate(117.921875 0)"/>
      <use xlink:href="#DejaVuSans-57" transform="translate(170.015625 0)"/>
      <use xlink:href="#DejaVuSans-48" transform="translate(209.21875 0)"/>
      <use xlink:href="#DejaVuSans-55" transform="translate(270.75 0)"/>
      <use xlink:href="#DejaVuSans-4c" transform="translate(311.859375 0)"/>
      <use xlink:href="#DejaVuSans-52" transform="translate(339.640625 0)"/>
      <use xlink:href="#DejaVuSans-55" transform="translate(400.828125 0)"/>
      <use xlink:href="#DejaVuSans-3" transform="translate(441.9375 0)"/>
      <use xlink:href="#DejaVuSans-50" transform="translate(473.71875 0)"/>
      <use xlink:href="#DejaVuSans-48" transform="translate(571.125 0)"/>
      <use xlink:href="#DejaVuSans-47" transform="translate(632.65625 0)"/>
      <use xlink:href="#DejaVuSans-4c" transform="translate(696.140625 0)"/>
      <use xlink:href="#DejaVuSans-44" transform="translate(723.921875 0)"/>
      <use xlink:href="#DejaVuSans-51" transform="translate(785.203125 0)"/>
     </g>
    </g>
    <g id="PathCollection_4">
     <g>
      <use xlink:href="#m038c9c4570" x="371.004799" y="55.134219" style="fill: #ff7f0e; stroke: #ff7f0e; stroke-width: 1.5"/>
     </g>
    </g>
    <g id="text_16">
     <!-- Fiducial flat LCDM -->
     <g transform="translate(389.004799 57.759219) scale(0.1 -0.1)">
      <defs>
       <path id="DejaVuSans-29" d="M 628 4666 
L 3309 4666 
L 3309 4134 
L 1259 4134 
L 1259 2759 
L 3109 2759 
L 3109 2228 
L 1259 2228 
L 1259 0 
L 628 0 
L 628 4666 
z
" transform="scale(0.015625)"/>
       <path id="DejaVuSans-13b0" d="M 1831 4863 
L 3431 4863 
L 3431 0 
L 2853 0 
L 2853 4384 
L 1825 4384 
Q 1516 4384 1395 4259 
Q 1275 4134 1275 3809 
L 1275 3500 
L 2222 3500 
L 2222 3053 
L 1275 3053 
L 1275 0 
L 697 0 
L 697 3053 
L 147 3053 
L 147 3500 
L 697 3500 
L 697 3744 
Q 697 4328 969 4595 
Q 1241 4863 1831 4863 
z
" transform="scale(0.015625)"/>
       <path id="DejaVuSans-2f" d="M 628 4666 
L 1259 4666 
L 1259 531 
L 3531 531 
L 3531 0 
L 628 0 
L 628 4666 
z
" transform="scale(0.015625)"/>
       <path id="DejaVuSans-26" d="M 4122 4306 
L 4122 3641 
Q 3803 3938 3442 4084 
Q 3081 4231 2675 4231 
Q 1875 4231 1450 3742 
Q 1025 3253 1025 2328 
Q 1025 1406 1450 917 
Q 1875 428 2675 428 
Q 3081 428 3442 575 
Q 3803 722 4122 1019 
L 4122 359 
Q 3791 134 3420 21 
Q 3050 -91 2638 -91 
Q 1578 -91 968 557 
Q 359 1206 359 2328 
Q 359 3453 968 4101 
Q 1578 4750 2638 4750 
Q 3056 4750 3426 4639 
Q 3797 4528 4122 4306 
z
" transform="scale(0.015625)"/>
       <path id="DejaVuSans-27" d="M 1259 4147 
L 1259 519 
L 2022 519 
Q 2988 519 3436 956 
Q 3884 1394 3884 2338 
Q 3884 3275 3436 3711 
Q 2988 4147 2022 4147 
L 1259 4147 
z
M 628 4666 
L 1925 4666 
Q 3281 4666 3915 4102 
Q 4550 3538 4550 2338 
Q 4550 1131 3912 565 
Q 3275 0 1925 0 
L 628 0 
L 628 4666 
z
" transform="scale(0.015625)"/>
       <path id="DejaVuSans-30" d="M 628 4666 
L 1569 4666 
L 2759 1491 
L 3956 4666 
L 4897 4666 
L 4897 0 
L 4281 0 
L 4281 4097 
L 3078 897 
L 2444 897 
L 1241 4097 
L 1241 0 
L 628 0 
L 628 4666 
z
" transform="scale(0.015625)"/>
      </defs>
      <use xlink:href="#DejaVuSans-29"/>
      <use xlink:href="#DejaVuSans-4c" transform="translate(50.234375 0)"/>
      <use xlink:href="#DejaVuSans-47" transform="translate(78.015625 0)"/>
      <use xlink:href="#DejaVuSans-58" transform="translate(141.5 0)"/>
      <use xlink:href="#DejaVuSans-46" transform="translate(204.875 0)"/>
      <use xlink:href="#DejaVuSans-4c" transform="translate(259.859375 0)"/>
      <use xlink:href="#DejaVuSans-44" transform="translate(287.640625 0)"/>
      <use xlink:href="#DejaVuSans-4f" transform="translate(348.921875 0)"/>
      <use xlink:href="#DejaVuSans-3" transform="translate(376.703125 0)"/>
      <use xlink:href="#DejaVuSans-13b0" transform="translate(408.484375 0)"/>
      <use xlink:href="#DejaVuSans-44" transform="translate(471.46875 0)"/>
      <use xlink:href="#DejaVuSans-57" transform="translate(532.75 0)"/>
      <use xlink:href="#DejaVuSans-3" transform="translate(571.953125 0)"/>
      <use xlink:href="#DejaVuSans-2f" transform="translate(603.734375 0)"/>
      <use xlink:href="#DejaVuSans-26" transform="translate(659.453125 0)"/>
      <use xlink:href="#DejaVuSans-27" transform="translate(729.28125 0)"/>
      <use xlink:href="#DejaVuSans-30" transform="translate(806.28125 0)"/>
     </g>
    </g>
   </g>
  </g>
 </g>
 <defs>
  <clipPath id="pe0e29ea9fe">
   <rect x="53.722344" y="26.16" width="433.538705" height="363.717656"/>
  </clipPath>
 </defs>
</svg>
