<?xml version="1.0" encoding="utf-8" standalone="no"?>
<!DOCTYPE svg PUBLIC "-//W3C//DTD SVG 1.1//EN"
  "http://www.w3.org/Graphics/SVG/1.1/DTD/svg11.dtd">
<svg xmlns:xlink="http://www.w3.org/1999/xlink" width="612pt" height="367.2pt" viewBox="0 0 612 367.2" xmlns="http://www.w3.org/2000/svg" version="1.1">
 <metadata>
  <rdf:RDF xmlns:dc="http://purl.org/dc/elements/1.1/" xmlns:cc="http://creativecommons.org/ns#" xmlns:rdf="http://www.w3.org/1999/02/22-rdf-syntax-ns#">
   <cc:Work>
    <dc:type rdf:resource="http://purl.org/dc/dcmitype/StillImage"/>
    <dc:date>2026-09-05T07:00:34.235247</dc:date>
    <dc:format>image/svg+xml</dc:format>
    <dc:creator>
     <cc:Agent>
      <dc:title>Matplotlib v3.11.1, https://matplotlib.org/</dc:title>
     </cc:Agent>
    </dc:creator>
   </cc:Work>
  </rdf:RDF>
 </metadata>
 <defs>
  <style type="text/css">*{stroke-linejoin: round; stroke-linecap: butt}</style>
 </defs>
 <g id="figure_1">
  <g id="patch_1">
   <path d="M 0 367.2 
L 612 367.2 
L 612 0 
L 0 0 
z
" style="fill: #ffffff"/>
  </g>
  <g id="axes_1">
   <g id="patch_2">
    <path d="M 55.162344 323.637656 
L 601.2 323.637656 
L 601.2 42.006328 
L 55.162344 42.006328 
z
" style="fill: #ffffff"/>
   </g>
   <g id="matplotlib.axis_1">
    <g id="xtick_1">
     <g id="line2d_1">
      <defs>
       <path id="m2ec9868152" d="M 0 0 
L 0 3.5 
" style="stroke: #000000; stroke-width: 0.8"/>
      </defs>
      <g>
       <use xlink:href="#m2ec9868152" x="74.072739" y="323.637656" style="stroke: #000000; stroke-width: 0.8"/>
      </g>
     </g>
     <g id="text_1">
      <!-- 60 -->
      <g transform="translate(67.710239 338.235312) scale(0.1 -0.1)">
       <defs>
        <path id="DejaVuSans-19" d="M 2113 2584 
Q 1688 2584 1439 2293 
Q 1191 2003 1191 1497 
Q 1191 994 1439 701 
Q 1688 409 2113 409 
Q 2538 409 2786 701 
Q 3034 994 3034 1497 
Q 3034 2003 2786 2293 
Q 2538 2584 2113 2584 
z
M 3366 4563 
L 3366 3988 
Q 3128 4100 2886 4159 
Q 2644 4219 2406 4219 
Q 1781 4219 1451 3797 
Q 1122 3375 1075 2522 
Q 1259 2794 1537 2939 
Q 1816 3084 2150 3084 
Q 2853 3084 3261 2657 
Q 3669 2231 3669 1497 
Q 3669 778 3244 343 
Q 2819 -91 2113 -91 
Q 1303 -91 875 529 
Q 447 1150 447 2328 
Q 447 3434 972 4092 
Q 1497 4750 2381 4750 
Q 2619 4750 2861 4703 
Q 3103 4656 3366 4563 
z
" transform="scale(0.015625)"/>
        <path id="DejaVuSans-13" d="M 2034 4250 
Q 1547 4250 1301 3770 
Q 1056 3291 1056 2328 
Q 1056 1369 1301 889 
Q 1547 409 2034 409 
Q 2525 409 2770 889 
Q 3016 1369 3016 2328 
Q 3016 3291 2770 3770 
Q 2525 4250 2034 4250 
z
M 2034 4750 
Q 2819 4750 3233 4129 
Q 3647 3509 3647 2328 
Q 3647 1150 3233 529 
Q 2819 -91 2034 -91 
Q 1250 -91 836 529 
Q 422 1150 422 2328 
Q 422 3509 836 4129 
Q 1250 4750 2034 4750 
z
" transform="scale(0.015625)"/>
       </defs>
       <use xlink:href="#DejaVuSans-19"/>
       <use xlink:href="#DejaVuSans-13" transform="translate(63.625 0)"/>
      </g>
     </g>
    </g>
    <g id="xtick_2">
     <g id="line2d_2">
      <g>
       <use xlink:href="#m2ec9868152" x="192.262708" y="323.637656" style="stroke: #000000; stroke-width: 0.8"/>
      </g>
     </g>
     <g id="text_2">
      <!-- 80 -->
      <g transform="translate(185.900208 338.235312) scale(0.1 -0.1)">
       <defs>
        <path id="DejaVuSans-1b" d="M 2034 2216 
Q 1584 2216 1326 1975 
Q 1069 1734 1069 1313 
Q 1069 891 1326 650 
Q 1584 409 2034 409 
Q 2484 409 2743 651 
Q 3003 894 3003 1313 
Q 3003 1734 2745 1975 
Q 2488 2216 2034 2216 
z
M 1403 2484 
Q 997 2584 770 2862 
Q 544 3141 544 3541 
Q 544 4100 942 4425 
Q 1341 4750 2034 4750 
Q 2731 4750 3128 4425 
Q 3525 4100 3525 3541 
Q 3525 3141 3298 2862 
Q 3072 2584 2669 2484 
Q 3125 2378 3379 2068 
Q 3634 1759 3634 1313 
Q 3634 634 3220 271 
Q 2806 -91 2034 -91 
Q 1263 -91 848 271 
Q 434 634 434 1313 
Q 434 1759 690 2068 
Q 947 2378 1403 2484 
z
M 1172 3481 
Q 1172 3119 1398 2916 
Q 1625 2713 2034 2713 
Q 2441 2713 2670 2916 
Q 2900 3119 2900 3481 
Q 2900 3844 2670 4047 
Q 2441 4250 2034 4250 
Q 1625 4250 1398 4047 
Q 1172 3844 1172 3481 
z
" transform="scale(0.015625)"/>
       </defs>
       <use xlink:href="#DejaVuSans-1b"/>
       <use xlink:href="#DejaVuSans-13" transform="translate(63.625 0)"/>
      </g>
     </g>
    </g>
    <g id="xtick_3">
     <g id="line2d_3">
      <g>
       <use xlink:href="#m2ec9868152" x="310.452677" y="323.637656" style="stroke: #000000; stroke-width: 0.8"/>
      </g>
     </g>
     <g id="text_3">
      <!-- 100 -->
      <g transform="translate(300.908927 338.235312) scale(0.1 -0.1)">
       <defs>
        <path id="DejaVuSans-14" d="M 794 531 
L 1825 531 
L 1825 4091 
L 703 3866 
L 703 4441 
L 1819 4666 
L 2450 4666 
L 2450 531 
L 3481 531 
L 3481 0 
L 794 0 
L 794 531 
z
" transform="scale(0.015625)"/>
       </defs>
       <use xlink:href="#DejaVuSans-14"/>
       <use xlink:href="#DejaVuSans-13" transform="translate(63.625 0)"/>
       <use xlink:href="#DejaVuSans-13" transform="translate(127.25 0)"/>
      </g>
     </g>
    </g>
    <g id="xtick_4">
     <g id="line2d_4">
      <g>
       <use xlink:href="#m2ec9868152" x="428.642645" y="323.637656" style="stroke: #000000; stroke-width: 0.8"/>
      </g>
     </g>
     <g id="text_4">
      <!-- 120 -->
      <g transform="translate(419.098895 338.235312) scale(0.1 -0.1)">
       <defs>
        <path id="DejaVuSans-15" d="M 1228 531 
L 3431 531 
L 3431 0 
L 469 0 
L 469 531 
Q 828 903 1448 1529 
Q 2069 2156 2228 2338 
Q 2531 2678 2651 2914 
Q 2772 3150 2772 3378 
Q 2772 3750 2511 3984 
Q 2250 4219 1831 4219 
Q 1534 4219 1204 4116 
Q 875 4013 500 3803 
L 500 4441 
Q 881 4594 1212 4672 
Q 1544 4750 1819 4750 
Q 2544 4750 2975 4387 
Q 3406 4025 3406 3419 
Q 3406 3131 3298 2873 
Q 3191 2616 2906 2266 
Q 2828 2175 2409 1742 
Q 1991 1309 1228 531 
z
" transform="scale(0.015625)"/>
       </defs>
       <use xlink:href="#DejaVuSans-14"/>
       <use xlink:href="#DejaVuSans-15" transform="translate(63.625 0)"/>
       <use xlink:href="#DejaVuSans-13" transform="translate(127.25 0)"/>
      </g>
     </g>
    </g>
    <g id="xtick_5">
     <g id="line2d_5">
      <g>
       <use xlink:href="#m2ec9868152" x="546.832614" y="323.637656" style="stroke: #000000; stroke-width: 0.8"/>
      </g>
     </g>
     <g id="text_5">
      <!-- 140 -->
      <g transform="translate(537.288864 338.235312) scale(0.1 -0.1)">
       <defs>
        <path id="DejaVuSans-17" d="M 2419 4116 
L 825 1625 
L 2419 1625 
L 2419 4116 
z
M 2253 4666 
L 3047 4666 
L 3047 1625 
L 3713 1625 
L 3713 1100 
L 3047 1100 
L 3047 0 
L 2419 0 
L 2419 1100 
L 313 1100 
L 313 1709 
L 2253 4666 
z
" transform="scale(0.015625)"/>
       </defs>
       <use xlink:href="#DejaVuSans-14"/>
       <use xlink:href="#DejaVuSans-17" transform="translate(63.625 0)"/>
       <use xlink:href="#DejaVuSans-13" transform="translate(127.25 0)"/>
      </g>
     </g>
    </g>
    <g id="text_6">
     <!-- $s\ [h^{-1}{\rm Mpc}]$ -->
     <g transform="translate(300.931172 353.937656) scale(0.1 -0.1)">
      <defs>
       <path id="DejaVuSans-Oblique-56" d="M 3200 3397 
L 3091 2853 
Q 2863 2978 2609 3040 
Q 2356 3103 2088 3103 
Q 1634 3103 1373 2948 
Q 1113 2794 1113 2528 
Q 1113 2219 1719 2053 
Q 1766 2041 1788 2034 
L 1972 1978 
Q 2547 1819 2739 1644 
Q 2931 1469 2931 1166 
Q 2931 609 2489 259 
Q 2047 -91 1331 -91 
Q 1053 -91 747 -37 
Q 441 16 72 128 
L 184 722 
Q 500 559 806 475 
Q 1113 391 1394 391 
Q 1816 391 2080 572 
Q 2344 753 2344 1031 
Q 2344 1331 1650 1516 
L 1591 1531 
L 1394 1581 
Q 956 1697 753 1886 
Q 550 2075 550 2369 
Q 550 2928 970 3256 
Q 1391 3584 2113 3584 
Q 2397 3584 2667 3537 
Q 2938 3491 3200 3397 
z
" transform="scale(0.015625)"/>
       <path id="DejaVuSans-3e" d="M 550 4863 
L 1875 4863 
L 1875 4416 
L 1125 4416 
L 1125 -397 
L 1875 -397 
L 1875 -844 
L 550 -844 
L 550 4863 
z
" transform="scale(0.015625)"/>
       <path id="DejaVuSans-Oblique-4b" d="M 3566 2113 
L 3156 0 
L 2578 0 
L 2988 2091 
Q 3016 2238 3031 2350 
Q 3047 2463 3047 2528 
Q 3047 2791 2881 2937 
Q 2716 3084 2419 3084 
Q 1956 3084 1617 2771 
Q 1278 2459 1178 1941 
L 800 0 
L 225 0 
L 1172 4863 
L 1747 4863 
L 1375 2950 
Q 1594 3244 1934 3414 
Q 2275 3584 2650 3584 
Q 3113 3584 3367 3334 
Q 3622 3084 3622 2631 
Q 3622 2519 3608 2391 
Q 3594 2263 3566 2113 
z
" transform="scale(0.015625)"/>
       <path id="DejaVuSans-c9c" d="M 678 2272 
L 4684 2272 
L 4684 1741 
L 678 1741 
L 678 2272 
z
" transform="scale(0.015625)"/>
       <path id="DejaVuSans-30" d="M 628 4666 
L 1569 4666 
L 2759 1491 
L 3956 4666 
L 4897 4666 
L 4897 0 
L 4281 0 
L 4281 4097 
L 3078 897 
L 2444 897 
L 1241 4097 
L 1241 0 
L 628 0 
L 628 4666 
z
" transform="scale(0.015625)"/>
       <path id="DejaVuSans-53" d="M 1159 525 
L 1159 -1331 
L 581 -1331 
L 581 3500 
L 1159 3500 
L 1159 2969 
Q 1341 3281 1617 3432 
Q 1894 3584 2278 3584 
Q 2916 3584 3314 3078 
Q 3713 2572 3713 1747 
Q 3713 922 3314 415 
Q 2916 -91 2278 -91 
Q 1894 -91 1617 61 
Q 1341 213 1159 525 
z
M 3116 1747 
Q 3116 2381 2855 2742 
Q 2594 3103 2138 3103 
Q 1681 3103 1420 2742 
Q 1159 2381 1159 1747 
Q 1159 1113 1420 752 
Q 1681 391 2138 391 
Q 2594 391 2855 752 
Q 3116 1113 3116 1747 
z
" transform="scale(0.015625)"/>
       <path id="DejaVuSans-46" d="M 3122 3366 
L 3122 2828 
Q 2878 2963 2633 3030 
Q 2388 3097 2138 3097 
Q 1578 3097 1268 2742 
Q 959 2388 959 1747 
Q 959 1106 1268 751 
Q 1578 397 2138 397 
Q 2388 397 2633 464 
Q 2878 531 3122 666 
L 3122 134 
Q 2881 22 2623 -34 
Q 2366 -91 2075 -91 
Q 1284 -91 818 406 
Q 353 903 353 1747 
Q 353 2603 823 3093 
Q 1294 3584 2113 3584 
Q 2378 3584 2631 3529 
Q 2884 3475 3122 3366 
z
" transform="scale(0.015625)"/>
       <path id="DejaVuSans-40" d="M 1947 4863 
L 1947 -844 
L 622 -844 
L 622 -397 
L 1369 -397 
L 1369 4416 
L 622 4416 
L 622 4863 
L 1947 4863 
z
" transform="scale(0.015625)"/>
      </defs>
      <use xlink:href="#DejaVuSans-Oblique-56" transform="translate(0 0.665625)"/>
      <use xlink:href="#DejaVuSans-3e" transform="translate(84.569988 0.665625)"/>
      <use xlink:href="#DejaVuSans-Oblique-4b" transform="translate(123.58366 0.665625)"/>
      <use xlink:href="#DejaVuSans-c9c" transform="translate(194.410274 41.965625) scale(0.7)"/>
      <use xlink:href="#DejaVuSans-14" transform="translate(253.062618 41.965625) scale(0.7)"/>
      <use xlink:href="#DejaVuSans-30" transform="translate(300.333126 0.665625)"/>
      <use xlink:href="#DejaVuSans-53" transform="translate(386.612423 0.665625)"/>
      <use xlink:href="#DejaVuSans-46" transform="translate(450.088985 0.665625)"/>
      <use xlink:href="#DejaVuSans-40" transform="translate(505.069454 0.665625)"/>
     </g>
    </g>
   </g>
   <g id="matplotlib.axis_2">
    <g id="ytick_1">
     <g id="line2d_6">
      <defs>
       <path id="mc1070b0286" d="M 0 0 
L -3.5 0 
" style="stroke: #000000; stroke-width: 0.8"/>
      </defs>
      <g>
       <use xlink:href="#mc1070b0286" x="55.162344" y="296.470567" style="stroke: #000000; stroke-width: 0.8"/>
      </g>
     </g>
     <g id="text_7">
      <!-- −20 -->
      <g transform="translate(27.057656 300.269395) scale(0.1 -0.1)">
       <use xlink:href="#DejaVuSans-c9c"/>
       <use xlink:href="#DejaVuSans-15" transform="translate(83.796875 0)"/>
       <use xlink:href="#DejaVuSans-13" transform="translate(147.421875 0)"/>
      </g>
     </g>
    </g>
    <g id="ytick_2">
     <g id="line2d_7">
      <g>
       <use xlink:href="#mc1070b0286" x="55.162344" y="264.014897" style="stroke: #000000; stroke-width: 0.8"/>
      </g>
     </g>
     <g id="text_8">
      <!-- 0 -->
      <g transform="translate(41.799844 267.813725) scale(0.1 -0.1)">
       <use xlink:href="#DejaVuSans-13"/>
      </g>
     </g>
    </g>
    <g id="ytick_3">
     <g id="line2d_8">
      <g>
       <use xlink:href="#mc1070b0286" x="55.162344" y="231.559226" style="stroke: #000000; stroke-width: 0.8"/>
      </g>
     </g>
     <g id="text_9">
      <!-- 20 -->
      <g transform="translate(35.437344 235.358054) scale(0.1 -0.1)">
       <use xlink:href="#DejaVuSans-15"/>
       <use xlink:href="#DejaVuSans-13" transform="translate(63.625 0)"/>
      </g>
     </g>
    </g>
    <g id="ytick_4">
     <g id="line2d_9">
      <g>
       <use xlink:href="#mc1070b0286" x="55.162344" y="199.103555" style="stroke: #000000; stroke-width: 0.8"/>
      </g>
     </g>
     <g id="text_10">
      <!-- 40 -->
      <g transform="translate(35.437344 202.902383) scale(0.1 -0.1)">
       <use xlink:href="#DejaVuSans-17"/>
       <use xlink:href="#DejaVuSans-13" transform="translate(63.625 0)"/>
      </g>
     </g>
    </g>
    <g id="ytick_5">
     <g id="line2d_10">
      <g>
       <use xlink:href="#mc1070b0286" x="55.162344" y="166.647885" style="stroke: #000000; stroke-width: 0.8"/>
      </g>
     </g>
     <g id="text_11">
      <!-- 60 -->
      <g transform="translate(35.437344 170.446713) scale(0.1 -0.1)">
       <use xlink:href="#DejaVuSans-19"/>
       <use xlink:href="#DejaVuSans-13" transform="translate(63.625 0)"/>
      </g>
     </g>
    </g>
    <g id="ytick_6">
     <g id="line2d_11">
      <g>
       <use xlink:href="#mc1070b0286" x="55.162344" y="134.192214" style="stroke: #000000; stroke-width: 0.8"/>
      </g>
     </g>
     <g id="text_12">
      <!-- 80 -->
      <g transform="translate(35.437344 137.991042) scale(0.1 -0.1)">
       <use xlink:href="#DejaVuSans-1b"/>
       <use xlink:href="#DejaVuSans-13" transform="translate(63.625 0)"/>
      </g>
     </g>
    </g>
    <g id="ytick_7">
     <g id="line2d_12">
      <g>
       <use xlink:href="#mc1070b0286" x="55.162344" y="101.736544" style="stroke: #000000; stroke-width: 0.8"/>
      </g>
     </g>
     <g id="text_13">
      <!-- 100 -->
      <g transform="translate(29.074844 105.535372) scale(0.1 -0.1)">
       <use xlink:href="#DejaVuSans-14"/>
       <use xlink:href="#DejaVuSans-13" transform="translate(63.625 0)"/>
       <use xlink:href="#DejaVuSans-13" transform="translate(127.25 0)"/>
      </g>
     </g>
    </g>
    <g id="ytick_8">
     <g id="line2d_13">
      <g>
       <use xlink:href="#mc1070b0286" x="55.162344" y="69.280873" style="stroke: #000000; stroke-width: 0.8"/>
      </g>
     </g>
     <g id="text_14">
      <!-- 120 -->
      <g transform="translate(29.074844 73.079701) scale(0.1 -0.1)">
       <use xlink:href="#DejaVuSans-14"/>
       <use xlink:href="#DejaVuSans-15" transform="translate(63.625 0)"/>
       <use xlink:href="#DejaVuSans-13" transform="translate(127.25 0)"/>
      </g>
     </g>
    </g>
    <g id="text_15">
     <!-- $s^2\langle\partial_z\xi_0\rangle$ -->
     <g transform="translate(20.655313 201.721992) rotate(-90) scale(0.1 -0.1)">
      <defs>
       <path id="DejaVuSans-1047" d="M 572 2006 
L 1453 4856 
L 1984 4856 
L 1103 2006 
L 1984 -844 
L 1453 -844 
L 572 2006 
z
" transform="scale(0.015625)"/>
       <path id="DejaVuSans-c8c" d="M 1366 -91 
Q 925 -91 638 175 
Q 297 491 297 1063 
Q 297 1656 597 2119 
Q 906 2594 1463 2594 
Q 1828 2594 2116 2366 
Q 2284 2231 2400 2006 
Q 2441 2259 2441 2547 
Q 2441 2969 2341 3213 
Q 2119 3753 1531 3753 
Q 1309 3753 966 3616 
L 966 4141 
Q 1328 4238 1653 4238 
Q 2491 4238 2847 3469 
Q 3013 3106 3013 2566 
Q 3013 2213 2934 1803 
Q 2738 778 2228 291 
Q 1828 -91 1366 -91 
z
M 831 969 
Q 831 656 969 488 
Q 1116 309 1341 309 
Q 1541 309 1700 450 
Q 1925 644 2091 959 
Q 2228 1219 2297 1497 
Q 2019 2169 1538 2169 
Q 1125 2169 944 1625 
Q 831 1288 831 969 
z
" transform="scale(0.015625)"/>
       <path id="DejaVuSans-Oblique-5d" d="M 744 3500 
L 3475 3500 
L 3372 2975 
L 738 459 
L 2913 459 
L 2822 0 
L -19 0 
L 84 525 
L 2719 3041 
L 653 3041 
L 744 3500 
z
" transform="scale(0.015625)"/>
       <path id="DejaVuSans-Oblique-352" d="M 2016 397 
Q 2428 394 2628 159 
Q 2844 -88 2772 -463 
Q 2700 -822 2422 -1072 
Q 2119 -1344 1609 -1344 
Q 1656 -1109 1700 -872 
Q 1913 -888 2072 -750 
Q 2194 -641 2216 -525 
Q 2247 -359 2175 -222 
Q 2100 -91 1922 -91 
Q -25 -91 241 1275 
Q 422 2213 1516 2488 
Q 663 2600 822 3413 
Q 941 4028 1678 4284 
L 1028 4284 
L 1141 4863 
L 3606 4863 
L 3494 4284 
Q 1528 4284 1350 3375 
Q 1234 2778 2881 2750 
L 2778 2219 
Q 1009 2288 819 1275 
Q 659 428 2016 397 
z
" transform="scale(0.015625)"/>
       <path id="DejaVuSans-1048" d="M 1925 2006 
L 1044 -844 
L 513 -844 
L 1394 2006 
L 513 4856 
L 1044 4856 
L 1925 2006 
z
" transform="scale(0.015625)"/>
      </defs>
      <use xlink:href="#DejaVuSans-Oblique-56" transform="translate(0 0.746875)"/>
      <use xlink:href="#DejaVuSans-15" transform="translate(56.749505 42.046875) scale(0.7)"/>
      <use xlink:href="#DejaVuSans-1047" transform="translate(104.020013 0.746875)"/>
      <use xlink:href="#DejaVuSans-c8c" transform="translate(143.033685 0.746875)"/>
      <use xlink:href="#DejaVuSans-Oblique-5d" transform="translate(195.699701 -14.253076) scale(0.7)"/>
      <use xlink:href="#DejaVuSans-Oblique-352" transform="translate(235.17724 0.746875)"/>
      <use xlink:href="#DejaVuSans-13" transform="translate(290.938958 -14.253076) scale(0.7)"/>
      <use xlink:href="#DejaVuSans-1048" transform="translate(338.209466 0.746875)"/>
     </g>
    </g>
   </g>
   <g id="LineCollection_1">
    <path d="M 79.982237 310.836232 
L 79.982237 260.907007 
" clip-path="url(#p7fa59edf82)" style="fill: none; stroke: #1f77b4; stroke-width: 1.5"/>
    <path d="M 115.439228 276.110315 
L 115.439228 222.003545 
" clip-path="url(#p7fa59edf82)" style="fill: none; stroke: #1f77b4; stroke-width: 1.5"/>
    <path d="M 150.896219 258.600916 
L 150.896219 202.764033 
" clip-path="url(#p7fa59edf82)" style="fill: none; stroke: #1f77b4; stroke-width: 1.5"/>
    <path d="M 186.353209 249.4706 
L 186.353209 187.708865 
" clip-path="url(#p7fa59edf82)" style="fill: none; stroke: #1f77b4; stroke-width: 1.5"/>
    <path d="M 221.8102 258.64252 
L 221.8102 184.392265 
" clip-path="url(#p7fa59edf82)" style="fill: none; stroke: #1f77b4; stroke-width: 1.5"/>
    <path d="M 257.267191 227.022531 
L 257.267191 144.679865 
" clip-path="url(#p7fa59edf82)" style="fill: none; stroke: #1f77b4; stroke-width: 1.5"/>
    <path d="M 292.724181 202.074108 
L 292.724181 117.770205 
" clip-path="url(#p7fa59edf82)" style="fill: none; stroke: #1f77b4; stroke-width: 1.5"/>
    <path d="M 328.181172 230.170689 
L 328.181172 130.54652 
" clip-path="url(#p7fa59edf82)" style="fill: none; stroke: #1f77b4; stroke-width: 1.5"/>
    <path d="M 363.638163 260.985921 
L 363.638163 156.966297 
" clip-path="url(#p7fa59edf82)" style="fill: none; stroke: #1f77b4; stroke-width: 1.5"/>
    <path d="M 399.095153 246.760535 
L 399.095153 131.971402 
" clip-path="url(#p7fa59edf82)" style="fill: none; stroke: #1f77b4; stroke-width: 1.5"/>
    <path d="M 434.552144 250.326392 
L 434.552144 137.30783 
" clip-path="url(#p7fa59edf82)" style="fill: none; stroke: #1f77b4; stroke-width: 1.5"/>
    <path d="M 470.009135 232.354558 
L 470.009135 115.690488 
" clip-path="url(#p7fa59edf82)" style="fill: none; stroke: #1f77b4; stroke-width: 1.5"/>
    <path d="M 505.466125 202.429727 
L 505.466125 75.848625 
" clip-path="url(#p7fa59edf82)" style="fill: none; stroke: #1f77b4; stroke-width: 1.5"/>
    <path d="M 540.923116 190.439303 
L 540.923116 54.807752 
" clip-path="url(#p7fa59edf82)" style="fill: none; stroke: #1f77b4; stroke-width: 1.5"/>
    <path d="M 576.380107 300.698368 
L 576.380107 160.960952 
" clip-path="url(#p7fa59edf82)" style="fill: none; stroke: #1f77b4; stroke-width: 1.5"/>
   </g>
   <g id="line2d_14">
    <defs>
     <path id="m81ba151576" d="M 2 0 
L -2 -0 
" style="stroke: #1f77b4"/>
    </defs>
    <g clip-path="url(#p7fa59edf82)">
     <use xlink:href="#m81ba151576" x="79.982237" y="310.836232" style="fill: #1f77b4; stroke: #1f77b4"/>
     <use xlink:href="#m81ba151576" x="115.439228" y="276.110315" style="fill: #1f77b4; stroke: #1f77b4"/>
     <use xlink:href="#m81ba151576" x="150.896219" y="258.600916" style="fill: #1f77b4; stroke: #1f77b4"/>
     <use xlink:href="#m81ba151576" x="186.353209" y="249.4706" style="fill: #1f77b4; stroke: #1f77b4"/>
     <use xlink:href="#m81ba151576" x="221.8102" y="258.64252" style="fill: #1f77b4; stroke: #1f77b4"/>
     <use xlink:href="#m81ba151576" x="257.267191" y="227.022531" style="fill: #1f77b4; stroke: #1f77b4"/>
     <use xlink:href="#m81ba151576" x="292.724181" y="202.074108" style="fill: #1f77b4; stroke: #1f77b4"/>
     <use xlink:href="#m81ba151576" x="328.181172" y="230.170689" style="fill: #1f77b4; stroke: #1f77b4"/>
     <use xlink:href="#m81ba151576" x="363.638163" y="260.985921" style="fill: #1f77b4; stroke: #1f77b4"/>
     <use xlink:href="#m81ba151576" x="399.095153" y="246.760535" style="fill: #1f77b4; stroke: #1f77b4"/>
     <use xlink:href="#m81ba151576" x="434.552144" y="250.326392" style="fill: #1f77b4; stroke: #1f77b4"/>
     <use xlink:href="#m81ba151576" x="470.009135" y="232.354558" style="fill: #1f77b4; stroke: #1f77b4"/>
     <use xlink:href="#m81ba151576" x="505.466125" y="202.429727" style="fill: #1f77b4; stroke: #1f77b4"/>
     <use xlink:href="#m81ba151576" x="540.923116" y="190.439303" style="fill: #1f77b4; stroke: #1f77b4"/>
     <use xlink:href="#m81ba151576" x="576.380107" y="300.698368" style="fill: #1f77b4; stroke: #1f77b4"/>
    </g>
   </g>
   <g id="line2d_15">
    <g clip-path="url(#p7fa59edf82)">
     <use xlink:href="#m81ba151576" x="79.982237" y="260.907007" style="fill: #1f77b4; stroke: #1f77b4"/>
     <use xlink:href="#m81ba151576" x="115.439228" y="222.003545" style="fill: #1f77b4; stroke: #1f77b4"/>
     <use xlink:href="#m81ba151576" x="150.896219" y="202.764033" style="fill: #1f77b4; stroke: #1f77b4"/>
     <use xlink:href="#m81ba151576" x="186.353209" y="187.708865" style="fill: #1f77b4; stroke: #1f77b4"/>
     <use xlink:href="#m81ba151576" x="221.8102" y="184.392265" style="fill: #1f77b4; stroke: #1f77b4"/>
     <use xlink:href="#m81ba151576" x="257.267191" y="144.679865" style="fill: #1f77b4; stroke: #1f77b4"/>
     <use xlink:href="#m81ba151576" x="292.724181" y="117.770205" style="fill: #1f77b4; stroke: #1f77b4"/>
     <use xlink:href="#m81ba151576" x="328.181172" y="130.54652" style="fill: #1f77b4; stroke: #1f77b4"/>
     <use xlink:href="#m81ba151576" x="363.638163" y="156.966297" style="fill: #1f77b4; stroke: #1f77b4"/>
     <use xlink:href="#m81ba151576" x="399.095153" y="131.971402" style="fill: #1f77b4; stroke: #1f77b4"/>
     <use xlink:href="#m81ba151576" x="434.552144" y="137.30783" style="fill: #1f77b4; stroke: #1f77b4"/>
     <use xlink:href="#m81ba151576" x="470.009135" y="115.690488" style="fill: #1f77b4; stroke: #1f77b4"/>
     <use xlink:href="#m81ba151576" x="505.466125" y="75.848625" style="fill: #1f77b4; stroke: #1f77b4"/>
     <use xlink:href="#m81ba151576" x="540.923116" y="54.807752" style="fill: #1f77b4; stroke: #1f77b4"/>
     <use xlink:href="#m81ba151576" x="576.380107" y="160.960952" style="fill: #1f77b4; stroke: #1f77b4"/>
    </g>
   </g>
   <g id="line2d_16">
    <path d="M 79.982237 283.690853 
L 115.439228 256.095584 
L 150.896219 232.833487 
L 186.353209 215.804365 
L 221.8102 203.256903 
L 257.267191 184.359201 
L 292.724181 165.767277 
L 328.181172 173.373322 
L 363.638163 194.337766 
L 399.095153 199.61634 
L 434.552144 188.491841 
L 470.009135 174.722718 
L 505.466125 167.050649 
L 540.923116 167.312747 
L 576.380107 174.450663 
" clip-path="url(#p7fa59edf82)" style="fill: none; stroke: #ff7f0e; stroke-width: 1.5; stroke-linecap: square"/>
   </g>
   <g id="line2d_17">
    <path d="M 55.162344 264.014897 
L 601.2 264.014897 
" clip-path="url(#p7fa59edf82)" style="fill: none; stroke-dasharray: 0.8,1.32; stroke-dashoffset: 0; stroke: #1f77b4; stroke-width: 0.8"/>
   </g>
   <g id="line2d_18">
    <defs>
     <path id="m1d7a549d50" d="M 0 2 
C 0.530406 2 1.03916 1.789267 1.414214 1.414214 
C 1.789267 1.03916 2 0.530406 2 0 
C 2 -0.530406 1.789267 -1.03916 1.414214 -1.414214 
C 1.03916 -1.789267 0.530406 -2 0 -2 
C -0.530406 -2 -1.03916 -1.789267 -1.414214 -1.414214 
C -1.789267 -1.03916 -2 -0.530406 -2 0 
C -2 0.530406 -1.789267 1.03916 -1.414214 1.414214 
C -1.03916 1.789267 -0.530406 2 0 2 
z
" style="stroke: #1f77b4"/>
    </defs>
    <g clip-path="url(#p7fa59edf82)">
     <use xlink:href="#m1d7a549d50" x="79.982237" y="285.87162" style="fill: #1f77b4; stroke: #1f77b4"/>
     <use xlink:href="#m1d7a549d50" x="115.439228" y="249.05693" style="fill: #1f77b4; stroke: #1f77b4"/>
     <use xlink:href="#m1d7a549d50" x="150.896219" y="230.682474" style="fill: #1f77b4; stroke: #1f77b4"/>
     <use xlink:href="#m1d7a549d50" x="186.353209" y="218.589732" style="fill: #1f77b4; stroke: #1f77b4"/>
     <use xlink:href="#m1d7a549d50" x="221.8102" y="221.517392" style="fill: #1f77b4; stroke: #1f77b4"/>
     <use xlink:href="#m1d7a549d50" x="257.267191" y="185.851198" style="fill: #1f77b4; stroke: #1f77b4"/>
     <use xlink:href="#m1d7a549d50" x="292.724181" y="159.922157" style="fill: #1f77b4; stroke: #1f77b4"/>
     <use xlink:href="#m1d7a549d50" x="328.181172" y="180.358604" style="fill: #1f77b4; stroke: #1f77b4"/>
     <use xlink:href="#m1d7a549d50" x="363.638163" y="208.976109" style="fill: #1f77b4; stroke: #1f77b4"/>
     <use xlink:href="#m1d7a549d50" x="399.095153" y="189.365969" style="fill: #1f77b4; stroke: #1f77b4"/>
     <use xlink:href="#m1d7a549d50" x="434.552144" y="193.817111" style="fill: #1f77b4; stroke: #1f77b4"/>
     <use xlink:href="#m1d7a549d50" x="470.009135" y="174.022523" style="fill: #1f77b4; stroke: #1f77b4"/>
     <use xlink:href="#m1d7a549d50" x="505.466125" y="139.139176" style="fill: #1f77b4; stroke: #1f77b4"/>
     <use xlink:href="#m1d7a549d50" x="540.923116" y="122.623527" style="fill: #1f77b4; stroke: #1f77b4"/>
     <use xlink:href="#m1d7a549d50" x="576.380107" y="230.82966" style="fill: #1f77b4; stroke: #1f77b4"/>
    </g>
   </g>
   <g id="patch_3">
    <path d="M 55.162344 323.637656 
L 55.162344 42.006328 
" style="fill: none; stroke: #000000; stroke-width: 0.8; stroke-linejoin: miter; stroke-linecap: square"/>
   </g>
   <g id="patch_4">
    <path d="M 601.2 323.637656 
L 601.2 42.006328 
" style="fill: none; stroke: #000000; stroke-width: 0.8; stroke-linejoin: miter; stroke-linecap: square"/>
   </g>
   <g id="patch_5">
    <path d="M 55.162344 323.637656 
L 601.2 323.637656 
" style="fill: none; stroke: #000000; stroke-width: 0.8; stroke-linejoin: miter; stroke-linecap: square"/>
   </g>
   <g id="patch_6">
    <path d="M 55.162344 42.006328 
L 601.2 42.006328 
" style="fill: none; stroke: #000000; stroke-width: 0.8; stroke-linejoin: miter; stroke-linecap: square"/>
   </g>
   <g id="text_16">
    <!-- quadratic AP wide nuisance -->
    <g transform="translate(245.236797 21.603047) scale(0.12 -0.12)">
     <defs>
      <path id="DejaVuSans-54" d="M 947 1747 
Q 947 1113 1208 752 
Q 1469 391 1925 391 
Q 2381 391 2643 752 
Q 2906 1113 2906 1747 
Q 2906 2381 2643 2742 
Q 2381 3103 1925 3103 
Q 1469 3103 1208 2742 
Q 947 2381 947 1747 
z
M 2906 525 
Q 2725 213 2448 61 
Q 2172 -91 1784 -91 
Q 1150 -91 751 415 
Q 353 922 353 1747 
Q 353 2572 751 3078 
Q 1150 3584 1784 3584 
Q 2172 3584 2448 3432 
Q 2725 3281 2906 2969 
L 2906 3500 
L 3481 3500 
L 3481 -1331 
L 2906 -1331 
L 2906 525 
z
" transform="scale(0.015625)"/>
      <path id="DejaVuSans-58" d="M 544 1381 
L 544 3500 
L 1119 3500 
L 1119 1403 
Q 1119 906 1312 657 
Q 1506 409 1894 409 
Q 2359 409 2629 706 
Q 2900 1003 2900 1516 
L 2900 3500 
L 3475 3500 
L 3475 0 
L 2900 0 
L 2900 538 
Q 2691 219 2414 64 
Q 2138 -91 1772 -91 
Q 1169 -91 856 284 
Q 544 659 544 1381 
z
M 1991 3584 
L 1991 3584 
z
" transform="scale(0.015625)"/>
      <path id="DejaVuSans-44" d="M 2194 1759 
Q 1497 1759 1228 1600 
Q 959 1441 959 1056 
Q 959 750 1161 570 
Q 1363 391 1709 391 
Q 2188 391 2477 730 
Q 2766 1069 2766 1631 
L 2766 1759 
L 2194 1759 
z
M 3341 1997 
L 3341 0 
L 2766 0 
L 2766 531 
Q 2569 213 2275 61 
Q 1981 -91 1556 -91 
Q 1019 -91 701 211 
Q 384 513 384 1019 
Q 384 1609 779 1909 
Q 1175 2209 1959 2209 
L 2766 2209 
L 2766 2266 
Q 2766 2663 2505 2880 
Q 2244 3097 1772 3097 
Q 1472 3097 1187 3025 
Q 903 2953 641 2809 
L 641 3341 
Q 956 3463 1253 3523 
Q 1550 3584 1831 3584 
Q 2591 3584 2966 3190 
Q 3341 2797 3341 1997 
z
" transform="scale(0.015625)"/>
      <path id="DejaVuSans-47" d="M 2906 2969 
L 2906 4863 
L 3481 4863 
L 3481 0 
L 2906 0 
L 2906 525 
Q 2725 213 2448 61 
Q 2172 -91 1784 -91 
Q 1150 -91 751 415 
Q 353 922 353 1747 
Q 353 2572 751 3078 
Q 1150 3584 1784 3584 
Q 2172 3584 2448 3432 
Q 2725 3281 2906 2969 
z
M 947 1747 
Q 947 1113 1208 752 
Q 1469 391 1925 391 
Q 2381 391 2643 752 
Q 2906 1113 2906 1747 
Q 2906 2381 2643 2742 
Q 2381 3103 1925 3103 
Q 1469 3103 1208 2742 
Q 947 2381 947 1747 
z
" transform="scale(0.015625)"/>
      <path id="DejaVuSans-55" d="M 2631 2963 
Q 2534 3019 2420 3045 
Q 2306 3072 2169 3072 
Q 1681 3072 1420 2755 
Q 1159 2438 1159 1844 
L 1159 0 
L 581 0 
L 581 3500 
L 1159 3500 
L 1159 2956 
Q 1341 3275 1631 3429 
Q 1922 3584 2338 3584 
Q 2397 3584 2469 3576 
Q 2541 3569 2628 3553 
L 2631 2963 
z
" transform="scale(0.015625)"/>
      <path id="DejaVuSans-57" d="M 1172 4494 
L 1172 3500 
L 2356 3500 
L 2356 3053 
L 1172 3053 
L 1172 1153 
Q 1172 725 1289 603 
Q 1406 481 1766 481 
L 2356 481 
L 2356 0 
L 1766 0 
Q 1100 0 847 248 
Q 594 497 594 1153 
L 594 3053 
L 172 3053 
L 172 3500 
L 594 3500 
L 594 4494 
L 1172 4494 
z
" transform="scale(0.015625)"/>
      <path id="DejaVuSans-4c" d="M 603 3500 
L 1178 3500 
L 1178 0 
L 603 0 
L 603 3500 
z
M 603 4863 
L 1178 4863 
L 1178 4134 
L 603 4134 
L 603 4863 
z
" transform="scale(0.015625)"/>
      <path id="DejaVuSans-3" transform="scale(0.015625)"/>
      <path id="DejaVuSans-24" d="M 2188 4044 
L 1331 1722 
L 3047 1722 
L 2188 4044 
z
M 1831 4666 
L 2547 4666 
L 4325 0 
L 3669 0 
L 3244 1197 
L 1141 1197 
L 716 0 
L 50 0 
L 1831 4666 
z
" transform="scale(0.015625)"/>
      <path id="DejaVuSans-33" d="M 1259 4147 
L 1259 2394 
L 2053 2394 
Q 2494 2394 2734 2622 
Q 2975 2850 2975 3272 
Q 2975 3691 2734 3919 
Q 2494 4147 2053 4147 
L 1259 4147 
z
M 628 4666 
L 2053 4666 
Q 2838 4666 3239 4311 
Q 3641 3956 3641 3272 
Q 3641 2581 3239 2228 
Q 2838 1875 2053 1875 
L 1259 1875 
L 1259 0 
L 628 0 
L 628 4666 
z
" transform="scale(0.015625)"/>
      <path id="DejaVuSans-5a" d="M 269 3500 
L 844 3500 
L 1563 769 
L 2278 3500 
L 2956 3500 
L 3675 769 
L 4391 3500 
L 4966 3500 
L 4050 0 
L 3372 0 
L 2619 2869 
L 1863 0 
L 1184 0 
L 269 3500 
z
" transform="scale(0.015625)"/>
      <path id="DejaVuSans-48" d="M 3597 1894 
L 3597 1613 
L 953 1613 
Q 991 1019 1311 708 
Q 1631 397 2203 397 
Q 2534 397 2845 478 
Q 3156 559 3463 722 
L 3463 178 
Q 3153 47 2828 -22 
Q 2503 -91 2169 -91 
Q 1331 -91 842 396 
Q 353 884 353 1716 
Q 353 2575 817 3079 
Q 1281 3584 2069 3584 
Q 2775 3584 3186 3129 
Q 3597 2675 3597 1894 
z
M 3022 2063 
Q 3016 2534 2758 2815 
Q 2500 3097 2075 3097 
Q 1594 3097 1305 2825 
Q 1016 2553 972 2059 
L 3022 2063 
z
" transform="scale(0.015625)"/>
      <path id="DejaVuSans-51" d="M 3513 2113 
L 3513 0 
L 2938 0 
L 2938 2094 
Q 2938 2591 2744 2837 
Q 2550 3084 2163 3084 
Q 1697 3084 1428 2787 
Q 1159 2491 1159 1978 
L 1159 0 
L 581 0 
L 581 3500 
L 1159 3500 
L 1159 2956 
Q 1366 3272 1645 3428 
Q 1925 3584 2291 3584 
Q 2894 3584 3203 3211 
Q 3513 2838 3513 2113 
z
" transform="scale(0.015625)"/>
      <path id="DejaVuSans-56" d="M 2834 3397 
L 2834 2853 
Q 2591 2978 2328 3040 
Q 2066 3103 1784 3103 
Q 1356 3103 1142 2972 
Q 928 2841 928 2578 
Q 928 2378 1081 2264 
Q 1234 2150 1697 2047 
L 1894 2003 
Q 2506 1872 2764 1633 
Q 3022 1394 3022 966 
Q 3022 478 2636 193 
Q 2250 -91 1575 -91 
Q 1294 -91 989 -36 
Q 684 19 347 128 
L 347 722 
Q 666 556 975 473 
Q 1284 391 1588 391 
Q 1994 391 2212 530 
Q 2431 669 2431 922 
Q 2431 1156 2273 1281 
Q 2116 1406 1581 1522 
L 1381 1569 
Q 847 1681 609 1914 
Q 372 2147 372 2553 
Q 372 3047 722 3315 
Q 1072 3584 1716 3584 
Q 2034 3584 2315 3537 
Q 2597 3491 2834 3397 
z
" transform="scale(0.015625)"/>
     </defs>
     <use xlink:href="#DejaVuSans-54"/>
     <use xlink:href="#DejaVuSans-58" transform="translate(63.484375 0)"/>
     <use xlink:href="#DejaVuSans-44" transform="translate(126.859375 0)"/>
     <use xlink:href="#DejaVuSans-47" transform="translate(188.140625 0)"/>
     <use xlink:href="#DejaVuSans-55" transform="translate(251.625 0)"/>
     <use xlink:href="#DejaVuSans-44" transform="translate(292.734375 0)"/>
     <use xlink:href="#DejaVuSans-57" transform="translate(354.015625 0)"/>
     <use xlink:href="#DejaVuSans-4c" transform="translate(393.21875 0)"/>
     <use xlink:href="#DejaVuSans-46" transform="translate(421 0)"/>
     <use xlink:href="#DejaVuSans-3" transform="translate(475.984375 0)"/>
     <use xlink:href="#DejaVuSans-24" transform="translate(507.765625 0)"/>
     <use xlink:href="#DejaVuSans-33" transform="translate(576.171875 0)"/>
     <use xlink:href="#DejaVuSans-3" transform="translate(636.46875 0)"/>
     <use xlink:href="#DejaVuSans-5a" transform="translate(668.25 0)"/>
     <use xlink:href="#DejaVuSans-4c" transform="translate(750.03125 0)"/>
     <use xlink:href="#DejaVuSans-47" transform="translate(777.8125 0)"/>
     <use xlink:href="#DejaVuSans-48" transform="translate(841.296875 0)"/>
     <use xlink:href="#DejaVuSans-3" transform="translate(902.828125 0)"/>
     <use xlink:href="#DejaVuSans-51" transform="translate(934.609375 0)"/>
     <use xlink:href="#DejaVuSans-58" transform="translate(997.984375 0)"/>
     <use xlink:href="#DejaVuSans-4c" transform="translate(1061.359375 0)"/>
     <use xlink:href="#DejaVuSans-56" transform="translate(1089.140625 0)"/>
     <use xlink:href="#DejaVuSans-44" transform="translate(1141.234375 0)"/>
     <use xlink:href="#DejaVuSans-51" transform="translate(1202.515625 0)"/>
     <use xlink:href="#DejaVuSans-46" transform="translate(1265.890625 0)"/>
     <use xlink:href="#DejaVuSans-48" transform="translate(1320.875 0)"/>
    </g>
    <!-- dxi; 120-region jackknife -->
    <g transform="translate(253.860859 36.006328) scale(0.12 -0.12)">
     <defs>
      <path id="DejaVuSans-5b" d="M 3513 3500 
L 2247 1797 
L 3578 0 
L 2900 0 
L 1881 1375 
L 863 0 
L 184 0 
L 1544 1831 
L 300 3500 
L 978 3500 
L 1906 2253 
L 2834 3500 
L 3513 3500 
z
" transform="scale(0.015625)"/>
      <path id="DejaVuSans-1e" d="M 750 3309 
L 1409 3309 
L 1409 2516 
L 750 2516 
L 750 3309 
z
M 750 794 
L 1409 794 
L 1409 256 
L 897 -744 
L 494 -744 
L 750 256 
L 750 794 
z
" transform="scale(0.015625)"/>
      <path id="DejaVuSans-10" d="M 313 2009 
L 1997 2009 
L 1997 1497 
L 313 1497 
L 313 2009 
z
" transform="scale(0.015625)"/>
      <path id="DejaVuSans-4a" d="M 2906 1791 
Q 2906 2416 2648 2759 
Q 2391 3103 1925 3103 
Q 1463 3103 1205 2759 
Q 947 2416 947 1791 
Q 947 1169 1205 825 
Q 1463 481 1925 481 
Q 2391 481 2648 825 
Q 2906 1169 2906 1791 
z
M 3481 434 
Q 3481 -459 3084 -895 
Q 2688 -1331 1869 -1331 
Q 1566 -1331 1297 -1286 
Q 1028 -1241 775 -1147 
L 775 -588 
Q 1028 -725 1275 -790 
Q 1522 -856 1778 -856 
Q 2344 -856 2625 -561 
Q 2906 -266 2906 331 
L 2906 616 
Q 2728 306 2450 153 
Q 2172 0 1784 0 
Q 1141 0 747 490 
Q 353 981 353 1791 
Q 353 2603 747 3093 
Q 1141 3584 1784 3584 
Q 2172 3584 2450 3431 
Q 2728 3278 2906 2969 
L 2906 3500 
L 3481 3500 
L 3481 434 
z
" transform="scale(0.015625)"/>
      <path id="DejaVuSans-52" d="M 1959 3097 
Q 1497 3097 1228 2736 
Q 959 2375 959 1747 
Q 959 1119 1226 758 
Q 1494 397 1959 397 
Q 2419 397 2687 759 
Q 2956 1122 2956 1747 
Q 2956 2369 2687 2733 
Q 2419 3097 1959 3097 
z
M 1959 3584 
Q 2709 3584 3137 3096 
Q 3566 2609 3566 1747 
Q 3566 888 3137 398 
Q 2709 -91 1959 -91 
Q 1206 -91 779 398 
Q 353 888 353 1747 
Q 353 2609 779 3096 
Q 1206 3584 1959 3584 
z
" transform="scale(0.015625)"/>
      <path id="DejaVuSans-4d" d="M 603 3500 
L 1178 3500 
L 1178 -63 
Q 1178 -731 923 -1031 
Q 669 -1331 103 -1331 
L -116 -1331 
L -116 -844 
L 38 -844 
Q 366 -844 484 -692 
Q 603 -541 603 -63 
L 603 3500 
z
M 603 4863 
L 1178 4863 
L 1178 4134 
L 603 4134 
L 603 4863 
z
" transform="scale(0.015625)"/>
      <path id="DejaVuSans-4e" d="M 581 4863 
L 1159 4863 
L 1159 1991 
L 2875 3500 
L 3609 3500 
L 1753 1863 
L 3688 0 
L 2938 0 
L 1159 1709 
L 1159 0 
L 581 0 
L 581 4863 
z
" transform="scale(0.015625)"/>
      <path id="DejaVuSans-49" d="M 2375 4863 
L 2375 4384 
L 1825 4384 
Q 1516 4384 1395 4259 
Q 1275 4134 1275 3809 
L 1275 3500 
L 2222 3500 
L 2222 3053 
L 1275 3053 
L 1275 0 
L 697 0 
L 697 3053 
L 147 3053 
L 147 3500 
L 697 3500 
L 697 3744 
Q 697 4328 969 4595 
Q 1241 4863 1831 4863 
L 2375 4863 
z
" transform="scale(0.015625)"/>
     </defs>
     <use xlink:href="#DejaVuSans-47"/>
     <use xlink:href="#DejaVuSans-5b" transform="translate(63.484375 0)"/>
     <use xlink:href="#DejaVuSans-4c" transform="translate(122.671875 0)"/>
     <use xlink:href="#DejaVuSans-1e" transform="translate(150.453125 0)"/>
     <use xlink:href="#DejaVuSans-3" transform="translate(184.140625 0)"/>
     <use xlink:href="#DejaVuSans-14" transform="translate(215.921875 0)"/>
     <use xlink:href="#DejaVuSans-15" transform="translate(279.546875 0)"/>
     <use xlink:href="#DejaVuSans-13" transform="translate(343.171875 0)"/>
     <use xlink:href="#DejaVuSans-10" transform="translate(406.796875 0)"/>
     <use xlink:href="#DejaVuSans-55" transform="translate(442.875 0)"/>
     <use xlink:href="#DejaVuSans-48" transform="translate(481.78125 0)"/>
     <use xlink:href="#DejaVuSans-4a" transform="translate(543.3125 0)"/>
     <use xlink:href="#DejaVuSans-4c" transform="translate(606.796875 0)"/>
     <use xlink:href="#DejaVuSans-52" transform="translate(634.578125 0)"/>
     <use xlink:href="#DejaVuSans-51" transform="translate(695.765625 0)"/>
     <use xlink:href="#DejaVuSans-3" transform="translate(759.140625 0)"/>
     <use xlink:href="#DejaVuSans-4d" transform="translate(790.921875 0)"/>
     <use xlink:href="#DejaVuSans-44" transform="translate(818.703125 0)"/>
     <use xlink:href="#DejaVuSans-46" transform="translate(879.984375 0)"/>
     <use xlink:href="#DejaVuSans-4e" transform="translate(934.96875 0)"/>
     <use xlink:href="#DejaVuSans-4e" transform="translate(992.875 0)"/>
     <use xlink:href="#DejaVuSans-51" transform="translate(1050.78125 0)"/>
     <use xlink:href="#DejaVuSans-4c" transform="translate(1114.15625 0)"/>
     <use xlink:href="#DejaVuSans-49" transform="translate(1141.9375 0)"/>
     <use xlink:href="#DejaVuSans-48" transform="translate(1177.140625 0)"/>
    </g>
   </g>
   <g id="legend_1">
    <g id="patch_7">
     <path d="M 60.762344 72.407578 
L 257.409844 72.407578 
Q 259.009844 72.407578 259.009844 70.807578 
L 259.009844 47.606328 
Q 259.009844 46.006328 257.409844 46.006328 
L 60.762344 46.006328 
Q 59.162344 46.006328 59.162344 47.606328 
L 59.162344 70.807578 
Q 59.162344 72.407578 60.762344 72.407578 
z
" style="fill: #ffffff; opacity: 0.8; stroke: #cccccc; stroke-linejoin: miter"/>
    </g>
    <g id="line2d_19">
     <path d="M 62.362344 52.485078 
L 70.362344 52.485078 
L 78.362344 52.485078 
" style="fill: none; stroke: #ff7f0e; stroke-width: 1.5; stroke-linecap: square"/>
    </g>
    <g id="text_17">
     <!-- Revised light-cone fit -->
     <g transform="translate(84.762344 55.285078) scale(0.08 -0.08)">
      <defs>
       <path id="DejaVuSans-35" d="M 2841 2188 
Q 3044 2119 3236 1894 
Q 3428 1669 3622 1275 
L 4263 0 
L 3584 0 
L 2988 1197 
Q 2756 1666 2539 1819 
Q 2322 1972 1947 1972 
L 1259 1972 
L 1259 0 
L 628 0 
L 628 4666 
L 2053 4666 
Q 2853 4666 3247 4331 
Q 3641 3997 3641 3322 
Q 3641 2881 3436 2590 
Q 3231 2300 2841 2188 
z
M 1259 4147 
L 1259 2491 
L 2053 2491 
Q 2509 2491 2742 2702 
Q 2975 2913 2975 3322 
Q 2975 3731 2742 3939 
Q 2509 4147 2053 4147 
L 1259 4147 
z
" transform="scale(0.015625)"/>
       <path id="DejaVuSans-59" d="M 191 3500 
L 800 3500 
L 1894 563 
L 2988 3500 
L 3597 3500 
L 2284 0 
L 1503 0 
L 191 3500 
z
" transform="scale(0.015625)"/>
       <path id="DejaVuSans-4f" d="M 603 4863 
L 1178 4863 
L 1178 0 
L 603 0 
L 603 4863 
z
" transform="scale(0.015625)"/>
       <path id="DejaVuSans-4b" d="M 3513 2113 
L 3513 0 
L 2938 0 
L 2938 2094 
Q 2938 2591 2744 2837 
Q 2550 3084 2163 3084 
Q 1697 3084 1428 2787 
Q 1159 2491 1159 1978 
L 1159 0 
L 581 0 
L 581 4863 
L 1159 4863 
L 1159 2956 
Q 1366 3272 1645 3428 
Q 1925 3584 2291 3584 
Q 2894 3584 3203 3211 
Q 3513 2838 3513 2113 
z
" transform="scale(0.015625)"/>
       <path id="DejaVuSans-13af" d="M 3431 3500 
L 3431 0 
L 2853 0 
L 2853 3053 
L 1275 3053 
L 1275 0 
L 697 0 
L 697 3053 
L 147 3053 
L 147 3500 
L 697 3500 
L 697 3744 
Q 697 4316 967 4589 
Q 1238 4863 1797 4863 
L 2375 4863 
L 2375 4384 
L 1825 4384 
Q 1516 4384 1395 4259 
Q 1275 4134 1275 3809 
L 1275 3500 
L 3431 3500 
z
M 2853 4856 
L 3431 4856 
L 3431 4128 
L 2853 4128 
L 2853 4856 
z
" transform="scale(0.015625)"/>
      </defs>
      <use xlink:href="#DejaVuSans-35"/>
      <use xlink:href="#DejaVuSans-48" transform="translate(65 0)"/>
      <use xlink:href="#DejaVuSans-59" transform="translate(126.53125 0)"/>
      <use xlink:href="#DejaVuSans-4c" transform="translate(185.71875 0)"/>
      <use xlink:href="#DejaVuSans-56" transform="translate(213.5 0)"/>
      <use xlink:href="#DejaVuSans-48" transform="translate(265.59375 0)"/>
      <use xlink:href="#DejaVuSans-47" transform="translate(327.125 0)"/>
      <use xlink:href="#DejaVuSans-3" transform="translate(390.609375 0)"/>
      <use xlink:href="#DejaVuSans-4f" transform="translate(422.390625 0)"/>
      <use xlink:href="#DejaVuSans-4c" transform="translate(450.171875 0)"/>
      <use xlink:href="#DejaVuSans-4a" transform="translate(477.953125 0)"/>
      <use xlink:href="#DejaVuSans-4b" transform="translate(541.4375 0)"/>
      <use xlink:href="#DejaVuSans-57" transform="translate(604.8125 0)"/>
      <use xlink:href="#DejaVuSans-10" transform="translate(644.015625 0)"/>
      <use xlink:href="#DejaVuSans-46" transform="translate(680.09375 0)"/>
      <use xlink:href="#DejaVuSans-52" transform="translate(735.078125 0)"/>
      <use xlink:href="#DejaVuSans-51" transform="translate(796.265625 0)"/>
      <use xlink:href="#DejaVuSans-48" transform="translate(859.640625 0)"/>
      <use xlink:href="#DejaVuSans-3" transform="translate(921.171875 0)"/>
      <use xlink:href="#DejaVuSans-13af" transform="translate(952.953125 0)"/>
      <use xlink:href="#DejaVuSans-57" transform="translate(1015.9375 0)"/>
     </g>
    </g>
    <g id="LineCollection_2">
     <path d="M 70.362344 68.485703 
L 70.362344 60.485703 
" style="fill: none; stroke: #1f77b4; stroke-width: 1.5"/>
    </g>
    <g id="line2d_20">
     <g>
      <use xlink:href="#m81ba151576" x="70.362344" y="68.485703" style="fill: #1f77b4; stroke: #1f77b4"/>
     </g>
    </g>
    <g id="line2d_21">
     <g>
      <use xlink:href="#m81ba151576" x="70.362344" y="60.485703" style="fill: #1f77b4; stroke: #1f77b4"/>
     </g>
    </g>
    <g id="line2d_22"/>
    <g id="line2d_23">
     <g>
      <use xlink:href="#m1d7a549d50" x="70.362344" y="64.485703" style="fill: #1f77b4; stroke: #1f77b4"/>
     </g>
    </g>
    <g id="text_18">
     <!-- All LRG galaxies and random_0, NGC+SGC -->
     <g transform="translate(84.762344 67.285703) scale(0.08 -0.08)">
      <defs>
       <path id="DejaVuSans-2f" d="M 628 4666 
L 1259 4666 
L 1259 531 
L 3531 531 
L 3531 0 
L 628 0 
L 628 4666 
z
" transform="scale(0.015625)"/>
       <path id="DejaVuSans-2a" d="M 3809 666 
L 3809 1919 
L 2778 1919 
L 2778 2438 
L 4434 2438 
L 4434 434 
Q 4069 175 3628 42 
Q 3188 -91 2688 -91 
Q 1594 -91 976 548 
Q 359 1188 359 2328 
Q 359 3472 976 4111 
Q 1594 4750 2688 4750 
Q 3144 4750 3555 4637 
Q 3966 4525 4313 4306 
L 4313 3634 
Q 3963 3931 3569 4081 
Q 3175 4231 2741 4231 
Q 1884 4231 1454 3753 
Q 1025 3275 1025 2328 
Q 1025 1384 1454 906 
Q 1884 428 2741 428 
Q 3075 428 3337 486 
Q 3600 544 3809 666 
z
" transform="scale(0.015625)"/>
       <path id="DejaVuSans-50" d="M 3328 2828 
Q 3544 3216 3844 3400 
Q 4144 3584 4550 3584 
Q 5097 3584 5394 3201 
Q 5691 2819 5691 2113 
L 5691 0 
L 5113 0 
L 5113 2094 
Q 5113 2597 4934 2840 
Q 4756 3084 4391 3084 
Q 3944 3084 3684 2787 
Q 3425 2491 3425 1978 
L 3425 0 
L 2847 0 
L 2847 2094 
Q 2847 2600 2669 2842 
Q 2491 3084 2119 3084 
Q 1678 3084 1418 2786 
Q 1159 2488 1159 1978 
L 1159 0 
L 581 0 
L 581 3500 
L 1159 3500 
L 1159 2956 
Q 1356 3278 1631 3431 
Q 1906 3584 2284 3584 
Q 2666 3584 2933 3390 
Q 3200 3197 3328 2828 
z
" transform="scale(0.015625)"/>
       <path id="DejaVuSans-42" d="M 3263 -1063 
L 3263 -1509 
L -63 -1509 
L -63 -1063 
L 3263 -1063 
z
" transform="scale(0.015625)"/>
       <path id="DejaVuSans-f" d="M 750 794 
L 1409 794 
L 1409 256 
L 897 -744 
L 494 -744 
L 750 256 
L 750 794 
z
" transform="scale(0.015625)"/>
       <path id="DejaVuSans-31" d="M 628 4666 
L 1478 4666 
L 3547 763 
L 3547 4666 
L 4159 4666 
L 4159 0 
L 3309 0 
L 1241 3903 
L 1241 0 
L 628 0 
L 628 4666 
z
" transform="scale(0.015625)"/>
       <path id="DejaVuSans-26" d="M 4122 4306 
L 4122 3641 
Q 3803 3938 3442 4084 
Q 3081 4231 2675 4231 
Q 1875 4231 1450 3742 
Q 1025 3253 1025 2328 
Q 1025 1406 1450 917 
Q 1875 428 2675 428 
Q 3081 428 3442 575 
Q 3803 722 4122 1019 
L 4122 359 
Q 3791 134 3420 21 
Q 3050 -91 2638 -91 
Q 1578 -91 968 557 
Q 359 1206 359 2328 
Q 359 3453 968 4101 
Q 1578 4750 2638 4750 
Q 3056 4750 3426 4639 
Q 3797 4528 4122 4306 
z
" transform="scale(0.015625)"/>
       <path id="DejaVuSans-e" d="M 2944 4013 
L 2944 2272 
L 4684 2272 
L 4684 1741 
L 2944 1741 
L 2944 0 
L 2419 0 
L 2419 1741 
L 678 1741 
L 678 2272 
L 2419 2272 
L 2419 4013 
L 2944 4013 
z
" transform="scale(0.015625)"/>
       <path id="DejaVuSans-36" d="M 3425 4513 
L 3425 3897 
Q 3066 4069 2747 4153 
Q 2428 4238 2131 4238 
Q 1616 4238 1336 4038 
Q 1056 3838 1056 3469 
Q 1056 3159 1242 3001 
Q 1428 2844 1947 2747 
L 2328 2669 
Q 3034 2534 3370 2195 
Q 3706 1856 3706 1288 
Q 3706 609 3251 259 
Q 2797 -91 1919 -91 
Q 1588 -91 1214 -16 
Q 841 59 441 206 
L 441 856 
Q 825 641 1194 531 
Q 1563 422 1919 422 
Q 2459 422 2753 634 
Q 3047 847 3047 1241 
Q 3047 1584 2836 1778 
Q 2625 1972 2144 2069 
L 1759 2144 
Q 1053 2284 737 2584 
Q 422 2884 422 3419 
Q 422 4038 858 4394 
Q 1294 4750 2059 4750 
Q 2388 4750 2728 4690 
Q 3069 4631 3425 4513 
z
" transform="scale(0.015625)"/>
      </defs>
      <use xlink:href="#DejaVuSans-24"/>
      <use xlink:href="#DejaVuSans-4f" transform="translate(68.40625 0)"/>
      <use xlink:href="#DejaVuSans-4f" transform="translate(96.1875 0)"/>
      <use xlink:href="#DejaVuSans-3" transform="translate(123.96875 0)"/>
      <use xlink:href="#DejaVuSans-2f" transform="translate(155.75 0)"/>
      <use xlink:href="#DejaVuSans-35" transform="translate(211.46875 0)"/>
      <use xlink:href="#DejaVuSans-2a" transform="translate(280.953125 0)"/>
      <use xlink:href="#DejaVuSans-3" transform="translate(358.4375 0)"/>
      <use xlink:href="#DejaVuSans-4a" transform="translate(390.21875 0)"/>
      <use xlink:href="#DejaVuSans-44" transform="translate(453.703125 0)"/>
      <use xlink:href="#DejaVuSans-4f" transform="translate(514.984375 0)"/>
      <use xlink:href="#DejaVuSans-44" transform="translate(542.765625 0)"/>
      <use xlink:href="#DejaVuSans-5b" transform="translate(604.046875 0)"/>
      <use xlink:href="#DejaVuSans-4c" transform="translate(663.234375 0)"/>
      <use xlink:href="#DejaVuSans-48" transform="translate(691.015625 0)"/>
      <use xlink:href="#DejaVuSans-56" transform="translate(752.546875 0)"/>
      <use xlink:href="#DejaVuSans-3" transform="translate(804.640625 0)"/>
      <use xlink:href="#DejaVuSans-44" transform="translate(836.421875 0)"/>
      <use xlink:href="#DejaVuSans-51" transform="translate(897.703125 0)"/>
      <use xlink:href="#DejaVuSans-47" transform="translate(961.078125 0)"/>
      <use xlink:href="#DejaVuSans-3" transform="translate(1024.5625 0)"/>
      <use xlink:href="#DejaVuSans-55" transform="translate(1056.34375 0)"/>
      <use xlink:href="#DejaVuSans-44" transform="translate(1097.453125 0)"/>
      <use xlink:href="#DejaVuSans-51" transform="translate(1158.734375 0)"/>
      <use xlink:href="#DejaVuSans-47" transform="translate(1222.109375 0)"/>
      <use xlink:href="#DejaVuSans-52" transform="translate(1285.59375 0)"/>
      <use xlink:href="#DejaVuSans-50" transform="translate(1346.78125 0)"/>
      <use xlink:href="#DejaVuSans-42" transform="translate(1444.1875 0)"/>
      <use xlink:href="#DejaVuSans-13" transform="translate(1494.1875 0)"/>
      <use xlink:href="#DejaVuSans-f" transform="translate(1557.8125 0)"/>
      <use xlink:href="#DejaVuSans-3" transform="translate(1589.59375 0)"/>
      <use xlink:href="#DejaVuSans-31" transform="translate(1621.375 0)"/>
      <use xlink:href="#DejaVuSans-2a" transform="translate(1696.1875 0)"/>
      <use xlink:href="#DejaVuSans-26" transform="translate(1773.671875 0)"/>
      <use xlink:href="#DejaVuSans-e" transform="translate(1843.5 0)"/>
      <use xlink:href="#DejaVuSans-36" transform="translate(1927.296875 0)"/>
      <use xlink:href="#DejaVuSans-2a" transform="translate(1990.78125 0)"/>
      <use xlink:href="#DejaVuSans-26" transform="translate(2068.265625 0)"/>
     </g>
    </g>
   </g>
  </g>
 </g>
 <defs>
  <clipPath id="p7fa59edf82">
   <rect x="55.162344" y="42.006328" width="546.037656" height="281.631328"/>
  </clipPath>
 </defs>
</svg>
